G04*
G04 #@! TF.GenerationSoftware,Altium Limited,Altium Designer,20.0.13 (296)*
G04*
G04 Layer_Physical_Order=3*
G04 Layer_Color=16440176*
%FSLAX44Y44*%
%MOMM*%
G71*
G01*
G75*
%ADD18C,0.2540*%
%ADD87C,0.5000*%
%ADD89C,1.0000*%
%ADD92C,1.9050*%
%ADD93R,1.9050X1.9050*%
%ADD95C,1.6500*%
%ADD98C,1.6000*%
%ADD99R,1.6000X1.6000*%
%ADD100C,1.4000*%
%ADD103R,2.1000X2.1000*%
%ADD107C,2.4450*%
%ADD109C,1.5000*%
%ADD112C,0.7000*%
%ADD113C,0.8000*%
%ADD114C,1.2700*%
G36*
X835431Y3569D02*
X3569D01*
Y904431D01*
X835431D01*
Y3569D01*
D02*
G37*
%LPC*%
G36*
X381290Y892040D02*
X369520D01*
Y880270D01*
X381290D01*
Y892040D01*
D02*
G37*
G36*
X366980D02*
X355210D01*
Y880270D01*
X366980D01*
Y892040D01*
D02*
G37*
G36*
X286400Y891983D02*
X283881Y891652D01*
X281533Y890679D01*
X279518Y889132D01*
X277971Y887117D01*
X276998Y884769D01*
X276667Y882250D01*
X276998Y879731D01*
X277971Y877383D01*
X279518Y875368D01*
X281533Y873821D01*
X283881Y872848D01*
X286400Y872517D01*
X288919Y872848D01*
X291267Y873821D01*
X293283Y875368D01*
X294829Y877383D01*
X295802Y879731D01*
X296133Y882250D01*
X295802Y884769D01*
X294829Y887117D01*
X293283Y889132D01*
X291267Y890679D01*
X288919Y891652D01*
X286400Y891983D01*
D02*
G37*
G36*
X261000D02*
X258481Y891652D01*
X256133Y890679D01*
X254118Y889132D01*
X252571Y887117D01*
X251598Y884769D01*
X251267Y882250D01*
X251598Y879731D01*
X252571Y877383D01*
X254118Y875368D01*
X256133Y873821D01*
X258481Y872848D01*
X261000Y872517D01*
X263519Y872848D01*
X265867Y873821D01*
X267882Y875368D01*
X269429Y877383D01*
X270402Y879731D01*
X270733Y882250D01*
X270402Y884769D01*
X269429Y887117D01*
X267882Y889132D01*
X265867Y890679D01*
X263519Y891652D01*
X261000Y891983D01*
D02*
G37*
G36*
X179300D02*
X176781Y891652D01*
X174433Y890679D01*
X172418Y889132D01*
X170871Y887117D01*
X169898Y884769D01*
X169567Y882250D01*
X169898Y879731D01*
X170871Y877383D01*
X172418Y875368D01*
X174433Y873821D01*
X176781Y872848D01*
X179300Y872517D01*
X181819Y872848D01*
X184167Y873821D01*
X186182Y875368D01*
X187729Y877383D01*
X188702Y879731D01*
X189033Y882250D01*
X188702Y884769D01*
X187729Y887117D01*
X186182Y889132D01*
X184167Y890679D01*
X181819Y891652D01*
X179300Y891983D01*
D02*
G37*
G36*
X153900D02*
X151381Y891652D01*
X149033Y890679D01*
X147018Y889132D01*
X145471Y887117D01*
X144498Y884769D01*
X144167Y882250D01*
X144498Y879731D01*
X145471Y877383D01*
X147018Y875368D01*
X149033Y873821D01*
X151381Y872848D01*
X153900Y872517D01*
X156419Y872848D01*
X158767Y873821D01*
X160783Y875368D01*
X162329Y877383D01*
X163302Y879731D01*
X163633Y882250D01*
X163302Y884769D01*
X162329Y887117D01*
X160783Y889132D01*
X158767Y890679D01*
X156419Y891652D01*
X153900Y891983D01*
D02*
G37*
G36*
X418250Y891608D02*
X414987Y891178D01*
X411946Y889919D01*
X409335Y887915D01*
X407331Y885304D01*
X406072Y882263D01*
X405642Y879000D01*
X406072Y875737D01*
X407331Y872696D01*
X409335Y870085D01*
X411946Y868081D01*
X414987Y866822D01*
X418250Y866392D01*
X421513Y866822D01*
X424554Y868081D01*
X427165Y870085D01*
X429169Y872696D01*
X430428Y875737D01*
X430858Y879000D01*
X430428Y882263D01*
X429169Y885304D01*
X427165Y887915D01*
X424554Y889919D01*
X421513Y891178D01*
X418250Y891608D01*
D02*
G37*
G36*
X381290Y877730D02*
X369520D01*
Y865960D01*
X381290D01*
Y877730D01*
D02*
G37*
G36*
X366980D02*
X355210D01*
Y865960D01*
X366980D01*
Y877730D01*
D02*
G37*
G36*
X658750Y873000D02*
X640750D01*
Y855000D01*
X658750D01*
Y873000D01*
D02*
G37*
G36*
X132750Y857608D02*
X130604Y857181D01*
X128785Y855965D01*
X127569Y854146D01*
X127142Y852000D01*
X127569Y849854D01*
X128785Y848035D01*
X130604Y846819D01*
X132750Y846392D01*
X134896Y846819D01*
X136715Y848035D01*
X137931Y849854D01*
X138358Y852000D01*
X137931Y854146D01*
X136715Y855965D01*
X134896Y857181D01*
X132750Y857608D01*
D02*
G37*
G36*
X89750Y852858D02*
X87604Y852431D01*
X85785Y851215D01*
X84569Y849396D01*
X84142Y847250D01*
X84569Y845104D01*
X85785Y843285D01*
X87604Y842069D01*
X89750Y841642D01*
X91896Y842069D01*
X93715Y843285D01*
X94931Y845104D01*
X95358Y847250D01*
X94931Y849396D01*
X93715Y851215D01*
X91896Y852431D01*
X89750Y852858D01*
D02*
G37*
G36*
X126000Y839858D02*
X123854Y839431D01*
X122035Y838215D01*
X120819Y836396D01*
X120392Y834250D01*
X120819Y832104D01*
X122035Y830285D01*
X123854Y829069D01*
X126000Y828642D01*
X128146Y829069D01*
X129965Y830285D01*
X131181Y832104D01*
X131608Y834250D01*
X131181Y836396D01*
X129965Y838215D01*
X128146Y839431D01*
X126000Y839858D01*
D02*
G37*
G36*
X651020Y823455D02*
Y815270D01*
X659205D01*
X659044Y816490D01*
X658083Y818811D01*
X656554Y820804D01*
X654561Y822333D01*
X652241Y823294D01*
X651020Y823455D01*
D02*
G37*
G36*
X648480Y823455D02*
X647260Y823294D01*
X644939Y822333D01*
X642946Y820804D01*
X641417Y818811D01*
X640456Y816490D01*
X640295Y815270D01*
X648480D01*
Y823455D01*
D02*
G37*
G36*
X277300Y851588D02*
X273722Y851236D01*
X270282Y850192D01*
X267112Y848498D01*
X264333Y846217D01*
X262052Y843438D01*
X260358Y840268D01*
X259314Y836828D01*
X258962Y833250D01*
X259314Y829672D01*
X260358Y826232D01*
X262052Y823062D01*
X264333Y820283D01*
X267112Y818002D01*
X270282Y816308D01*
X273722Y815264D01*
X277300Y814912D01*
X280878Y815264D01*
X284318Y816308D01*
X287488Y818002D01*
X290267Y820283D01*
X292548Y823062D01*
X294242Y826232D01*
X295286Y829672D01*
X295638Y833250D01*
X295286Y836828D01*
X294242Y840268D01*
X292548Y843438D01*
X290267Y846217D01*
X287488Y848498D01*
X284318Y850192D01*
X280878Y851236D01*
X277300Y851588D01*
D02*
G37*
G36*
X163000D02*
X159422Y851236D01*
X155982Y850192D01*
X152812Y848498D01*
X150033Y846217D01*
X147752Y843438D01*
X146058Y840268D01*
X145014Y836828D01*
X144662Y833250D01*
X145014Y829672D01*
X146058Y826232D01*
X147752Y823062D01*
X150033Y820283D01*
X152812Y818002D01*
X155982Y816308D01*
X159422Y815264D01*
X163000Y814912D01*
X166578Y815264D01*
X170018Y816308D01*
X173188Y818002D01*
X175967Y820283D01*
X178248Y823062D01*
X179942Y826232D01*
X180986Y829672D01*
X181338Y833250D01*
X180986Y836828D01*
X179942Y840268D01*
X178248Y843438D01*
X175967Y846217D01*
X173188Y848498D01*
X170018Y850192D01*
X166578Y851236D01*
X163000Y851588D01*
D02*
G37*
G36*
X659205Y812730D02*
X651020D01*
Y804545D01*
X652241Y804706D01*
X654561Y805667D01*
X656554Y807196D01*
X658083Y809189D01*
X659044Y811509D01*
X659205Y812730D01*
D02*
G37*
G36*
X648480D02*
X640295D01*
X640456Y811509D01*
X641417Y809189D01*
X642946Y807196D01*
X644939Y805667D01*
X647260Y804706D01*
X648480Y804545D01*
Y812730D01*
D02*
G37*
G36*
X143970Y817461D02*
Y804020D01*
X157411D01*
X157251Y805644D01*
X156407Y808428D01*
X155036Y810993D01*
X153191Y813241D01*
X150943Y815086D01*
X148378Y816457D01*
X145595Y817301D01*
X143970Y817461D01*
D02*
G37*
G36*
X141430Y817461D02*
X139806Y817301D01*
X137022Y816457D01*
X134457Y815086D01*
X132209Y813241D01*
X130364Y810993D01*
X128993Y808428D01*
X128149Y805644D01*
X127989Y804020D01*
X141430D01*
Y817461D01*
D02*
G37*
G36*
X298870Y817461D02*
Y804020D01*
X312311D01*
X312151Y805644D01*
X311307Y808428D01*
X309936Y810993D01*
X308091Y813241D01*
X305843Y815086D01*
X303278Y816457D01*
X300494Y817301D01*
X298870Y817461D01*
D02*
G37*
G36*
X296330D02*
X294706Y817301D01*
X291922Y816457D01*
X289357Y815086D01*
X287109Y813241D01*
X285264Y810993D01*
X283893Y808428D01*
X283049Y805644D01*
X282889Y804020D01*
X296330D01*
Y817461D01*
D02*
G37*
G36*
X785750Y860091D02*
X781121Y859727D01*
X776606Y858643D01*
X772316Y856866D01*
X768357Y854440D01*
X764826Y851424D01*
X761810Y847893D01*
X759384Y843934D01*
X757607Y839644D01*
X756523Y835129D01*
X756159Y830500D01*
X756523Y825871D01*
X757607Y821356D01*
X759384Y817066D01*
X761810Y813107D01*
X764826Y809576D01*
X768357Y806560D01*
X772316Y804134D01*
X776606Y802357D01*
X781121Y801273D01*
X785750Y800909D01*
X790379Y801273D01*
X794894Y802357D01*
X799184Y804134D01*
X803143Y806560D01*
X806674Y809576D01*
X809690Y813107D01*
X812116Y817066D01*
X813893Y821356D01*
X814977Y825871D01*
X815341Y830500D01*
X814977Y835129D01*
X813893Y839644D01*
X812116Y843934D01*
X809690Y847893D01*
X806674Y851424D01*
X803143Y854440D01*
X799184Y856866D01*
X794894Y858643D01*
X790379Y859727D01*
X785750Y860091D01*
D02*
G37*
G36*
X39250D02*
X34621Y859727D01*
X30106Y858643D01*
X25816Y856866D01*
X21857Y854440D01*
X18326Y851424D01*
X15310Y847893D01*
X12884Y843934D01*
X11107Y839644D01*
X10023Y835129D01*
X9659Y830500D01*
X10023Y825871D01*
X11107Y821356D01*
X12884Y817066D01*
X15310Y813107D01*
X18326Y809576D01*
X21857Y806560D01*
X25816Y804134D01*
X30106Y802357D01*
X34621Y801273D01*
X39250Y800909D01*
X43879Y801273D01*
X48394Y802357D01*
X52684Y804134D01*
X56643Y806560D01*
X60174Y809576D01*
X63190Y813107D01*
X65616Y817066D01*
X67393Y821356D01*
X68477Y825871D01*
X68841Y830500D01*
X68477Y835129D01*
X67393Y839644D01*
X65616Y843934D01*
X63190Y847893D01*
X60174Y851424D01*
X56643Y854440D01*
X52684Y856866D01*
X48394Y858643D01*
X43879Y859727D01*
X39250Y860091D01*
D02*
G37*
G36*
X157411Y801480D02*
X143970D01*
Y788039D01*
X145595Y788199D01*
X148378Y789043D01*
X150943Y790414D01*
X153191Y792259D01*
X155036Y794507D01*
X156407Y797072D01*
X157251Y799855D01*
X157411Y801480D01*
D02*
G37*
G36*
X312311Y801480D02*
X298870D01*
Y788039D01*
X300494Y788199D01*
X303278Y789043D01*
X305843Y790414D01*
X308091Y792259D01*
X309936Y794507D01*
X311307Y797072D01*
X312151Y799855D01*
X312311Y801480D01*
D02*
G37*
G36*
X296330D02*
X282889D01*
X283049Y799855D01*
X283893Y797072D01*
X285264Y794507D01*
X287109Y792259D01*
X289357Y790414D01*
X291922Y789043D01*
X294706Y788199D01*
X296330Y788039D01*
Y801480D01*
D02*
G37*
G36*
X141430Y801480D02*
X127989D01*
X128149Y799855D01*
X128993Y797072D01*
X130364Y794507D01*
X132209Y792259D01*
X134457Y790414D01*
X137022Y789043D01*
X139806Y788199D01*
X141430Y788039D01*
Y801480D01*
D02*
G37*
G36*
X273640Y778740D02*
X255660D01*
Y760760D01*
X273640D01*
Y778740D01*
D02*
G37*
G36*
X239250Y778818D02*
X236903Y778509D01*
X234716Y777603D01*
X232838Y776162D01*
X231397Y774284D01*
X230491Y772097D01*
X230182Y769750D01*
X230491Y767403D01*
X231397Y765216D01*
X232838Y763338D01*
X234716Y761897D01*
X236903Y760991D01*
X239250Y760682D01*
X241597Y760991D01*
X243784Y761897D01*
X245662Y763338D01*
X247103Y765216D01*
X248009Y767403D01*
X248318Y769750D01*
X248009Y772097D01*
X247103Y774284D01*
X245662Y776162D01*
X243784Y777603D01*
X241597Y778509D01*
X239250Y778818D01*
D02*
G37*
G36*
X213850D02*
X211503Y778509D01*
X209316Y777603D01*
X207438Y776162D01*
X205997Y774284D01*
X205091Y772097D01*
X204783Y769750D01*
X205091Y767403D01*
X205997Y765216D01*
X207438Y763338D01*
X209316Y761897D01*
X211503Y760991D01*
X213850Y760682D01*
X216197Y760991D01*
X218384Y761897D01*
X220262Y763338D01*
X221703Y765216D01*
X222609Y767403D01*
X222918Y769750D01*
X222609Y772097D01*
X221703Y774284D01*
X220262Y776162D01*
X218384Y777603D01*
X216197Y778509D01*
X213850Y778818D01*
D02*
G37*
G36*
X188450D02*
X186103Y778509D01*
X183916Y777603D01*
X182038Y776162D01*
X180597Y774284D01*
X179691Y772097D01*
X179382Y769750D01*
X179691Y767403D01*
X180597Y765216D01*
X182038Y763338D01*
X183916Y761897D01*
X186103Y760991D01*
X188450Y760682D01*
X190797Y760991D01*
X192984Y761897D01*
X194862Y763338D01*
X196303Y765216D01*
X197209Y767403D01*
X197518Y769750D01*
X197209Y772097D01*
X196303Y774284D01*
X194862Y776162D01*
X192984Y777603D01*
X190797Y778509D01*
X188450Y778818D01*
D02*
G37*
G36*
X251950Y753418D02*
X249603Y753109D01*
X247416Y752203D01*
X245538Y750762D01*
X244097Y748884D01*
X243191Y746697D01*
X242882Y744350D01*
X243191Y742003D01*
X244097Y739816D01*
X245538Y737938D01*
X247416Y736497D01*
X249603Y735591D01*
X251950Y735282D01*
X254297Y735591D01*
X256484Y736497D01*
X258362Y737938D01*
X259803Y739816D01*
X260709Y742003D01*
X261018Y744350D01*
X260709Y746697D01*
X259803Y748884D01*
X258362Y750762D01*
X256484Y752203D01*
X254297Y753109D01*
X251950Y753418D01*
D02*
G37*
G36*
X226550D02*
X224203Y753109D01*
X222016Y752203D01*
X220138Y750762D01*
X218697Y748884D01*
X217791Y746697D01*
X217482Y744350D01*
X217791Y742003D01*
X218697Y739816D01*
X220138Y737938D01*
X222016Y736497D01*
X224203Y735591D01*
X226550Y735282D01*
X228897Y735591D01*
X231084Y736497D01*
X232962Y737938D01*
X234403Y739816D01*
X235309Y742003D01*
X235618Y744350D01*
X235309Y746697D01*
X234403Y748884D01*
X232962Y750762D01*
X231084Y752203D01*
X228897Y753109D01*
X226550Y753418D01*
D02*
G37*
G36*
X201150D02*
X198803Y753109D01*
X196616Y752203D01*
X194738Y750762D01*
X193297Y748884D01*
X192391Y746697D01*
X192083Y744350D01*
X192391Y742003D01*
X193297Y739816D01*
X194738Y737938D01*
X196616Y736497D01*
X198803Y735591D01*
X201150Y735282D01*
X203497Y735591D01*
X205684Y736497D01*
X207562Y737938D01*
X209003Y739816D01*
X209909Y742003D01*
X210218Y744350D01*
X209909Y746697D01*
X209003Y748884D01*
X207562Y750762D01*
X205684Y752203D01*
X203497Y753109D01*
X201150Y753418D01*
D02*
G37*
G36*
X175750D02*
X173403Y753109D01*
X171216Y752203D01*
X169338Y750762D01*
X167897Y748884D01*
X166991Y746697D01*
X166682Y744350D01*
X166991Y742003D01*
X167897Y739816D01*
X169338Y737938D01*
X171216Y736497D01*
X173403Y735591D01*
X175750Y735282D01*
X178097Y735591D01*
X180284Y736497D01*
X182162Y737938D01*
X183603Y739816D01*
X184509Y742003D01*
X184818Y744350D01*
X184509Y746697D01*
X183603Y748884D01*
X182162Y750762D01*
X180284Y752203D01*
X178097Y753109D01*
X175750Y753418D01*
D02*
G37*
G36*
X577500Y710608D02*
X575354Y710181D01*
X573535Y708965D01*
X572319Y707146D01*
X571892Y705000D01*
X572319Y702854D01*
X573535Y701035D01*
X575354Y699819D01*
X577500Y699392D01*
X579646Y699819D01*
X581465Y701035D01*
X582681Y702854D01*
X583108Y705000D01*
X582681Y707146D01*
X581465Y708965D01*
X579646Y710181D01*
X577500Y710608D01*
D02*
G37*
G36*
X105500Y794358D02*
X103354Y793931D01*
X101535Y792715D01*
X100319Y790896D01*
X99892Y788750D01*
X100319Y786604D01*
X100912Y785717D01*
Y756750D01*
X101261Y754994D01*
X102256Y753506D01*
X154756Y701006D01*
X156244Y700011D01*
X158000Y699662D01*
X181912D01*
Y681303D01*
X181508Y680992D01*
X180385Y679530D01*
X179680Y677827D01*
X179440Y676000D01*
X179557Y675108D01*
X178519Y673838D01*
X155033D01*
X154146Y674431D01*
X152000Y674858D01*
X149854Y674431D01*
X148035Y673215D01*
X146819Y671396D01*
X146392Y669250D01*
X146819Y667104D01*
X148035Y665285D01*
X149854Y664069D01*
X152000Y663642D01*
X154146Y664069D01*
X155033Y664662D01*
X183571D01*
X185327Y665011D01*
X186815Y666006D01*
X189744Y668935D01*
X189748Y668940D01*
X241545D01*
X242031Y667766D01*
X240758Y666492D01*
X239636Y665030D01*
X238930Y663327D01*
X238690Y661500D01*
X238930Y659673D01*
X239636Y657970D01*
X240758Y656508D01*
X242220Y655386D01*
X243923Y654680D01*
X245750Y654440D01*
X247577Y654680D01*
X249280Y655386D01*
X250742Y656508D01*
X260250Y666015D01*
X271257Y655008D01*
X272720Y653885D01*
X274423Y653180D01*
X276250Y652940D01*
X291940D01*
Y621674D01*
X265258Y594992D01*
X265257Y594992D01*
X253326Y583060D01*
X225750D01*
X223923Y582820D01*
X222220Y582114D01*
X220758Y580992D01*
X220447Y580588D01*
X142500D01*
X140744Y580239D01*
X139256Y579244D01*
X123650Y563639D01*
X122604Y563431D01*
X121717Y562838D01*
X59700D01*
X57944Y562489D01*
X56456Y561494D01*
X43933Y548971D01*
X43730Y549055D01*
X41250Y549382D01*
X38770Y549055D01*
X36459Y548098D01*
X34475Y546576D01*
X32952Y544591D01*
X31995Y542280D01*
X31668Y539800D01*
X31995Y537320D01*
X32952Y535009D01*
X34475Y533025D01*
X36459Y531502D01*
X38770Y530545D01*
X41250Y530218D01*
X43730Y530545D01*
X46041Y531502D01*
X48025Y533025D01*
X49548Y535009D01*
X50505Y537320D01*
X50832Y539800D01*
X50505Y542280D01*
X50421Y542483D01*
X61600Y553662D01*
X121717D01*
X122604Y553069D01*
X124750Y552642D01*
X126896Y553069D01*
X128715Y554285D01*
X129931Y556104D01*
X130139Y557150D01*
X144401Y571412D01*
X212514D01*
X213000Y570238D01*
X199849Y557088D01*
X187500D01*
X185744Y556739D01*
X184256Y555744D01*
X146756Y518244D01*
X145761Y516756D01*
X145412Y515000D01*
Y396783D01*
X144819Y395896D01*
X144392Y393750D01*
X144819Y391604D01*
X146035Y389785D01*
X147854Y388569D01*
X150000Y388142D01*
X152146Y388569D01*
X153965Y389785D01*
X155181Y391604D01*
X155608Y393750D01*
X155181Y395896D01*
X154588Y396783D01*
Y513100D01*
X189401Y547912D01*
X201750D01*
X203506Y548261D01*
X204994Y549256D01*
X224803Y569064D01*
X225750Y568940D01*
X226322D01*
X242459Y552803D01*
Y531203D01*
X242808Y529447D01*
X243803Y527959D01*
X264111Y507650D01*
X264319Y506604D01*
X265535Y504785D01*
X267354Y503569D01*
X269500Y503142D01*
X271646Y503569D01*
X273465Y504785D01*
X274681Y506604D01*
X275108Y508750D01*
X274681Y510896D01*
X273465Y512715D01*
X271646Y513931D01*
X270600Y514139D01*
X251635Y533104D01*
Y546592D01*
X252905Y546977D01*
X253535Y546035D01*
X255354Y544819D01*
X257500Y544392D01*
X259646Y544819D01*
X261465Y546035D01*
X262681Y547854D01*
X263108Y550000D01*
X262681Y552146D01*
X261465Y553965D01*
X259646Y555181D01*
X257924Y555523D01*
X255500Y557947D01*
X254011Y558942D01*
X252256Y559291D01*
X248947D01*
X240472Y567766D01*
X240958Y568940D01*
X256250D01*
X258077Y569180D01*
X259780Y569885D01*
X261243Y571007D01*
X261647Y571412D01*
X276000D01*
X277756Y571761D01*
X279244Y572756D01*
X289320Y582831D01*
X291042Y583173D01*
X292861Y584389D01*
X294076Y586208D01*
X294285Y587255D01*
X310309Y603279D01*
X315290D01*
X315604Y603069D01*
X317750Y602642D01*
X319896Y603069D01*
X321715Y604285D01*
X322931Y606104D01*
X323358Y608250D01*
X322931Y610396D01*
X321715Y612215D01*
X319896Y613431D01*
X317750Y613858D01*
X315604Y613431D01*
X314144Y612455D01*
X308409D01*
X306653Y612106D01*
X305164Y611112D01*
X287796Y593743D01*
X286750Y593535D01*
X284930Y592320D01*
X283715Y590500D01*
X283641Y590130D01*
X274100Y580588D01*
X272482D01*
X271996Y581762D01*
X275243Y585008D01*
X275243Y585008D01*
X303993Y613758D01*
X305114Y615220D01*
X305820Y616923D01*
X306060Y618750D01*
Y652940D01*
X518075D01*
X557888Y613127D01*
X526900Y582139D01*
X525854Y581931D01*
X524035Y580715D01*
X522819Y578896D01*
X522392Y576750D01*
X522819Y574604D01*
X524035Y572785D01*
X525854Y571569D01*
X528000Y571142D01*
X530146Y571569D01*
X531965Y572785D01*
X533181Y574604D01*
X533389Y575650D01*
X564377Y606638D01*
X642629Y528386D01*
X642143Y527213D01*
X632125D01*
X630369Y526864D01*
X628881Y525869D01*
X500209Y397197D01*
X499500Y397338D01*
X361750D01*
X359994Y396989D01*
X358506Y395994D01*
X340900Y378389D01*
X339854Y378181D01*
X338035Y376965D01*
X336819Y375146D01*
X336392Y373000D01*
X336819Y370854D01*
X337336Y370080D01*
X336657Y368810D01*
X212358D01*
X210530Y368570D01*
X208828Y367864D01*
X207365Y366742D01*
X199308Y358685D01*
X198186Y357222D01*
X197480Y355519D01*
X197240Y353692D01*
Y345865D01*
X191300D01*
Y325865D01*
X211300D01*
Y338406D01*
X211360Y338865D01*
Y350768D01*
X215282Y354690D01*
X361076D01*
X364592Y351173D01*
X364106Y350000D01*
X255885D01*
X254250Y348365D01*
Y325250D01*
X241250Y312250D01*
X176000D01*
X150750Y287000D01*
X7250D01*
Y7500D01*
X419500D01*
Y154334D01*
X419748Y154557D01*
X419748Y154481D01*
X419500Y7500D01*
X832000D01*
Y340000D01*
X823500Y348500D01*
X823365Y348365D01*
X667615D01*
Y324615D01*
X653750Y310750D01*
X587750D01*
X570250Y293250D01*
X473250D01*
X465750Y285750D01*
Y188750D01*
X451500Y174500D01*
X438500D01*
X420593Y156594D01*
X419826Y155826D01*
X419750Y155750D01*
X419656Y155844D01*
X418853Y156647D01*
X402500Y173000D01*
Y205787D01*
X403770Y205837D01*
X404023Y202621D01*
X405107Y198106D01*
X406884Y193816D01*
X409310Y189857D01*
X412326Y186326D01*
X415857Y183310D01*
X419816Y180884D01*
X424106Y179107D01*
X428621Y178023D01*
X433250Y177659D01*
X437879Y178023D01*
X442394Y179107D01*
X446684Y180884D01*
X450643Y183310D01*
X454174Y186326D01*
X457190Y189857D01*
X459616Y193816D01*
X461393Y198106D01*
X462477Y202621D01*
X462841Y207250D01*
X462477Y211879D01*
X461393Y216394D01*
X459616Y220684D01*
X457190Y224643D01*
X454174Y228174D01*
X450643Y231190D01*
X446684Y233616D01*
X442394Y235393D01*
X437879Y236477D01*
X433250Y236841D01*
X428621Y236477D01*
X424106Y235393D01*
X419816Y233616D01*
X415857Y231190D01*
X412326Y228174D01*
X409310Y224643D01*
X406884Y220684D01*
X405107Y216394D01*
X404023Y211879D01*
X403770Y208663D01*
X402500Y208713D01*
Y328805D01*
X613550D01*
Y325865D01*
X633550D01*
Y345865D01*
X613550D01*
Y342925D01*
X394575D01*
X387500Y350000D01*
X385735D01*
X369824Y365910D01*
X370242Y367289D01*
X370396Y367319D01*
X372215Y368535D01*
X373431Y370354D01*
X373858Y372500D01*
X373431Y374646D01*
X372215Y376465D01*
X370396Y377681D01*
X368250Y378108D01*
X366104Y377681D01*
X364285Y376465D01*
X363069Y374646D01*
X362642Y372500D01*
X363069Y370354D01*
X363252Y370080D01*
X362573Y368810D01*
X347343D01*
X346664Y370080D01*
X347181Y370854D01*
X347389Y371900D01*
X363651Y388162D01*
X489514D01*
X490000Y386988D01*
X482400Y379389D01*
X481354Y379181D01*
X479535Y377965D01*
X478319Y376146D01*
X477892Y374000D01*
X478319Y371854D01*
X479535Y370035D01*
X481354Y368819D01*
X483500Y368392D01*
X485646Y368819D01*
X487465Y370035D01*
X488681Y371854D01*
X488889Y372900D01*
X504119Y388131D01*
X634025Y518037D01*
X652978D01*
X689790Y481226D01*
Y459699D01*
X688630Y458810D01*
X686783Y456402D01*
X685622Y453599D01*
X685226Y450590D01*
X685622Y447581D01*
X686783Y444778D01*
X688630Y442370D01*
X691038Y440523D01*
X693841Y439362D01*
X696850Y438965D01*
X699859Y439362D01*
X702662Y440523D01*
X705070Y442370D01*
X706917Y444778D01*
X708078Y447581D01*
X708475Y450590D01*
X708078Y453599D01*
X706917Y456402D01*
X705070Y458810D01*
X703910Y459699D01*
Y484150D01*
X703670Y485977D01*
X702964Y487680D01*
X701842Y489142D01*
X663367Y527617D01*
X586116Y604869D01*
X586926Y605855D01*
X587354Y605569D01*
X589500Y605142D01*
X591646Y605569D01*
X593465Y606785D01*
X594681Y608604D01*
X595108Y610750D01*
X594681Y612896D01*
X593465Y614715D01*
X591646Y615931D01*
X589500Y616358D01*
X587354Y615931D01*
X585535Y614715D01*
X584319Y612896D01*
X583892Y610750D01*
X584319Y608604D01*
X584605Y608176D01*
X583619Y607366D01*
X573368Y617617D01*
X525992Y664992D01*
X524530Y666115D01*
X522827Y666820D01*
X521000Y667060D01*
X279174D01*
X265243Y680992D01*
X265242Y680992D01*
X263780Y682114D01*
X262077Y682820D01*
X260250Y683060D01*
X198458D01*
X197972Y684234D01*
X216744Y703006D01*
X217739Y704494D01*
X218088Y706250D01*
Y714217D01*
X218681Y715104D01*
X219108Y717250D01*
X218681Y719396D01*
X217465Y721215D01*
X215646Y722431D01*
X213500Y722858D01*
X211354Y722431D01*
X209535Y721215D01*
X208319Y719396D01*
X207892Y717250D01*
X208319Y715104D01*
X208912Y714217D01*
Y708150D01*
X192262Y691500D01*
X191088Y691986D01*
Y702349D01*
X200600Y711861D01*
X201646Y712069D01*
X203465Y713285D01*
X204681Y715104D01*
X205108Y717250D01*
X204681Y719396D01*
X203465Y721215D01*
X201646Y722431D01*
X199500Y722858D01*
X197354Y722431D01*
X195535Y721215D01*
X194319Y719396D01*
X194111Y718350D01*
X184599Y708838D01*
X159901D01*
X110088Y758651D01*
Y785717D01*
X110681Y786604D01*
X111108Y788750D01*
X110681Y790896D01*
X109465Y792715D01*
X107646Y793931D01*
X105500Y794358D01*
D02*
G37*
G36*
X205230Y665972D02*
X203084Y665545D01*
X201265Y664329D01*
X200049Y662510D01*
X199928Y661900D01*
X198580Y661632D01*
X198085Y662372D01*
X196266Y663588D01*
X194120Y664015D01*
X191974Y663588D01*
X190155Y662372D01*
X188939Y660553D01*
X188610Y658897D01*
X187498Y658241D01*
X187276Y658205D01*
X185250Y658608D01*
X183104Y658181D01*
X181285Y656965D01*
X180069Y655146D01*
X179642Y653000D01*
X180069Y650854D01*
X181285Y649035D01*
X183104Y647819D01*
X185250Y647392D01*
X187396Y647819D01*
X189215Y649035D01*
X190431Y650854D01*
X190760Y652510D01*
X191872Y653166D01*
X192094Y653202D01*
X194120Y652799D01*
X196266Y653226D01*
X198085Y654442D01*
X199301Y656261D01*
X199422Y656870D01*
X200770Y657139D01*
X201265Y656399D01*
X203084Y655183D01*
X205230Y654756D01*
X205489Y654808D01*
X206399Y653967D01*
X206819Y651854D01*
X208035Y650035D01*
X209854Y648819D01*
X212000Y648392D01*
X214146Y648819D01*
X215965Y650035D01*
X217181Y651854D01*
X217608Y654000D01*
X217181Y656146D01*
X215965Y657965D01*
X214146Y659181D01*
X212000Y659608D01*
X211741Y659556D01*
X210779Y660660D01*
X210411Y662510D01*
X209195Y664329D01*
X207376Y665545D01*
X205230Y665972D01*
D02*
G37*
G36*
X271250Y638858D02*
X269104Y638431D01*
X267285Y637215D01*
X266069Y635396D01*
X265642Y633250D01*
X265817Y632373D01*
X264919Y631475D01*
X264250Y631608D01*
X262104Y631181D01*
X260285Y629965D01*
X259069Y628146D01*
X258642Y626000D01*
X259069Y623854D01*
X259426Y623319D01*
X258663Y622176D01*
X257750Y622358D01*
X255604Y621931D01*
X253785Y620715D01*
X252569Y618896D01*
X252142Y616750D01*
X252520Y614849D01*
X252424Y614405D01*
X251771Y613512D01*
X250104Y613181D01*
X248285Y611965D01*
X247069Y610146D01*
X246642Y608000D01*
X247069Y605854D01*
X248285Y604035D01*
X250104Y602819D01*
X252250Y602392D01*
X254396Y602819D01*
X256215Y604035D01*
X257431Y605854D01*
X257858Y608000D01*
X257479Y609901D01*
X257576Y610345D01*
X258229Y611237D01*
X259896Y611569D01*
X261715Y612785D01*
X262931Y614604D01*
X263358Y616750D01*
X262931Y618896D01*
X262574Y619431D01*
X263337Y620574D01*
X264250Y620392D01*
X266396Y620819D01*
X268215Y622035D01*
X269431Y623854D01*
X269858Y626000D01*
X269683Y626877D01*
X270581Y627775D01*
X271250Y627642D01*
X273396Y628069D01*
X275215Y629285D01*
X276431Y631104D01*
X276858Y633250D01*
X276431Y635396D01*
X275215Y637215D01*
X273396Y638431D01*
X271250Y638858D01*
D02*
G37*
G36*
X201230Y633429D02*
X200793Y633372D01*
X199202Y632713D01*
X197836Y631664D01*
X197145Y630764D01*
X196919Y630675D01*
X195831D01*
X195606Y630764D01*
X194914Y631664D01*
X193548Y632713D01*
X191957Y633372D01*
X191520Y633429D01*
Y627000D01*
X190250D01*
Y625730D01*
X183821D01*
X183878Y625293D01*
X184537Y623702D01*
X185586Y622336D01*
X185957Y622050D01*
Y620450D01*
X185586Y620164D01*
X184537Y618798D01*
X183878Y617207D01*
X183821Y616770D01*
X190250D01*
Y615500D01*
X191520D01*
Y609071D01*
X191957Y609128D01*
X193548Y609787D01*
X194914Y610836D01*
X195606Y611736D01*
X195831Y611825D01*
X196919D01*
X197145Y611736D01*
X197836Y610836D01*
X199202Y609787D01*
X200793Y609128D01*
X201230Y609071D01*
Y615500D01*
X202500D01*
Y616770D01*
X208929D01*
X208872Y617207D01*
X208213Y618798D01*
X207164Y620164D01*
X206793Y620450D01*
Y622050D01*
X207164Y622336D01*
X208213Y623702D01*
X208872Y625293D01*
X208929Y625730D01*
X202500D01*
Y627000D01*
X201230D01*
Y633429D01*
D02*
G37*
G36*
X160250Y641858D02*
X158104Y641431D01*
X156285Y640215D01*
X155069Y638396D01*
X154642Y636250D01*
X155069Y634104D01*
X156285Y632285D01*
X158104Y631069D01*
X160250Y630642D01*
X162396Y631069D01*
X164215Y632285D01*
X165431Y634104D01*
X165858Y636250D01*
X165431Y638396D01*
X164215Y640215D01*
X162396Y641431D01*
X160250Y641858D01*
D02*
G37*
G36*
X203770Y633429D02*
Y628270D01*
X208929D01*
X208872Y628707D01*
X208213Y630298D01*
X207164Y631664D01*
X205798Y632713D01*
X204207Y633372D01*
X203770Y633429D01*
D02*
G37*
G36*
X188980D02*
X188543Y633372D01*
X186952Y632713D01*
X185586Y631664D01*
X184537Y630298D01*
X183878Y628707D01*
X183821Y628270D01*
X188980D01*
Y633429D01*
D02*
G37*
G36*
X144750Y635858D02*
X142604Y635431D01*
X140785Y634215D01*
X139569Y632396D01*
X139142Y630250D01*
X139569Y628104D01*
X140785Y626285D01*
X142604Y625069D01*
X144750Y624642D01*
X146896Y625069D01*
X148715Y626285D01*
X149931Y628104D01*
X150358Y630250D01*
X149931Y632396D01*
X148715Y634215D01*
X146896Y635431D01*
X144750Y635858D01*
D02*
G37*
G36*
X208929Y614230D02*
X203770D01*
Y609071D01*
X204207Y609128D01*
X205798Y609787D01*
X207164Y610836D01*
X208213Y612202D01*
X208872Y613793D01*
X208929Y614230D01*
D02*
G37*
G36*
X188980D02*
X183821D01*
X183878Y613793D01*
X184537Y612202D01*
X185586Y610836D01*
X186952Y609787D01*
X188543Y609128D01*
X188980Y609071D01*
Y614230D01*
D02*
G37*
G36*
X620750Y618108D02*
X618604Y617681D01*
X616785Y616465D01*
X615569Y614646D01*
X615142Y612500D01*
X615569Y610354D01*
X616785Y608535D01*
X618604Y607319D01*
X620750Y606892D01*
X622896Y607319D01*
X624715Y608535D01*
X625931Y610354D01*
X626358Y612500D01*
X625931Y614646D01*
X624715Y616465D01*
X622896Y617681D01*
X620750Y618108D01*
D02*
G37*
G36*
X492000Y608858D02*
X489854Y608431D01*
X488035Y607215D01*
X486819Y605396D01*
X486392Y603250D01*
X486819Y601104D01*
X488035Y599285D01*
X489854Y598069D01*
X492000Y597642D01*
X494146Y598069D01*
X495965Y599285D01*
X497181Y601104D01*
X497608Y603250D01*
X497181Y605396D01*
X495965Y607215D01*
X494146Y608431D01*
X492000Y608858D01*
D02*
G37*
G36*
X432750Y605358D02*
X430604Y604931D01*
X428785Y603715D01*
X427569Y601896D01*
X427142Y599750D01*
X427569Y597604D01*
X428785Y595785D01*
X430604Y594569D01*
X432750Y594142D01*
X434896Y594569D01*
X436715Y595785D01*
X437931Y597604D01*
X438358Y599750D01*
X437931Y601896D01*
X436715Y603715D01*
X434896Y604931D01*
X432750Y605358D01*
D02*
G37*
G36*
X396000Y603108D02*
X393854Y602681D01*
X392035Y601465D01*
X391613Y600834D01*
X377750D01*
X376474Y600580D01*
X375392Y599857D01*
X156119Y380584D01*
X100887D01*
X100465Y381215D01*
X98646Y382431D01*
X96500Y382858D01*
X94354Y382431D01*
X92535Y381215D01*
X91319Y379396D01*
X90892Y377250D01*
X91319Y375104D01*
X92535Y373285D01*
X94354Y372069D01*
X96500Y371642D01*
X98646Y372069D01*
X100465Y373285D01*
X100887Y373916D01*
X156405D01*
X156931Y372646D01*
X153619Y369334D01*
X88887D01*
X88465Y369965D01*
X86646Y371181D01*
X84500Y371608D01*
X82354Y371181D01*
X80535Y369965D01*
X79319Y368146D01*
X78892Y366000D01*
X79319Y363854D01*
X80535Y362035D01*
X82354Y360819D01*
X84500Y360392D01*
X86646Y360819D01*
X88465Y362035D01*
X88887Y362666D01*
X155000D01*
X156276Y362920D01*
X157358Y363643D01*
X377836Y584121D01*
X378463Y584028D01*
X378785Y582715D01*
X377569Y580896D01*
X377142Y578750D01*
X377290Y578005D01*
X156119Y356834D01*
X114637D01*
X114215Y357465D01*
X112396Y358681D01*
X110250Y359108D01*
X108104Y358681D01*
X106285Y357465D01*
X105069Y355646D01*
X104642Y353500D01*
X105069Y351354D01*
X106285Y349535D01*
X108104Y348319D01*
X110250Y347892D01*
X112396Y348319D01*
X114215Y349535D01*
X114637Y350166D01*
X157500D01*
X158776Y350420D01*
X159858Y351143D01*
X382006Y573290D01*
X382750Y573142D01*
X384896Y573569D01*
X386715Y574785D01*
X387931Y576604D01*
X388358Y578750D01*
X387931Y580896D01*
X387766Y581143D01*
X388530Y582285D01*
X389250Y582142D01*
X391396Y582569D01*
X393215Y583785D01*
X394431Y585604D01*
X394858Y587750D01*
X394431Y589896D01*
X393650Y591065D01*
X394414Y592208D01*
X396000Y591892D01*
X398146Y592319D01*
X399965Y593535D01*
X401181Y595354D01*
X401608Y597500D01*
X401181Y599646D01*
X399965Y601465D01*
X398146Y602681D01*
X396000Y603108D01*
D02*
G37*
G36*
X188250Y593358D02*
X186104Y592931D01*
X184285Y591715D01*
X183430Y590436D01*
X181966Y590347D01*
X181961Y590349D01*
X181215Y591465D01*
X179396Y592681D01*
X177250Y593108D01*
X175104Y592681D01*
X173285Y591465D01*
X172069Y589646D01*
X171642Y587500D01*
X172069Y585354D01*
X173285Y583535D01*
X175104Y582319D01*
X177250Y581892D01*
X179396Y582319D01*
X181215Y583535D01*
X182070Y584814D01*
X183534Y584903D01*
X183539Y584901D01*
X184285Y583785D01*
X186104Y582569D01*
X188250Y582142D01*
X190396Y582569D01*
X192215Y583785D01*
X193431Y585604D01*
X193858Y587750D01*
X193431Y589896D01*
X192215Y591715D01*
X190396Y592931D01*
X188250Y593358D01*
D02*
G37*
G36*
X226750Y599358D02*
X224604Y598931D01*
X222785Y597715D01*
X221569Y595896D01*
X221142Y593750D01*
X221569Y591604D01*
X222785Y589785D01*
X224604Y588569D01*
X226750Y588142D01*
X228896Y588569D01*
X230715Y589785D01*
X231931Y591604D01*
X232358Y593750D01*
X231931Y595896D01*
X230715Y597715D01*
X228896Y598931D01*
X226750Y599358D01*
D02*
G37*
G36*
X247250Y596858D02*
X245104Y596431D01*
X243285Y595215D01*
X242069Y593396D01*
X241642Y591250D01*
X242069Y589104D01*
X243285Y587285D01*
X245104Y586069D01*
X247250Y585642D01*
X249396Y586069D01*
X251215Y587285D01*
X252431Y589104D01*
X252858Y591250D01*
X252431Y593396D01*
X251215Y595215D01*
X249396Y596431D01*
X247250Y596858D01*
D02*
G37*
G36*
X448500Y600358D02*
X446354Y599931D01*
X444535Y598715D01*
X443319Y596896D01*
X442892Y594750D01*
X443319Y592604D01*
X444535Y590785D01*
X445526Y590123D01*
X445579Y589928D01*
X445439Y588653D01*
X444035Y587715D01*
X442819Y585896D01*
X442392Y583750D01*
X442819Y581604D01*
X444035Y579785D01*
X445854Y578569D01*
X448000Y578142D01*
X450146Y578569D01*
X451965Y579785D01*
X453181Y581604D01*
X453608Y583750D01*
X453181Y585896D01*
X451965Y587715D01*
X450974Y588377D01*
X450921Y588572D01*
X451061Y589847D01*
X452465Y590785D01*
X453681Y592604D01*
X454108Y594750D01*
X453681Y596896D01*
X452465Y598715D01*
X450646Y599931D01*
X448500Y600358D01*
D02*
G37*
G36*
X313500Y570358D02*
X311354Y569931D01*
X309535Y568715D01*
X308319Y566896D01*
X307892Y564750D01*
X308319Y562604D01*
X309535Y560785D01*
X311354Y559569D01*
X313500Y559142D01*
X315646Y559569D01*
X317465Y560785D01*
X318681Y562604D01*
X319108Y564750D01*
X318681Y566896D01*
X317465Y568715D01*
X315646Y569931D01*
X313500Y570358D01*
D02*
G37*
G36*
X462750Y569858D02*
X460604Y569431D01*
X458785Y568215D01*
X457569Y566396D01*
X457142Y564250D01*
X457569Y562104D01*
X458785Y560285D01*
X460604Y559069D01*
X462750Y558642D01*
X464896Y559069D01*
X466715Y560285D01*
X467931Y562104D01*
X468358Y564250D01*
X467931Y566396D01*
X466715Y568215D01*
X464896Y569431D01*
X462750Y569858D01*
D02*
G37*
G36*
X283500D02*
X281354Y569431D01*
X279535Y568215D01*
X278319Y566396D01*
X277892Y564250D01*
X278319Y562104D01*
X279535Y560285D01*
X281354Y559069D01*
X283500Y558642D01*
X285646Y559069D01*
X287465Y560285D01*
X288681Y562104D01*
X289108Y564250D01*
X288681Y566396D01*
X287465Y568215D01*
X285646Y569431D01*
X283500Y569858D01*
D02*
G37*
G36*
X531527Y568856D02*
X529381Y568429D01*
X527562Y567214D01*
X526346Y565395D01*
X525919Y563249D01*
X526346Y561103D01*
X527562Y559283D01*
X529381Y558068D01*
X531527Y557641D01*
X533673Y558068D01*
X535492Y559283D01*
X536708Y561103D01*
X537135Y563249D01*
X536708Y565395D01*
X535492Y567214D01*
X533673Y568429D01*
X531527Y568856D01*
D02*
G37*
G36*
X751270Y559955D02*
Y551770D01*
X759455D01*
X759294Y552990D01*
X758333Y555311D01*
X756804Y557304D01*
X754811Y558833D01*
X752490Y559795D01*
X751270Y559955D01*
D02*
G37*
G36*
X748730D02*
X747510Y559795D01*
X745189Y558833D01*
X743196Y557304D01*
X741667Y555311D01*
X740706Y552990D01*
X740545Y551770D01*
X748730D01*
Y559955D01*
D02*
G37*
G36*
X530750Y555358D02*
X528604Y554931D01*
X526785Y553715D01*
X525569Y551896D01*
X525142Y549750D01*
X525569Y547604D01*
X526785Y545785D01*
X528604Y544569D01*
X530750Y544142D01*
X532896Y544569D01*
X534715Y545785D01*
X535931Y547604D01*
X536358Y549750D01*
X535931Y551896D01*
X534715Y553715D01*
X532896Y554931D01*
X530750Y555358D01*
D02*
G37*
G36*
X226270Y549799D02*
Y542270D01*
X233799D01*
X233661Y543321D01*
X232765Y545483D01*
X231340Y547340D01*
X229483Y548765D01*
X227321Y549661D01*
X226270Y549799D01*
D02*
G37*
G36*
X223730D02*
X222679Y549661D01*
X220517Y548765D01*
X218660Y547340D01*
X217235Y545483D01*
X216339Y543321D01*
X216201Y542270D01*
X223730D01*
Y549799D01*
D02*
G37*
G36*
X709000Y559500D02*
X691000D01*
Y541500D01*
X709000D01*
Y559500D01*
D02*
G37*
G36*
X759455Y549230D02*
X751270D01*
Y541045D01*
X752490Y541206D01*
X754811Y542167D01*
X756804Y543696D01*
X758333Y545689D01*
X759294Y548010D01*
X759455Y549230D01*
D02*
G37*
G36*
X748730D02*
X740545D01*
X740706Y548010D01*
X741667Y545689D01*
X743196Y543696D01*
X745189Y542167D01*
X747510Y541206D01*
X748730Y541045D01*
Y549230D01*
D02*
G37*
G36*
X419750Y550358D02*
X417604Y549931D01*
X415785Y548715D01*
X414569Y546896D01*
X414142Y544750D01*
X414569Y542604D01*
X415785Y540785D01*
X417604Y539569D01*
X419750Y539142D01*
X421896Y539569D01*
X423715Y540785D01*
X424931Y542604D01*
X425358Y544750D01*
X424931Y546896D01*
X423715Y548715D01*
X421896Y549931D01*
X419750Y550358D01*
D02*
G37*
G36*
X233799Y539730D02*
X226270D01*
Y532201D01*
X227321Y532339D01*
X229483Y533235D01*
X231340Y534660D01*
X232765Y536517D01*
X233661Y538679D01*
X233799Y539730D01*
D02*
G37*
G36*
X223730D02*
X216201D01*
X216339Y538679D01*
X217235Y536517D01*
X218660Y534660D01*
X220517Y533235D01*
X222679Y532339D01*
X223730Y532201D01*
Y539730D01*
D02*
G37*
G36*
X441750Y542108D02*
X439604Y541681D01*
X437785Y540465D01*
X436569Y538646D01*
X436142Y536500D01*
X436569Y534354D01*
X437785Y532535D01*
X439604Y531319D01*
X441750Y530892D01*
X443896Y531319D01*
X445715Y532535D01*
X446931Y534354D01*
X447358Y536500D01*
X446931Y538646D01*
X445715Y540465D01*
X443896Y541681D01*
X441750Y542108D01*
D02*
G37*
G36*
X419250Y530358D02*
X417104Y529931D01*
X415285Y528715D01*
X414069Y526896D01*
X413642Y524750D01*
X414069Y522604D01*
X415285Y520785D01*
X417104Y519569D01*
X419250Y519142D01*
X421396Y519569D01*
X423215Y520785D01*
X424431Y522604D01*
X424858Y524750D01*
X424431Y526896D01*
X423215Y528715D01*
X421396Y529931D01*
X419250Y530358D01*
D02*
G37*
G36*
X434000Y529108D02*
X431854Y528681D01*
X430035Y527465D01*
X428819Y525646D01*
X428392Y523500D01*
X428819Y521354D01*
X430035Y519535D01*
X431854Y518319D01*
X434000Y517892D01*
X436146Y518319D01*
X437965Y519535D01*
X439181Y521354D01*
X439608Y523500D01*
X439181Y525646D01*
X437965Y527465D01*
X436146Y528681D01*
X434000Y529108D01*
D02*
G37*
G36*
X194480Y527588D02*
X192334Y527161D01*
X190515Y525945D01*
X189299Y524126D01*
X188872Y521980D01*
X189299Y519834D01*
X190515Y518015D01*
X192334Y516799D01*
X194480Y516372D01*
X196626Y516799D01*
X198445Y518015D01*
X199661Y519834D01*
X200088Y521980D01*
X199661Y524126D01*
X198445Y525945D01*
X196626Y527161D01*
X194480Y527588D01*
D02*
G37*
G36*
X180000Y526108D02*
X177854Y525681D01*
X176035Y524465D01*
X174819Y522646D01*
X174392Y520500D01*
X174819Y518354D01*
X176035Y516535D01*
X177854Y515319D01*
X180000Y514892D01*
X182146Y515319D01*
X183965Y516535D01*
X185181Y518354D01*
X185608Y520500D01*
X185181Y522646D01*
X183965Y524465D01*
X182146Y525681D01*
X180000Y526108D01*
D02*
G37*
G36*
X564500Y524358D02*
X562354Y523931D01*
X560535Y522715D01*
X559319Y520896D01*
X558892Y518750D01*
X559319Y516604D01*
X560535Y514785D01*
X562354Y513569D01*
X564500Y513142D01*
X566646Y513569D01*
X568465Y514785D01*
X569681Y516604D01*
X570108Y518750D01*
X569681Y520896D01*
X568465Y522715D01*
X566646Y523931D01*
X564500Y524358D01*
D02*
G37*
G36*
X577000Y524108D02*
X574854Y523681D01*
X573035Y522465D01*
X571819Y520646D01*
X571392Y518500D01*
X571819Y516354D01*
X573035Y514535D01*
X574854Y513319D01*
X577000Y512892D01*
X579146Y513319D01*
X580965Y514535D01*
X582181Y516354D01*
X582608Y518500D01*
X582181Y520646D01*
X580965Y522465D01*
X579146Y523681D01*
X577000Y524108D01*
D02*
G37*
G36*
X41250Y523982D02*
X38770Y523656D01*
X36459Y522698D01*
X34475Y521175D01*
X32952Y519191D01*
X31995Y516880D01*
X31668Y514400D01*
X31995Y511920D01*
X32952Y509609D01*
X34475Y507625D01*
X36459Y506102D01*
X38770Y505145D01*
X41250Y504818D01*
X43730Y505145D01*
X46041Y506102D01*
X48025Y507625D01*
X49548Y509609D01*
X50505Y511920D01*
X50832Y514400D01*
X50505Y516880D01*
X49548Y519191D01*
X48025Y521175D01*
X46041Y522698D01*
X43730Y523656D01*
X41250Y523982D01*
D02*
G37*
G36*
X357250Y508608D02*
X355104Y508181D01*
X353285Y506965D01*
X352069Y505146D01*
X351642Y503000D01*
X352069Y500854D01*
X353285Y499035D01*
X355104Y497819D01*
X357250Y497392D01*
X359396Y497819D01*
X361215Y499035D01*
X362431Y500854D01*
X362858Y503000D01*
X362431Y505146D01*
X361215Y506965D01*
X359396Y508181D01*
X357250Y508608D01*
D02*
G37*
G36*
X512500Y507858D02*
X510354Y507431D01*
X508535Y506215D01*
X507319Y504396D01*
X506892Y502250D01*
X507319Y500104D01*
X508535Y498285D01*
X510354Y497069D01*
X512500Y496642D01*
X514646Y497069D01*
X516465Y498285D01*
X517681Y500104D01*
X518108Y502250D01*
X517681Y504396D01*
X516465Y506215D01*
X514646Y507431D01*
X512500Y507858D01*
D02*
G37*
G36*
X492750Y507608D02*
X490604Y507181D01*
X488785Y505965D01*
X487569Y504146D01*
X487142Y502000D01*
X487569Y499854D01*
X488785Y498035D01*
X490604Y496819D01*
X492750Y496392D01*
X494896Y496819D01*
X496715Y498035D01*
X497931Y499854D01*
X498358Y502000D01*
X497931Y504146D01*
X496715Y505965D01*
X494896Y507181D01*
X492750Y507608D01*
D02*
G37*
G36*
X571000Y505358D02*
X568854Y504931D01*
X567035Y503715D01*
X565819Y501896D01*
X565392Y499750D01*
X565819Y497604D01*
X567035Y495785D01*
X568854Y494569D01*
X571000Y494142D01*
X573146Y494569D01*
X574965Y495785D01*
X576181Y497604D01*
X576608Y499750D01*
X576181Y501896D01*
X574965Y503715D01*
X573146Y504931D01*
X571000Y505358D01*
D02*
G37*
G36*
X42520Y498959D02*
Y490270D01*
X51209D01*
X51032Y491621D01*
X50020Y494063D01*
X48411Y496161D01*
X46313Y497770D01*
X43871Y498782D01*
X42520Y498959D01*
D02*
G37*
G36*
X39980D02*
X38629Y498782D01*
X36187Y497770D01*
X34089Y496161D01*
X32480Y494063D01*
X31468Y491621D01*
X31291Y490270D01*
X39980D01*
Y498959D01*
D02*
G37*
G36*
X51209Y487730D02*
X42520D01*
Y479041D01*
X43871Y479218D01*
X46313Y480230D01*
X48411Y481839D01*
X50020Y483937D01*
X51032Y486379D01*
X51209Y487730D01*
D02*
G37*
G36*
X39980D02*
X31291D01*
X31468Y486379D01*
X32480Y483937D01*
X34089Y481839D01*
X36187Y480230D01*
X38629Y479218D01*
X39980Y479041D01*
Y487730D01*
D02*
G37*
G36*
X560000Y489608D02*
X557854Y489181D01*
X556035Y487965D01*
X554819Y486146D01*
X554392Y484000D01*
X554819Y481854D01*
X556035Y480035D01*
X557854Y478819D01*
X560000Y478392D01*
X562146Y478819D01*
X563965Y480035D01*
X565181Y481854D01*
X565608Y484000D01*
X565181Y486146D01*
X563965Y487965D01*
X562146Y489181D01*
X560000Y489608D01*
D02*
G37*
G36*
X329230Y495358D02*
X327084Y494931D01*
X325265Y493715D01*
X324049Y491896D01*
X323622Y489750D01*
X324049Y487604D01*
X325265Y485785D01*
X325829Y485408D01*
X325896Y485107D01*
X325742Y483939D01*
X324285Y482965D01*
X323069Y481146D01*
X322642Y479000D01*
X323069Y476854D01*
X324285Y475035D01*
X326104Y473819D01*
X328250Y473392D01*
X330396Y473819D01*
X332215Y475035D01*
X333431Y476854D01*
X333858Y479000D01*
X333431Y481146D01*
X332215Y482965D01*
X331651Y483342D01*
X331584Y483643D01*
X331738Y484811D01*
X333195Y485785D01*
X334411Y487604D01*
X334838Y489750D01*
X334411Y491896D01*
X333195Y493715D01*
X331376Y494931D01*
X329230Y495358D01*
D02*
G37*
G36*
X291500Y474858D02*
X289354Y474431D01*
X287535Y473215D01*
X286319Y471396D01*
X285892Y469250D01*
X286319Y467104D01*
X287535Y465285D01*
X289354Y464069D01*
X291500Y463642D01*
X293646Y464069D01*
X295465Y465285D01*
X296681Y467104D01*
X297108Y469250D01*
X296681Y471396D01*
X295465Y473215D01*
X293646Y474431D01*
X291500Y474858D01*
D02*
G37*
G36*
X362750Y469108D02*
X360604Y468681D01*
X358785Y467465D01*
X357569Y465646D01*
X357142Y463500D01*
X357569Y461354D01*
X358785Y459535D01*
X360604Y458319D01*
X362750Y457892D01*
X364896Y458319D01*
X366715Y459535D01*
X367931Y461354D01*
X368358Y463500D01*
X367931Y465646D01*
X366715Y467465D01*
X364896Y468681D01*
X362750Y469108D01*
D02*
G37*
G36*
X448750Y458608D02*
X446604Y458181D01*
X444785Y456965D01*
X444451Y456465D01*
X443215D01*
X441396Y457681D01*
X439250Y458108D01*
X437104Y457681D01*
X435285Y456465D01*
X434801Y455742D01*
X433531D01*
X433215Y456215D01*
X431396Y457431D01*
X429250Y457858D01*
X427104Y457431D01*
X425285Y456215D01*
X424069Y454396D01*
X423642Y452250D01*
X424069Y450104D01*
X425285Y448285D01*
X427104Y447069D01*
X429250Y446642D01*
X431396Y447069D01*
X433215Y448285D01*
X433699Y449008D01*
X434968D01*
X435285Y448535D01*
X437104Y447319D01*
X439250Y446892D01*
X441396Y447319D01*
X443215Y448535D01*
X443549Y449035D01*
X444785D01*
X446604Y447819D01*
X448750Y447392D01*
X450896Y447819D01*
X452715Y449035D01*
X453931Y450854D01*
X454358Y453000D01*
X453931Y455146D01*
X452715Y456965D01*
X450896Y458181D01*
X448750Y458608D01*
D02*
G37*
G36*
X41250Y473182D02*
X38770Y472855D01*
X36459Y471898D01*
X34475Y470376D01*
X32952Y468391D01*
X31995Y466080D01*
X31668Y463600D01*
X31995Y461120D01*
X32952Y458809D01*
X34475Y456825D01*
X36459Y455302D01*
X38770Y454345D01*
X41250Y454018D01*
X43730Y454345D01*
X46041Y455302D01*
X48025Y456825D01*
X49548Y458809D01*
X50505Y461120D01*
X50832Y463600D01*
X50505Y466080D01*
X49548Y468391D01*
X48025Y470376D01*
X46041Y471898D01*
X43730Y472855D01*
X41250Y473182D01*
D02*
G37*
G36*
X683515Y462655D02*
X672720D01*
Y451860D01*
X683515D01*
Y462655D01*
D02*
G37*
G36*
X670180D02*
X659385D01*
Y451860D01*
X670180D01*
Y462655D01*
D02*
G37*
G36*
X368750Y454608D02*
X366604Y454181D01*
X364785Y452965D01*
X363569Y451146D01*
X363142Y449000D01*
X363569Y446854D01*
X364785Y445035D01*
X366604Y443819D01*
X368750Y443392D01*
X370896Y443819D01*
X372715Y445035D01*
X373931Y446854D01*
X374358Y449000D01*
X373931Y451146D01*
X372715Y452965D01*
X370896Y454181D01*
X368750Y454608D01*
D02*
G37*
G36*
X722250Y462214D02*
X719241Y461818D01*
X716438Y460657D01*
X714030Y458810D01*
X712183Y456402D01*
X711022Y453599D01*
X710626Y450590D01*
X711022Y447581D01*
X712183Y444778D01*
X714030Y442370D01*
X716438Y440523D01*
X719241Y439362D01*
X722250Y438965D01*
X725259Y439362D01*
X728062Y440523D01*
X730470Y442370D01*
X732317Y444778D01*
X733478Y447581D01*
X733875Y450590D01*
X733478Y453599D01*
X732317Y456402D01*
X730470Y458810D01*
X728062Y460657D01*
X725259Y461818D01*
X722250Y462214D01*
D02*
G37*
G36*
X683515Y449320D02*
X672720D01*
Y438525D01*
X683515D01*
Y449320D01*
D02*
G37*
G36*
X670180D02*
X659385D01*
Y438525D01*
X670180D01*
Y449320D01*
D02*
G37*
G36*
X50750Y447700D02*
X31750D01*
Y428700D01*
X50750D01*
Y447700D01*
D02*
G37*
G36*
X377000Y439358D02*
X374854Y438931D01*
X373035Y437715D01*
X371819Y435896D01*
X371392Y433750D01*
X371819Y431604D01*
X372577Y430470D01*
X372601Y429329D01*
X372205Y428914D01*
X370785Y427965D01*
X369569Y426146D01*
X369142Y424000D01*
X369569Y421854D01*
X370785Y420035D01*
X372604Y418819D01*
X374750Y418392D01*
X376896Y418819D01*
X378715Y420035D01*
X379931Y421854D01*
X380358Y424000D01*
X379931Y426146D01*
X379173Y427280D01*
X379149Y428420D01*
X379545Y428836D01*
X380965Y429785D01*
X382181Y431604D01*
X382608Y433750D01*
X382181Y435896D01*
X380965Y437715D01*
X379146Y438931D01*
X377000Y439358D01*
D02*
G37*
G36*
X570500Y422108D02*
X568354Y421681D01*
X566535Y420465D01*
X565319Y418646D01*
X564892Y416500D01*
X565319Y414354D01*
X566535Y412535D01*
X568354Y411319D01*
X570500Y410892D01*
X572646Y411319D01*
X574465Y412535D01*
X575681Y414354D01*
X576108Y416500D01*
X575681Y418646D01*
X574465Y420465D01*
X572646Y421681D01*
X570500Y422108D01*
D02*
G37*
G36*
X792750Y410341D02*
X788121Y409977D01*
X783606Y408893D01*
X779316Y407116D01*
X775357Y404690D01*
X771826Y401674D01*
X768810Y398143D01*
X766384Y394184D01*
X764607Y389894D01*
X763523Y385379D01*
X763159Y380750D01*
X763523Y376121D01*
X764607Y371606D01*
X766384Y367316D01*
X768810Y363357D01*
X771826Y359826D01*
X775357Y356810D01*
X779316Y354384D01*
X783606Y352607D01*
X788121Y351523D01*
X792750Y351159D01*
X797379Y351523D01*
X801894Y352607D01*
X806184Y354384D01*
X810143Y356810D01*
X813674Y359826D01*
X816690Y363357D01*
X819116Y367316D01*
X820893Y371606D01*
X821977Y376121D01*
X822341Y380750D01*
X821977Y385379D01*
X820893Y389894D01*
X819116Y394184D01*
X816690Y398143D01*
X813674Y401674D01*
X810143Y404690D01*
X806184Y407116D01*
X801894Y408893D01*
X797379Y409977D01*
X792750Y410341D01*
D02*
G37*
G36*
X37000D02*
X32371Y409977D01*
X27856Y408893D01*
X23566Y407116D01*
X19607Y404690D01*
X16076Y401674D01*
X13060Y398143D01*
X10634Y394184D01*
X8857Y389894D01*
X7773Y385379D01*
X7409Y380750D01*
X7773Y376121D01*
X8857Y371606D01*
X10634Y367316D01*
X13060Y363357D01*
X16076Y359826D01*
X19607Y356810D01*
X23566Y354384D01*
X27856Y352607D01*
X32371Y351523D01*
X37000Y351159D01*
X41629Y351523D01*
X46144Y352607D01*
X50434Y354384D01*
X54393Y356810D01*
X57924Y359826D01*
X60940Y363357D01*
X63366Y367316D01*
X65143Y371606D01*
X66227Y376121D01*
X66591Y380750D01*
X66227Y385379D01*
X65143Y389894D01*
X63366Y394184D01*
X60940Y398143D01*
X57924Y401674D01*
X54393Y404690D01*
X50434Y407116D01*
X46144Y408893D01*
X41629Y409977D01*
X37000Y410341D01*
D02*
G37*
G36*
X650220Y346329D02*
Y337135D01*
X659414D01*
X659219Y338616D01*
X658157Y341180D01*
X656467Y343382D01*
X654266Y345072D01*
X651702Y346134D01*
X650220Y346329D01*
D02*
G37*
G36*
X647680D02*
X646199Y346134D01*
X643635Y345072D01*
X641433Y343382D01*
X639743Y341180D01*
X638681Y338616D01*
X638486Y337135D01*
X647680D01*
Y346329D01*
D02*
G37*
G36*
X227970D02*
Y337135D01*
X237164D01*
X236969Y338616D01*
X235907Y341180D01*
X234217Y343382D01*
X232015Y345072D01*
X229452Y346134D01*
X227970Y346329D01*
D02*
G37*
G36*
X225430D02*
X223948Y346134D01*
X221385Y345072D01*
X219183Y343382D01*
X217493Y341180D01*
X216431Y338616D01*
X216236Y337135D01*
X225430D01*
Y346329D01*
D02*
G37*
G36*
X659414Y334595D02*
X650220D01*
Y325401D01*
X651702Y325596D01*
X654266Y326658D01*
X656467Y328348D01*
X658157Y330550D01*
X659219Y333114D01*
X659414Y334595D01*
D02*
G37*
G36*
X647680D02*
X638486D01*
X638681Y333114D01*
X639743Y330550D01*
X641433Y328348D01*
X643635Y326658D01*
X646199Y325596D01*
X647680Y325401D01*
Y334595D01*
D02*
G37*
G36*
X237164D02*
X227970D01*
Y325401D01*
X229452Y325596D01*
X232015Y326658D01*
X234217Y328348D01*
X235907Y330550D01*
X236969Y333114D01*
X237164Y334595D01*
D02*
G37*
G36*
X225430D02*
X216236D01*
X216431Y333114D01*
X217493Y330550D01*
X219183Y328348D01*
X221385Y326658D01*
X223948Y325596D01*
X225430Y325401D01*
Y334595D01*
D02*
G37*
%LPD*%
G36*
X223644Y575196D02*
X225664Y572935D01*
X229216Y576487D01*
X229248Y576376D01*
X229318Y576235D01*
X229426Y576064D01*
X229571Y575865D01*
X229974Y575379D01*
X230859Y574430D01*
X231230Y574056D01*
X227694Y570520D01*
X227320Y570891D01*
X225686Y572324D01*
X225602Y572377D01*
X225457Y572307D01*
X225219Y572165D01*
X224959Y571987D01*
X224373Y571521D01*
X223701Y570909D01*
X223333Y570547D01*
X221145Y573493D01*
X221027Y573497D01*
X220501Y573500D01*
Y574361D01*
X220319Y574605D01*
X220501Y574793D01*
Y578500D01*
X221027Y578503D01*
X223196Y578645D01*
X223393Y578689D01*
X223542Y578739D01*
X223644Y578795D01*
Y575196D01*
D02*
G37*
G36*
X671739Y187292D02*
X671689Y187143D01*
X671645Y186946D01*
X671606Y186703D01*
X671547Y186074D01*
X671503Y184777D01*
X671500Y184251D01*
X666500D01*
X666497Y184777D01*
X666355Y186946D01*
X666311Y187143D01*
X666261Y187292D01*
X666205Y187394D01*
X671795D01*
X671739Y187292D01*
D02*
G37*
G36*
X252739D02*
X252689Y187143D01*
X252645Y186946D01*
X252606Y186703D01*
X252547Y186074D01*
X252503Y184777D01*
X252500Y184251D01*
X247500D01*
X247497Y184777D01*
X247355Y186946D01*
X247311Y187143D01*
X247261Y187292D01*
X247205Y187394D01*
X252795D01*
X252739Y187292D01*
D02*
G37*
G36*
X768356Y172838D02*
X769047Y172320D01*
X769815Y171841D01*
X770660Y171401D01*
X771582Y170999D01*
X772582Y170636D01*
X773658Y170311D01*
X776041Y169778D01*
X777349Y169570D01*
X768030Y160251D01*
X767822Y161559D01*
X767289Y163942D01*
X766964Y165018D01*
X766601Y166017D01*
X766199Y166940D01*
X765759Y167785D01*
X765280Y168553D01*
X764762Y169244D01*
X764206Y169858D01*
X767741Y173394D01*
X768356Y172838D01*
D02*
G37*
G36*
X742956D02*
X743647Y172320D01*
X744415Y171841D01*
X745260Y171401D01*
X746182Y170999D01*
X747182Y170636D01*
X748258Y170311D01*
X750641Y169778D01*
X751949Y169570D01*
X742630Y160251D01*
X742422Y161559D01*
X741889Y163942D01*
X741564Y165018D01*
X741201Y166017D01*
X740799Y166940D01*
X740359Y167785D01*
X739880Y168553D01*
X739362Y169244D01*
X738806Y169858D01*
X742342Y173394D01*
X742956Y172838D01*
D02*
G37*
G36*
X349356D02*
X350047Y172320D01*
X350815Y171841D01*
X351660Y171401D01*
X352583Y170999D01*
X353582Y170636D01*
X354658Y170311D01*
X357041Y169778D01*
X358349Y169570D01*
X349030Y160251D01*
X348822Y161559D01*
X348289Y163942D01*
X347964Y165018D01*
X347601Y166017D01*
X347200Y166940D01*
X346759Y167785D01*
X346280Y168553D01*
X345762Y169244D01*
X345206Y169858D01*
X348742Y173394D01*
X349356Y172838D01*
D02*
G37*
G36*
X323956D02*
X324647Y172320D01*
X325415Y171841D01*
X326260Y171401D01*
X327183Y170999D01*
X328182Y170636D01*
X329258Y170311D01*
X331641Y169778D01*
X332949Y169570D01*
X323630Y160251D01*
X323422Y161559D01*
X322889Y163942D01*
X322564Y165018D01*
X322201Y166017D01*
X321800Y166940D01*
X321359Y167785D01*
X320880Y168553D01*
X320362Y169244D01*
X319806Y169858D01*
X323342Y173394D01*
X323956Y172838D01*
D02*
G37*
G36*
X573237Y167212D02*
X575299Y165904D01*
X576289Y165372D01*
X577253Y164922D01*
X578189Y164554D01*
X579098Y164268D01*
X579980Y164064D01*
X580834Y163941D01*
X581662Y163900D01*
Y158900D01*
X580834Y158859D01*
X579980Y158736D01*
X579098Y158532D01*
X578189Y158246D01*
X577253Y157878D01*
X576289Y157428D01*
X575299Y156896D01*
X573237Y155588D01*
X572165Y154811D01*
Y167989D01*
X573237Y167212D01*
D02*
G37*
G36*
X161987D02*
X164049Y165904D01*
X165039Y165372D01*
X166003Y164922D01*
X166939Y164554D01*
X167848Y164268D01*
X168730Y164064D01*
X169584Y163941D01*
X170412Y163900D01*
Y158900D01*
X169584Y158859D01*
X168730Y158736D01*
X167848Y158532D01*
X166939Y158246D01*
X166003Y157878D01*
X165039Y157428D01*
X164049Y156896D01*
X161987Y155588D01*
X160915Y154811D01*
Y167989D01*
X161987Y167212D01*
D02*
G37*
G36*
X550031Y162747D02*
X550791Y160829D01*
X551226Y159925D01*
X552201Y158225D01*
X552743Y157430D01*
X553321Y156671D01*
X553935Y155949D01*
X554585Y155263D01*
X552085Y150691D01*
X551527Y151172D01*
X550866Y151601D01*
X550102Y151978D01*
X549236Y152302D01*
X548267Y152574D01*
X547195Y152794D01*
X546021Y152961D01*
X543364Y153139D01*
X541882Y153150D01*
X549705Y163761D01*
X550031Y162747D01*
D02*
G37*
G36*
X138781D02*
X139541Y160829D01*
X139976Y159925D01*
X140951Y158225D01*
X141493Y157430D01*
X142071Y156671D01*
X142685Y155949D01*
X143335Y155263D01*
X140835Y150691D01*
X140277Y151172D01*
X139616Y151601D01*
X138852Y151978D01*
X137986Y152302D01*
X137017Y152574D01*
X135945Y152794D01*
X134771Y152961D01*
X132114Y153139D01*
X130632Y153150D01*
X138455Y163761D01*
X138781Y162747D01*
D02*
G37*
G36*
X560536Y141812D02*
X562599Y140504D01*
X563589Y139972D01*
X564552Y139522D01*
X565489Y139154D01*
X566398Y138868D01*
X567280Y138664D01*
X568134Y138541D01*
X568962Y138500D01*
Y133500D01*
X568134Y133459D01*
X567280Y133336D01*
X566398Y133132D01*
X565489Y132846D01*
X564552Y132478D01*
X563589Y132028D01*
X562599Y131496D01*
X560536Y130188D01*
X559465Y129411D01*
Y142589D01*
X560536Y141812D01*
D02*
G37*
G36*
X149286D02*
X151349Y140504D01*
X152339Y139972D01*
X153302Y139522D01*
X154239Y139154D01*
X155148Y138868D01*
X156030Y138664D01*
X156884Y138541D01*
X157712Y138500D01*
Y133500D01*
X156884Y133459D01*
X156030Y133336D01*
X155148Y133132D01*
X154239Y132846D01*
X153302Y132478D01*
X152339Y132028D01*
X151349Y131496D01*
X149286Y130188D01*
X148215Y129411D01*
Y142589D01*
X149286Y141812D01*
D02*
G37*
G36*
X718453Y130087D02*
X717417Y129050D01*
X714963Y126235D01*
X714363Y125394D01*
X713872Y124603D01*
X713490Y123861D01*
X713218Y123168D01*
X713054Y122524D01*
X713000Y121929D01*
X708000Y122620D01*
X707974Y123552D01*
X707896Y124488D01*
X707767Y125428D01*
X707586Y126372D01*
X707070Y128274D01*
X706734Y129230D01*
X705907Y131157D01*
X705416Y132126D01*
X718453Y130087D01*
D02*
G37*
G36*
X299453D02*
X298417Y129050D01*
X295963Y126235D01*
X295363Y125394D01*
X294872Y124603D01*
X294490Y123861D01*
X294218Y123168D01*
X294054Y122524D01*
X294000Y121929D01*
X289000Y122620D01*
X288974Y123552D01*
X288896Y124488D01*
X288767Y125428D01*
X288586Y126372D01*
X288070Y128274D01*
X287734Y129230D01*
X286907Y131157D01*
X286416Y132126D01*
X299453Y130087D01*
D02*
G37*
G36*
X769312Y129964D02*
X768004Y127901D01*
X767472Y126911D01*
X767022Y125948D01*
X766654Y125011D01*
X766368Y124102D01*
X766164Y123220D01*
X766041Y122366D01*
X766000Y121538D01*
X761000D01*
X760959Y122366D01*
X760836Y123220D01*
X760632Y124102D01*
X760346Y125011D01*
X759978Y125948D01*
X759528Y126911D01*
X758996Y127901D01*
X757688Y129964D01*
X756911Y131035D01*
X770089D01*
X769312Y129964D01*
D02*
G37*
G36*
X350312D02*
X349004Y127901D01*
X348472Y126911D01*
X348022Y125948D01*
X347654Y125011D01*
X347368Y124102D01*
X347164Y123220D01*
X347041Y122366D01*
X347000Y121538D01*
X342000D01*
X341959Y122366D01*
X341837Y123220D01*
X341632Y124102D01*
X341346Y125011D01*
X340978Y125948D01*
X340528Y126911D01*
X339996Y127901D01*
X338688Y129964D01*
X337911Y131035D01*
X351089D01*
X350312Y129964D01*
D02*
G37*
G36*
X387144Y584955D02*
X386740Y585244D01*
X385938Y585733D01*
X385539Y585931D01*
X385143Y586099D01*
X384748Y586236D01*
X384355Y586343D01*
X383965Y586419D01*
X383576Y586465D01*
X383189Y586480D01*
Y589020D01*
X383576Y589035D01*
X383965Y589081D01*
X384355Y589157D01*
X384748Y589264D01*
X385143Y589401D01*
X385539Y589569D01*
X385938Y589767D01*
X386338Y589996D01*
X386740Y590256D01*
X387144Y590545D01*
Y584955D01*
D02*
G37*
D18*
X377750Y597500D02*
X396000D01*
X376750Y587750D02*
X389250D01*
X157500Y377250D02*
X377750Y597500D01*
X96500Y377250D02*
X157500D01*
X155000Y366000D02*
X376750Y587750D01*
X84500Y366000D02*
X155000D01*
X157500Y353500D02*
X382750Y578750D01*
X110250Y353500D02*
X157500D01*
D87*
X308409Y607867D02*
X317367D01*
X288896Y588354D02*
X308409Y607867D01*
X288354Y588354D02*
X288896D01*
X276000Y576000D02*
X288354Y588354D01*
X572950Y161400D02*
X609250D01*
X752100Y185500D02*
X776200Y161400D01*
X714800Y185500D02*
X752100D01*
X652600Y204750D02*
X695550D01*
X714800Y185500D01*
X609250Y161400D02*
X652600Y204750D01*
X678750Y197750D02*
X698000Y178500D01*
X541800Y161400D02*
X544912D01*
X557662Y148650D01*
X609400D01*
X658500Y197750D01*
X678750D01*
X733700Y178500D02*
X750800Y161400D01*
X698000Y178500D02*
X733700D01*
X669000Y121929D02*
Y189500D01*
X256959Y550000D02*
X257500D01*
X252256Y554703D02*
X256959Y550000D01*
X247047Y554703D02*
X252256D01*
X247047Y531203D02*
Y554703D01*
X105500Y756750D02*
X158000Y704250D01*
X186500D01*
Y676000D02*
Y679250D01*
Y672179D02*
Y676000D01*
X152000Y669250D02*
X183571D01*
X186500Y679250D02*
X213500Y706250D01*
X186500Y679250D02*
Y704250D01*
X183571Y669250D02*
X186500Y672179D01*
Y704250D02*
X199500Y717250D01*
X256250Y576000D02*
X276000D01*
X247047Y531203D02*
X269500Y508750D01*
X225750Y576000D02*
X247047Y554703D01*
X59700Y558250D02*
X124750D01*
X41250Y539800D02*
X59700Y558250D01*
X142500Y576000D02*
X225250D01*
X225750D01*
X201750Y552500D02*
X225250Y576000D01*
X187500Y552500D02*
X201750D01*
X150000Y393750D02*
Y515000D01*
X187500Y552500D01*
X500875Y391375D02*
X632125Y522625D01*
X483500Y374000D02*
X500875Y391375D01*
X361750Y392750D02*
X499500D01*
X500875Y391375D01*
X342000Y373000D02*
X361750Y392750D01*
X632125Y522625D02*
X658375D01*
X528000Y576750D02*
X563875Y612625D01*
X568375D01*
X105500Y756750D02*
Y788750D01*
X213500Y706250D02*
Y717250D01*
X317367Y607867D02*
X317750Y608250D01*
X124750Y558250D02*
X142500Y576000D01*
X562250Y136000D02*
X639250D01*
X665750Y109500D01*
X707571Y119000D02*
X710500Y121929D01*
Y133800D01*
X671929Y119000D02*
X707571D01*
X710500Y133800D02*
X712700Y136000D01*
X669000Y121929D02*
X671929Y119000D01*
X665750Y109500D02*
X755000D01*
X763500Y118000D01*
Y136000D01*
X133662Y161400D02*
X146412Y148650D01*
X130550Y161400D02*
X133662D01*
X155950D02*
X190250D01*
X146412Y148650D02*
X187400D01*
X190250Y161400D02*
X233351Y204500D01*
X187400Y148650D02*
X236250Y197500D01*
X276800Y204500D02*
X295800Y185500D01*
X233351Y204500D02*
X276800D01*
X250000Y121929D02*
Y189500D01*
X255500Y197500D02*
X275250Y177750D01*
X236250Y197500D02*
X255500D01*
X295800Y185500D02*
X333100D01*
X275250Y177750D02*
X315450D01*
X331800Y161400D01*
X333100Y185500D02*
X357200Y161400D01*
X252929Y119000D02*
X288571D01*
X250000Y121929D02*
X252929Y119000D01*
X291500Y121929D02*
Y133800D01*
X288571Y119000D02*
X291500Y121929D01*
Y133800D02*
X293700Y136000D01*
X344500Y118000D02*
Y136000D01*
X336000Y109500D02*
X344500Y118000D01*
X246750Y109500D02*
X336000D01*
X143250Y136000D02*
X220250D01*
X246750Y109500D01*
D89*
X270250Y590000D02*
Y590000D01*
X299000Y618750D02*
Y659500D01*
X270250Y590000D02*
X299000Y618750D01*
X256250Y576000D02*
X270250Y590000D01*
X260250Y676000D02*
X260250Y676000D01*
X245750Y661500D02*
X260250Y676000D01*
X186500Y676000D02*
X260250D01*
X276250Y660000D02*
X299500D01*
X260250Y676000D02*
X276250Y660000D01*
X299500D02*
X521000D01*
X299000Y659500D02*
X299500Y660000D01*
X225750Y576000D02*
X256250D01*
X204300Y353692D02*
X212358Y361750D01*
X364000D02*
X389885Y335865D01*
X212358Y361750D02*
X364000D01*
X658375Y522625D02*
X696850Y484150D01*
X568375Y612625D02*
X658375Y522625D01*
X521000Y660000D02*
X568375Y612625D01*
X696850Y450590D02*
Y484150D01*
X201300Y335865D02*
X204300Y338865D01*
Y353692D01*
X389885Y335865D02*
X623550D01*
D92*
X696850Y450590D02*
D03*
D93*
X671450D02*
D03*
D95*
X776200Y161400D02*
D03*
X763500Y136000D02*
D03*
X750800Y161400D02*
D03*
X712700Y136000D02*
D03*
X357200Y161400D02*
D03*
X344500Y136000D02*
D03*
X331800Y161400D02*
D03*
X293700Y136000D02*
D03*
X567200Y161400D02*
D03*
X554500Y136000D02*
D03*
X541800Y161400D02*
D03*
X155950D02*
D03*
X143250Y136000D02*
D03*
X130550Y161400D02*
D03*
D98*
X226700Y335865D02*
D03*
X648950D02*
D03*
D99*
X201300D02*
D03*
X623550D02*
D03*
D100*
X649750Y814000D02*
D03*
X750000Y550500D02*
D03*
D103*
X368250Y879000D02*
D03*
D107*
X297600Y802750D02*
D03*
X142700D02*
D03*
D109*
X41250Y539800D02*
D03*
Y489000D02*
D03*
D112*
X288896Y588354D02*
D03*
X669000Y189500D02*
D03*
X150000Y393750D02*
D03*
X342000Y373000D02*
D03*
X528000Y576750D02*
D03*
X105500Y788750D02*
D03*
X269500Y508750D02*
D03*
X124750Y558250D02*
D03*
X257500Y550000D02*
D03*
X317750Y608250D02*
D03*
X152000Y669250D02*
D03*
X245750Y661500D02*
D03*
X250000Y189500D02*
D03*
X483500Y374000D02*
D03*
X396000Y597500D02*
D03*
X389250Y587750D02*
D03*
X96500Y377250D02*
D03*
X84500Y366000D02*
D03*
X382750Y578750D02*
D03*
X110250Y353500D02*
D03*
X213500Y717250D02*
D03*
X199500D02*
D03*
X225750Y576000D02*
D03*
D113*
X190250Y627000D02*
D03*
X202500D02*
D03*
Y615500D02*
D03*
X190250D02*
D03*
D114*
X225000Y541000D02*
D03*
M02*
