G04*
G04 #@! TF.GenerationSoftware,Altium Limited,Altium Designer,20.0.13 (296)*
G04*
G04 Layer_Color=8388736*
%FSLAX44Y44*%
%MOMM*%
G71*
G01*
G75*
%ADD42R,1.0032X1.2032*%
%ADD43R,2.3200X0.7200*%
%ADD44R,1.7332X2.9232*%
%ADD45R,4.0132X2.9972*%
%ADD46R,1.2032X1.0032*%
%ADD47R,0.8200X1.0200*%
%ADD48R,1.0200X0.8200*%
%ADD49R,0.8032X2.2632*%
%ADD50R,1.2200X4.9200*%
%ADD51R,2.5200X1.6200*%
G04:AMPARAMS|DCode=52|XSize=0.4832mm|YSize=0.8932mm|CornerRadius=0.1716mm|HoleSize=0mm|Usage=FLASHONLY|Rotation=0.000|XOffset=0mm|YOffset=0mm|HoleType=Round|Shape=RoundedRectangle|*
%AMROUNDEDRECTD52*
21,1,0.4832,0.5500,0,0,0.0*
21,1,0.1400,0.8932,0,0,0.0*
1,1,0.3432,0.0700,-0.2750*
1,1,0.3432,-0.0700,-0.2750*
1,1,0.3432,-0.0700,0.2750*
1,1,0.3432,0.0700,0.2750*
%
%ADD52ROUNDEDRECTD52*%
G04:AMPARAMS|DCode=53|XSize=0.4832mm|YSize=0.8932mm|CornerRadius=0.1716mm|HoleSize=0mm|Usage=FLASHONLY|Rotation=90.000|XOffset=0mm|YOffset=0mm|HoleType=Round|Shape=RoundedRectangle|*
%AMROUNDEDRECTD53*
21,1,0.4832,0.5500,0,0,90.0*
21,1,0.1400,0.8932,0,0,90.0*
1,1,0.3432,0.2750,0.0700*
1,1,0.3432,0.2750,-0.0700*
1,1,0.3432,-0.2750,-0.0700*
1,1,0.3432,-0.2750,0.0700*
%
%ADD53ROUNDEDRECTD53*%
%ADD54R,2.4892X2.4892*%
%ADD55R,1.6032X1.2032*%
G04:AMPARAMS|DCode=56|XSize=1.7632mm|YSize=0.4832mm|CornerRadius=0.1366mm|HoleSize=0mm|Usage=FLASHONLY|Rotation=0.000|XOffset=0mm|YOffset=0mm|HoleType=Round|Shape=RoundedRectangle|*
%AMROUNDEDRECTD56*
21,1,1.7632,0.2100,0,0,0.0*
21,1,1.4900,0.4832,0,0,0.0*
1,1,0.2732,0.7450,-0.1050*
1,1,0.2732,-0.7450,-0.1050*
1,1,0.2732,-0.7450,0.1050*
1,1,0.2732,0.7450,0.1050*
%
%ADD56ROUNDEDRECTD56*%
G04:AMPARAMS|DCode=57|XSize=1.7632mm|YSize=0.4832mm|CornerRadius=0.1366mm|HoleSize=0mm|Usage=FLASHONLY|Rotation=90.000|XOffset=0mm|YOffset=0mm|HoleType=Round|Shape=RoundedRectangle|*
%AMROUNDEDRECTD57*
21,1,1.7632,0.2100,0,0,90.0*
21,1,1.4900,0.4832,0,0,90.0*
1,1,0.2732,0.1050,0.7450*
1,1,0.2732,0.1050,-0.7450*
1,1,0.2732,-0.1050,-0.7450*
1,1,0.2732,-0.1050,0.7450*
%
%ADD57ROUNDEDRECTD57*%
%ADD58R,1.1032X1.7032*%
%ADD59R,1.2032X1.6032*%
%ADD60R,0.7200X2.3200*%
%ADD61R,7.2032X4.2032*%
%ADD62R,8.4200X10.5700*%
%ADD63R,3.3200X1.1700*%
%ADD64C,5.7032*%
%ADD65C,2.1082*%
%ADD66R,2.1082X2.1082*%
%ADD67C,2.9032*%
%ADD68C,1.8532*%
%ADD69R,1.8532X1.8532*%
%ADD70C,3.6032*%
%ADD71C,1.7200*%
%ADD72R,1.7200X1.7200*%
%ADD73C,1.5200*%
%ADD74R,1.5200X1.5200*%
%ADD75C,2.3032*%
%ADD76R,2.3032X2.3032*%
%ADD77R,1.6012X1.6012*%
%ADD78C,1.6012*%
%ADD79C,1.7332*%
%ADD80C,2.6482*%
%ADD81C,3.4532*%
%ADD82C,1.7032*%
%ADD83R,1.7032X1.7032*%
%ADD84R,1.5200X1.5200*%
%ADD85R,1.8032X1.8032*%
%ADD86C,1.8032*%
D42*
X220750Y188750D02*
D03*
X204750D02*
D03*
X636500Y188500D02*
D03*
X620500D02*
D03*
X132500Y213250D02*
D03*
X148500D02*
D03*
X181500Y266250D02*
D03*
X197500D02*
D03*
X225250Y266000D02*
D03*
X241250D02*
D03*
X283750Y215500D02*
D03*
X267750D02*
D03*
X283750Y234500D02*
D03*
X267750D02*
D03*
X599000Y266250D02*
D03*
X615000D02*
D03*
X643000Y265250D02*
D03*
X659000D02*
D03*
X701250Y214750D02*
D03*
X685250D02*
D03*
X701250Y234000D02*
D03*
X685250D02*
D03*
X548500Y213750D02*
D03*
X564500D02*
D03*
X144450Y651000D02*
D03*
X160450D02*
D03*
X229500Y646750D02*
D03*
X245500D02*
D03*
X528250Y590250D02*
D03*
X512250D02*
D03*
X321000Y592750D02*
D03*
X337000D02*
D03*
X330250Y384000D02*
D03*
X314250D02*
D03*
X135000Y358250D02*
D03*
X151000D02*
D03*
X550250Y359750D02*
D03*
X566250D02*
D03*
X469500Y581750D02*
D03*
X485500D02*
D03*
X145000Y598500D02*
D03*
X161000D02*
D03*
X145000Y578750D02*
D03*
X161000D02*
D03*
D43*
X187750Y246900D02*
D03*
Y234200D02*
D03*
Y221500D02*
D03*
Y208800D02*
D03*
X235750Y246900D02*
D03*
Y234200D02*
D03*
Y221500D02*
D03*
Y208800D02*
D03*
X605000Y246900D02*
D03*
Y234200D02*
D03*
Y221500D02*
D03*
Y208800D02*
D03*
X653000Y246900D02*
D03*
Y234200D02*
D03*
Y221500D02*
D03*
Y208800D02*
D03*
D44*
X785660Y266500D02*
D03*
X758840D02*
D03*
X359910Y264750D02*
D03*
X333090D02*
D03*
D45*
X513250Y809315D02*
D03*
Y880685D02*
D03*
X610000Y727435D02*
D03*
Y656065D02*
D03*
D46*
X642000Y581500D02*
D03*
Y597500D02*
D03*
X642250Y563250D02*
D03*
Y547250D02*
D03*
X212500Y576250D02*
D03*
Y560250D02*
D03*
X200500Y420250D02*
D03*
Y404250D02*
D03*
X201250Y474000D02*
D03*
Y490000D02*
D03*
X281000Y544000D02*
D03*
Y528000D02*
D03*
X68000Y620250D02*
D03*
Y636250D02*
D03*
Y558250D02*
D03*
Y542250D02*
D03*
X281000Y444500D02*
D03*
Y428500D02*
D03*
X462500Y374250D02*
D03*
Y358250D02*
D03*
X773000Y473500D02*
D03*
Y457500D02*
D03*
X570500Y811250D02*
D03*
Y795250D02*
D03*
D47*
X102021Y881097D02*
D03*
X118021D02*
D03*
X117750Y865250D02*
D03*
X101750D02*
D03*
X115000Y831500D02*
D03*
X99000D02*
D03*
X99021Y816095D02*
D03*
X115021D02*
D03*
X304250Y605000D02*
D03*
X288250D02*
D03*
X213250Y701750D02*
D03*
X229250D02*
D03*
X199750Y702000D02*
D03*
X183750D02*
D03*
D48*
X180250Y560250D02*
D03*
Y576250D02*
D03*
X195500Y560250D02*
D03*
Y576250D02*
D03*
X237500Y560000D02*
D03*
Y576000D02*
D03*
X354500Y388250D02*
D03*
Y372250D02*
D03*
X257500Y576750D02*
D03*
Y560750D02*
D03*
X273250Y605500D02*
D03*
Y589500D02*
D03*
X214250Y671500D02*
D03*
Y687500D02*
D03*
X228250Y671500D02*
D03*
Y687500D02*
D03*
X198750Y671500D02*
D03*
Y687500D02*
D03*
X184750Y671500D02*
D03*
Y687500D02*
D03*
X169500Y671500D02*
D03*
Y687500D02*
D03*
D49*
X563200Y237600D02*
D03*
X550500D02*
D03*
X537800D02*
D03*
X525100D02*
D03*
X512400D02*
D03*
X499700D02*
D03*
X487000D02*
D03*
X474300D02*
D03*
Y330400D02*
D03*
X487000D02*
D03*
X499700D02*
D03*
X512400D02*
D03*
X525100D02*
D03*
X537800D02*
D03*
X550500D02*
D03*
X563200D02*
D03*
X147700Y237600D02*
D03*
X135000D02*
D03*
X122300D02*
D03*
X109600D02*
D03*
X96900D02*
D03*
X84200D02*
D03*
X71500D02*
D03*
X58800D02*
D03*
Y330400D02*
D03*
X71500D02*
D03*
X84200D02*
D03*
X96900D02*
D03*
X109600D02*
D03*
X122300D02*
D03*
X135000D02*
D03*
X147700D02*
D03*
D50*
X236500Y499500D02*
D03*
Y403500D02*
D03*
X105750Y541750D02*
D03*
Y637750D02*
D03*
D51*
X154000Y528750D02*
D03*
Y557750D02*
D03*
X107500Y739000D02*
D03*
Y768000D02*
D03*
D52*
X209250Y639900D02*
D03*
X204250D02*
D03*
X184250D02*
D03*
X189250D02*
D03*
X199250D02*
D03*
X194250D02*
D03*
Y602000D02*
D03*
X199250D02*
D03*
X189250D02*
D03*
X184250D02*
D03*
X204250D02*
D03*
X209250D02*
D03*
D53*
X215700Y633450D02*
D03*
Y628450D02*
D03*
Y608450D02*
D03*
Y613450D02*
D03*
Y623450D02*
D03*
Y618450D02*
D03*
X177800Y633450D02*
D03*
Y628450D02*
D03*
Y608450D02*
D03*
Y613450D02*
D03*
Y623450D02*
D03*
Y618450D02*
D03*
D54*
X196750Y620950D02*
D03*
D55*
X360250Y594250D02*
D03*
Y614250D02*
D03*
X560750Y469250D02*
D03*
Y449250D02*
D03*
X441000Y373250D02*
D03*
Y353250D02*
D03*
X496000Y551500D02*
D03*
Y531500D02*
D03*
D56*
X466300Y544000D02*
D03*
Y539000D02*
D03*
Y534000D02*
D03*
Y529000D02*
D03*
Y524000D02*
D03*
Y519000D02*
D03*
Y514000D02*
D03*
Y509000D02*
D03*
Y504000D02*
D03*
Y499000D02*
D03*
Y494000D02*
D03*
Y489000D02*
D03*
Y484000D02*
D03*
Y479000D02*
D03*
Y474000D02*
D03*
Y469000D02*
D03*
Y464000D02*
D03*
Y459000D02*
D03*
Y454000D02*
D03*
Y449000D02*
D03*
Y444000D02*
D03*
Y439000D02*
D03*
Y434000D02*
D03*
Y429000D02*
D03*
Y424000D02*
D03*
X312700D02*
D03*
Y429000D02*
D03*
Y434000D02*
D03*
Y439000D02*
D03*
Y444000D02*
D03*
Y449000D02*
D03*
Y454000D02*
D03*
Y459000D02*
D03*
Y464000D02*
D03*
Y469000D02*
D03*
Y474000D02*
D03*
Y479000D02*
D03*
Y484000D02*
D03*
Y489000D02*
D03*
Y494000D02*
D03*
Y499000D02*
D03*
Y504000D02*
D03*
Y509000D02*
D03*
Y514000D02*
D03*
Y519000D02*
D03*
Y524000D02*
D03*
Y529000D02*
D03*
Y534000D02*
D03*
Y539000D02*
D03*
Y544000D02*
D03*
D57*
X329500Y560800D02*
D03*
X334500D02*
D03*
X339500D02*
D03*
X344500D02*
D03*
X349500D02*
D03*
X354500D02*
D03*
X359500D02*
D03*
X364500D02*
D03*
X369500D02*
D03*
X374500D02*
D03*
X379500D02*
D03*
X384500D02*
D03*
X389500D02*
D03*
X394500D02*
D03*
X399500D02*
D03*
X404500D02*
D03*
X409500D02*
D03*
X414500D02*
D03*
X419500D02*
D03*
X424500D02*
D03*
X429500D02*
D03*
X434500D02*
D03*
X439500D02*
D03*
X444500D02*
D03*
X449500D02*
D03*
Y407200D02*
D03*
X444500D02*
D03*
X439500D02*
D03*
X434500D02*
D03*
X429500D02*
D03*
X424500D02*
D03*
X419500D02*
D03*
X414500D02*
D03*
X409500D02*
D03*
X404500D02*
D03*
X399500D02*
D03*
X394500D02*
D03*
X389500D02*
D03*
X384500D02*
D03*
X379500D02*
D03*
X374500D02*
D03*
X369500D02*
D03*
X364500D02*
D03*
X359500D02*
D03*
X354500D02*
D03*
X349500D02*
D03*
X344500D02*
D03*
X339500D02*
D03*
X334500D02*
D03*
X329500D02*
D03*
D58*
X591250Y442500D02*
D03*
X605250D02*
D03*
Y473500D02*
D03*
X591250D02*
D03*
D59*
X585750Y500500D02*
D03*
X605750D02*
D03*
X586500Y418500D02*
D03*
X606500D02*
D03*
D60*
X589550Y587000D02*
D03*
X576850D02*
D03*
X564150D02*
D03*
X551450D02*
D03*
X589550Y539000D02*
D03*
X576850D02*
D03*
X564150D02*
D03*
X551450D02*
D03*
D61*
X715000Y735000D02*
D03*
Y635000D02*
D03*
D62*
X455750Y688500D02*
D03*
D63*
X550250Y722500D02*
D03*
Y705500D02*
D03*
Y688500D02*
D03*
Y671500D02*
D03*
Y654500D02*
D03*
D64*
X433250Y207250D02*
D03*
X37000Y380750D02*
D03*
X792750D02*
D03*
X785750Y830500D02*
D03*
X39250D02*
D03*
D65*
X722250Y450590D02*
D03*
X696850D02*
D03*
D66*
X671450D02*
D03*
D67*
X809250Y42000D02*
D03*
X654250D02*
D03*
X390250D02*
D03*
X235250D02*
D03*
X600250D02*
D03*
X445250D02*
D03*
X189000D02*
D03*
X34000D02*
D03*
D68*
X776200Y161400D02*
D03*
X763500Y136000D02*
D03*
X750800Y161400D02*
D03*
X738100Y136000D02*
D03*
X725400Y161400D02*
D03*
X712700Y136000D02*
D03*
X700000Y161400D02*
D03*
X357200D02*
D03*
X344500Y136000D02*
D03*
X331800Y161400D02*
D03*
X319100Y136000D02*
D03*
X306400Y161400D02*
D03*
X293700Y136000D02*
D03*
X281000Y161400D02*
D03*
X567200D02*
D03*
X554500Y136000D02*
D03*
X541800Y161400D02*
D03*
X529100Y136000D02*
D03*
X516400Y161400D02*
D03*
X503700Y136000D02*
D03*
X491000Y161400D02*
D03*
X155950D02*
D03*
X143250Y136000D02*
D03*
X130550Y161400D02*
D03*
X117850Y136000D02*
D03*
X105150Y161400D02*
D03*
X92450Y136000D02*
D03*
X79750Y161400D02*
D03*
D69*
X687300Y136000D02*
D03*
X268300D02*
D03*
X478300D02*
D03*
X67050D02*
D03*
D70*
X788900Y72500D02*
D03*
X674600D02*
D03*
X369900D02*
D03*
X255600D02*
D03*
X579900D02*
D03*
X465600D02*
D03*
X168650D02*
D03*
X54350D02*
D03*
D71*
X389500Y226000D02*
D03*
Y251400D02*
D03*
X814000Y226000D02*
D03*
Y251400D02*
D03*
D72*
X389500Y200600D02*
D03*
X814000D02*
D03*
D73*
X649750Y814000D02*
D03*
X750000Y550500D02*
D03*
D74*
X649750Y864000D02*
D03*
D75*
X418250Y879000D02*
D03*
D76*
X368250D02*
D03*
D77*
X264650Y769750D02*
D03*
D78*
X251950Y744350D02*
D03*
X239250Y769750D02*
D03*
X226550Y744350D02*
D03*
X213850Y769750D02*
D03*
X201150Y744350D02*
D03*
X188450Y769750D02*
D03*
X175750Y744350D02*
D03*
D79*
X286400Y882250D02*
D03*
X261000D02*
D03*
X153900D02*
D03*
X179300D02*
D03*
D80*
X297600Y802750D02*
D03*
X142700D02*
D03*
D81*
X163000Y833250D02*
D03*
X277300D02*
D03*
D82*
X41250Y539800D02*
D03*
Y514400D02*
D03*
Y489000D02*
D03*
Y463600D02*
D03*
D83*
Y438200D02*
D03*
D84*
X700000Y550500D02*
D03*
D85*
X201300Y335865D02*
D03*
X623550D02*
D03*
D86*
X226700D02*
D03*
X277500D02*
D03*
X302900D02*
D03*
X328300D02*
D03*
X353700D02*
D03*
X648950D02*
D03*
X699750D02*
D03*
X725150D02*
D03*
X750550D02*
D03*
X775950D02*
D03*
M02*
