G04*
G04 #@! TF.GenerationSoftware,Altium Limited,Altium Designer,20.0.13 (296)*
G04*
G04 Layer_Color=8421504*
%FSLAX44Y44*%
%MOMM*%
G71*
G01*
G75*
%ADD20R,0.8000X1.0000*%
%ADD21R,2.2000X0.6000*%
%ADD22R,1.5300X2.7200*%
%ADD23R,3.8100X2.7940*%
%ADD24R,1.0000X0.8000*%
%ADD25R,0.7000X0.9000*%
%ADD26R,0.9000X0.7000*%
%ADD27R,0.6000X2.0600*%
%ADD28R,1.1000X4.8000*%
%ADD29R,2.4000X1.5000*%
G04:AMPARAMS|DCode=30|XSize=0.28mm|YSize=0.69mm|CornerRadius=0.07mm|HoleSize=0mm|Usage=FLASHONLY|Rotation=0.000|XOffset=0mm|YOffset=0mm|HoleType=Round|Shape=RoundedRectangle|*
%AMROUNDEDRECTD30*
21,1,0.2800,0.5500,0,0,0.0*
21,1,0.1400,0.6900,0,0,0.0*
1,1,0.1400,0.0700,-0.2750*
1,1,0.1400,-0.0700,-0.2750*
1,1,0.1400,-0.0700,0.2750*
1,1,0.1400,0.0700,0.2750*
%
%ADD30ROUNDEDRECTD30*%
G04:AMPARAMS|DCode=31|XSize=0.28mm|YSize=0.69mm|CornerRadius=0.07mm|HoleSize=0mm|Usage=FLASHONLY|Rotation=90.000|XOffset=0mm|YOffset=0mm|HoleType=Round|Shape=RoundedRectangle|*
%AMROUNDEDRECTD31*
21,1,0.2800,0.5500,0,0,90.0*
21,1,0.1400,0.6900,0,0,90.0*
1,1,0.1400,0.2750,0.0700*
1,1,0.1400,0.2750,-0.0700*
1,1,0.1400,-0.2750,-0.0700*
1,1,0.1400,-0.2750,0.0700*
%
%ADD31ROUNDEDRECTD31*%
%ADD32R,2.2860X2.2860*%
%ADD33R,1.4000X1.0000*%
G04:AMPARAMS|DCode=34|XSize=1.56mm|YSize=0.28mm|CornerRadius=0.035mm|HoleSize=0mm|Usage=FLASHONLY|Rotation=0.000|XOffset=0mm|YOffset=0mm|HoleType=Round|Shape=RoundedRectangle|*
%AMROUNDEDRECTD34*
21,1,1.5600,0.2100,0,0,0.0*
21,1,1.4900,0.2800,0,0,0.0*
1,1,0.0700,0.7450,-0.1050*
1,1,0.0700,-0.7450,-0.1050*
1,1,0.0700,-0.7450,0.1050*
1,1,0.0700,0.7450,0.1050*
%
%ADD34ROUNDEDRECTD34*%
G04:AMPARAMS|DCode=35|XSize=1.56mm|YSize=0.28mm|CornerRadius=0.035mm|HoleSize=0mm|Usage=FLASHONLY|Rotation=90.000|XOffset=0mm|YOffset=0mm|HoleType=Round|Shape=RoundedRectangle|*
%AMROUNDEDRECTD35*
21,1,1.5600,0.2100,0,0,90.0*
21,1,1.4900,0.2800,0,0,90.0*
1,1,0.0700,0.1050,0.7450*
1,1,0.0700,0.1050,-0.7450*
1,1,0.0700,-0.1050,-0.7450*
1,1,0.0700,-0.1050,0.7450*
%
%ADD35ROUNDEDRECTD35*%
%ADD36R,0.9000X1.5000*%
%ADD37R,1.0000X1.4000*%
%ADD38R,0.6000X2.2000*%
%ADD39R,7.0000X4.0000*%
%ADD40R,8.3000X10.4500*%
%ADD41R,3.2000X1.0500*%
D20*
X220750Y188750D02*
D03*
X204750D02*
D03*
X636500Y188500D02*
D03*
X620500D02*
D03*
X132500Y213250D02*
D03*
X148500D02*
D03*
X181500Y266250D02*
D03*
X197500D02*
D03*
X225250Y266000D02*
D03*
X241250D02*
D03*
X283750Y215500D02*
D03*
X267750D02*
D03*
X283750Y234500D02*
D03*
X267750D02*
D03*
X599000Y266250D02*
D03*
X615000D02*
D03*
X643000Y265250D02*
D03*
X659000D02*
D03*
X701250Y214750D02*
D03*
X685250D02*
D03*
X701250Y234000D02*
D03*
X685250D02*
D03*
X548500Y213750D02*
D03*
X564500D02*
D03*
X144450Y651000D02*
D03*
X160450D02*
D03*
X229500Y646750D02*
D03*
X245500D02*
D03*
X528250Y590250D02*
D03*
X512250D02*
D03*
X321000Y592750D02*
D03*
X337000D02*
D03*
X330250Y384000D02*
D03*
X314250D02*
D03*
X135000Y358250D02*
D03*
X151000D02*
D03*
X550250Y359750D02*
D03*
X566250D02*
D03*
X469500Y581750D02*
D03*
X485500D02*
D03*
X145000Y598500D02*
D03*
X161000D02*
D03*
X145000Y578750D02*
D03*
X161000D02*
D03*
D21*
X187750Y246900D02*
D03*
Y234200D02*
D03*
Y221500D02*
D03*
Y208800D02*
D03*
X235750Y246900D02*
D03*
Y234200D02*
D03*
Y221500D02*
D03*
Y208800D02*
D03*
X605000Y246900D02*
D03*
Y234200D02*
D03*
Y221500D02*
D03*
Y208800D02*
D03*
X653000Y246900D02*
D03*
Y234200D02*
D03*
Y221500D02*
D03*
Y208800D02*
D03*
D22*
X785660Y266500D02*
D03*
X758840D02*
D03*
X359910Y264750D02*
D03*
X333090D02*
D03*
D23*
X513250Y809315D02*
D03*
Y880685D02*
D03*
X610000Y727435D02*
D03*
Y656065D02*
D03*
D24*
X642000Y581500D02*
D03*
Y597500D02*
D03*
X642250Y563250D02*
D03*
Y547250D02*
D03*
X212500Y576250D02*
D03*
Y560250D02*
D03*
X200500Y420250D02*
D03*
Y404250D02*
D03*
X201250Y474000D02*
D03*
Y490000D02*
D03*
X281000Y544000D02*
D03*
Y528000D02*
D03*
X68000Y620250D02*
D03*
Y636250D02*
D03*
Y558250D02*
D03*
Y542250D02*
D03*
X281000Y444500D02*
D03*
Y428500D02*
D03*
X462500Y374250D02*
D03*
Y358250D02*
D03*
X773000Y473500D02*
D03*
Y457500D02*
D03*
X570500Y811250D02*
D03*
Y795250D02*
D03*
D25*
X102021Y881097D02*
D03*
X118021D02*
D03*
X117750Y865250D02*
D03*
X101750D02*
D03*
X115000Y831500D02*
D03*
X99000D02*
D03*
X99021Y816095D02*
D03*
X115021D02*
D03*
X304250Y605000D02*
D03*
X288250D02*
D03*
X213250Y701750D02*
D03*
X229250D02*
D03*
X199750Y702000D02*
D03*
X183750D02*
D03*
D26*
X180250Y560250D02*
D03*
Y576250D02*
D03*
X195500Y560250D02*
D03*
Y576250D02*
D03*
X237500Y560000D02*
D03*
Y576000D02*
D03*
X354500Y388250D02*
D03*
Y372250D02*
D03*
X257500Y576750D02*
D03*
Y560750D02*
D03*
X273250Y605500D02*
D03*
Y589500D02*
D03*
X214250Y671500D02*
D03*
Y687500D02*
D03*
X228250Y671500D02*
D03*
Y687500D02*
D03*
X198750Y671500D02*
D03*
Y687500D02*
D03*
X184750Y671500D02*
D03*
Y687500D02*
D03*
X169500Y671500D02*
D03*
Y687500D02*
D03*
D27*
X563200Y237600D02*
D03*
X550500D02*
D03*
X537800D02*
D03*
X525100D02*
D03*
X512400D02*
D03*
X499700D02*
D03*
X487000D02*
D03*
X474300D02*
D03*
Y330400D02*
D03*
X487000D02*
D03*
X499700D02*
D03*
X512400D02*
D03*
X525100D02*
D03*
X537800D02*
D03*
X550500D02*
D03*
X563200D02*
D03*
X147700Y237600D02*
D03*
X135000D02*
D03*
X122300D02*
D03*
X109600D02*
D03*
X96900D02*
D03*
X84200D02*
D03*
X71500D02*
D03*
X58800D02*
D03*
Y330400D02*
D03*
X71500D02*
D03*
X84200D02*
D03*
X96900D02*
D03*
X109600D02*
D03*
X122300D02*
D03*
X135000D02*
D03*
X147700D02*
D03*
D28*
X236500Y499500D02*
D03*
Y403500D02*
D03*
X105750Y541750D02*
D03*
Y637750D02*
D03*
D29*
X154000Y528750D02*
D03*
Y557750D02*
D03*
X107500Y739000D02*
D03*
Y768000D02*
D03*
D30*
X209250Y639900D02*
D03*
X204250D02*
D03*
X184250D02*
D03*
X189250D02*
D03*
X199250D02*
D03*
X194250D02*
D03*
Y602000D02*
D03*
X199250D02*
D03*
X189250D02*
D03*
X184250D02*
D03*
X204250D02*
D03*
X209250D02*
D03*
D31*
X215700Y633450D02*
D03*
Y628450D02*
D03*
Y608450D02*
D03*
Y613450D02*
D03*
Y623450D02*
D03*
Y618450D02*
D03*
X177800Y633450D02*
D03*
Y628450D02*
D03*
Y608450D02*
D03*
Y613450D02*
D03*
Y623450D02*
D03*
Y618450D02*
D03*
D32*
X196750Y620950D02*
D03*
D33*
X360250Y594250D02*
D03*
Y614250D02*
D03*
X560750Y469250D02*
D03*
Y449250D02*
D03*
X441000Y373250D02*
D03*
Y353250D02*
D03*
X496000Y551500D02*
D03*
Y531500D02*
D03*
D34*
X466300Y544000D02*
D03*
Y539000D02*
D03*
Y534000D02*
D03*
Y529000D02*
D03*
Y524000D02*
D03*
Y519000D02*
D03*
Y514000D02*
D03*
Y509000D02*
D03*
Y504000D02*
D03*
Y499000D02*
D03*
Y494000D02*
D03*
Y489000D02*
D03*
Y484000D02*
D03*
Y479000D02*
D03*
Y474000D02*
D03*
Y469000D02*
D03*
Y464000D02*
D03*
Y459000D02*
D03*
Y454000D02*
D03*
Y449000D02*
D03*
Y444000D02*
D03*
Y439000D02*
D03*
Y434000D02*
D03*
Y429000D02*
D03*
Y424000D02*
D03*
X312700D02*
D03*
Y429000D02*
D03*
Y434000D02*
D03*
Y439000D02*
D03*
Y444000D02*
D03*
Y449000D02*
D03*
Y454000D02*
D03*
Y459000D02*
D03*
Y464000D02*
D03*
Y469000D02*
D03*
Y474000D02*
D03*
Y479000D02*
D03*
Y484000D02*
D03*
Y489000D02*
D03*
Y494000D02*
D03*
Y499000D02*
D03*
Y504000D02*
D03*
Y509000D02*
D03*
Y514000D02*
D03*
Y519000D02*
D03*
Y524000D02*
D03*
Y529000D02*
D03*
Y534000D02*
D03*
Y539000D02*
D03*
Y544000D02*
D03*
D35*
X329500Y560800D02*
D03*
X334500D02*
D03*
X339500D02*
D03*
X344500D02*
D03*
X349500D02*
D03*
X354500D02*
D03*
X359500D02*
D03*
X364500D02*
D03*
X369500D02*
D03*
X374500D02*
D03*
X379500D02*
D03*
X384500D02*
D03*
X389500D02*
D03*
X394500D02*
D03*
X399500D02*
D03*
X404500D02*
D03*
X409500D02*
D03*
X414500D02*
D03*
X419500D02*
D03*
X424500D02*
D03*
X429500D02*
D03*
X434500D02*
D03*
X439500D02*
D03*
X444500D02*
D03*
X449500D02*
D03*
Y407200D02*
D03*
X444500D02*
D03*
X439500D02*
D03*
X434500D02*
D03*
X429500D02*
D03*
X424500D02*
D03*
X419500D02*
D03*
X414500D02*
D03*
X409500D02*
D03*
X404500D02*
D03*
X399500D02*
D03*
X394500D02*
D03*
X389500D02*
D03*
X384500D02*
D03*
X379500D02*
D03*
X374500D02*
D03*
X369500D02*
D03*
X364500D02*
D03*
X359500D02*
D03*
X354500D02*
D03*
X349500D02*
D03*
X344500D02*
D03*
X339500D02*
D03*
X334500D02*
D03*
X329500D02*
D03*
D36*
X591250Y442500D02*
D03*
X605250D02*
D03*
Y473500D02*
D03*
X591250D02*
D03*
D37*
X585750Y500500D02*
D03*
X605750D02*
D03*
X586500Y418500D02*
D03*
X606500D02*
D03*
D38*
X589550Y587000D02*
D03*
X576850D02*
D03*
X564150D02*
D03*
X551450D02*
D03*
X589550Y539000D02*
D03*
X576850D02*
D03*
X564150D02*
D03*
X551450D02*
D03*
D39*
X715000Y735000D02*
D03*
Y635000D02*
D03*
D40*
X455750Y688500D02*
D03*
D41*
X550250Y722500D02*
D03*
Y705500D02*
D03*
Y688500D02*
D03*
Y671500D02*
D03*
Y654500D02*
D03*
M02*
