G04*
G04 #@! TF.GenerationSoftware,Altium Limited,Altium Designer,20.0.13 (296)*
G04*
G04 Layer_Color=65535*
%FSLAX44Y44*%
%MOMM*%
G71*
G01*
G75*
%ADD10C,0.1500*%
%ADD11C,0.2500*%
%ADD12C,0.2000*%
%ADD13C,0.6096*%
%ADD14C,0.3000*%
%ADD15C,0.1270*%
%ADD16C,0.1524*%
%ADD17C,0.1520*%
%ADD18C,0.2540*%
%ADD19R,2.8000X0.5500*%
D10*
X228155Y180737D02*
G03*
X228050Y196650I-12168J7877D01*
G01*
X197045Y196763D02*
G03*
X197150Y180850I12168J-7877D01*
G01*
X643905Y180487D02*
G03*
X643800Y196400I-12168J7877D01*
G01*
X612795Y196513D02*
G03*
X612900Y180600I12168J-7877D01*
G01*
X125096Y221262D02*
G03*
X125200Y205350I12168J-7877D01*
G01*
X156205Y205238D02*
G03*
X156100Y221150I-12168J7877D01*
G01*
X541095Y221763D02*
G03*
X541200Y205850I12168J-7877D01*
G01*
X572205Y205737D02*
G03*
X572100Y221650I-12168J7877D01*
G01*
X220513Y583655D02*
G03*
X204600Y583550I-7877J-12168D01*
G01*
X204487Y552546D02*
G03*
X220400Y552650I7877J12168D01*
G01*
X137045Y659013D02*
G03*
X137150Y643100I12168J-7877D01*
G01*
X168155Y642988D02*
G03*
X168050Y658900I-12168J7877D01*
G01*
X222095Y654762D02*
G03*
X222200Y638850I12168J-7877D01*
G01*
X253204Y638737D02*
G03*
X253100Y654650I-12168J7877D01*
G01*
X208512Y427654D02*
G03*
X192600Y427550I-7877J-12168D01*
G01*
X192488Y396545D02*
G03*
X208400Y396650I7877J12168D01*
G01*
X193237Y466595D02*
G03*
X209150Y466700I7877J12168D01*
G01*
X209263Y497705D02*
G03*
X193350Y497600I-7877J-12168D01*
G01*
X535655Y582238D02*
G03*
X535550Y598150I-12168J7877D01*
G01*
X504546Y598262D02*
G03*
X504650Y582350I12168J-7877D01*
G01*
X289013Y551405D02*
G03*
X273100Y551300I-7877J-12168D01*
G01*
X272987Y520295D02*
G03*
X288900Y520400I7877J12168D01*
G01*
X313595Y600762D02*
G03*
X313700Y584850I12168J-7877D01*
G01*
X344705Y584738D02*
G03*
X344600Y600650I-12168J7877D01*
G01*
X59988Y612845D02*
G03*
X75900Y612950I7877J12168D01*
G01*
X76013Y643954D02*
G03*
X60100Y643850I-7877J-12168D01*
G01*
X76013Y565654D02*
G03*
X60100Y565550I-7877J-12168D01*
G01*
X59988Y534546D02*
G03*
X75900Y534650I7877J12168D01*
G01*
X289013Y451905D02*
G03*
X273100Y451800I-7877J-12168D01*
G01*
X272987Y420796D02*
G03*
X288900Y420900I7877J12168D01*
G01*
X431000Y345250D02*
G03*
X450984Y345174I10047J14270D01*
G01*
X451000Y381250D02*
G03*
X431016Y381326I-10047J-14270D01*
G01*
X470513Y381655D02*
G03*
X454600Y381550I-7877J-12168D01*
G01*
X454487Y350546D02*
G03*
X470400Y350650I7877J12168D01*
G01*
X337654Y375988D02*
G03*
X337550Y391900I-12168J7877D01*
G01*
X306546Y392013D02*
G03*
X306650Y376100I12168J-7877D01*
G01*
X486000Y523500D02*
G03*
X505984Y523424I10047J14270D01*
G01*
X506000Y559500D02*
G03*
X486016Y559576I-10047J-14270D01*
G01*
X781012Y480905D02*
G03*
X765100Y480800I-7877J-12168D01*
G01*
X764987Y449795D02*
G03*
X780900Y449900I7877J12168D01*
G01*
X127296Y366263D02*
G03*
X127400Y350350I12168J-7877D01*
G01*
X158405Y350238D02*
G03*
X158300Y366150I-12168J7877D01*
G01*
X542546Y367762D02*
G03*
X542650Y351850I12168J-7877D01*
G01*
X573655Y351738D02*
G03*
X573550Y367650I-12168J7877D01*
G01*
X461796Y589762D02*
G03*
X461900Y573850I12168J-7877D01*
G01*
X492905Y573737D02*
G03*
X492800Y589650I-12168J7877D01*
G01*
X137296Y606512D02*
G03*
X137400Y590600I12168J-7877D01*
G01*
X168405Y590488D02*
G03*
X168300Y606400I-12168J7877D01*
G01*
X137296Y586763D02*
G03*
X137400Y570850I12168J-7877D01*
G01*
X168405Y570737D02*
G03*
X168300Y586650I-12168J7877D01*
G01*
X578512Y818954D02*
G03*
X562600Y818850I-7877J-12168D01*
G01*
X562487Y787845D02*
G03*
X578400Y787950I7877J12168D01*
G01*
X197250Y196750D02*
X228000D01*
X197250Y180750D02*
X228000D01*
X214150Y186050D02*
Y191350D01*
X211350Y186050D02*
Y191350D01*
X613000Y196500D02*
X643750D01*
X613000Y180500D02*
X643750D01*
X629900Y185800D02*
Y191100D01*
X627100Y185800D02*
Y191100D01*
X125250Y205250D02*
X156000D01*
X125250Y221250D02*
X156000D01*
X139100Y210650D02*
Y215950D01*
X141900Y210650D02*
Y215950D01*
X174250Y258250D02*
X205000D01*
Y274250D01*
X174250D02*
X205000D01*
X174250Y258250D02*
Y274250D01*
X187500Y264250D02*
Y268500D01*
X191500D01*
Y264250D02*
Y268500D01*
X187500Y264250D02*
X191500D01*
X218000Y258000D02*
X248750D01*
Y274000D01*
X218000D02*
X248750D01*
X218000Y258000D02*
Y274000D01*
X231250Y264000D02*
Y268250D01*
X235250D01*
Y264000D02*
Y268250D01*
X231250Y264000D02*
X235250D01*
X260250Y223500D02*
X291000D01*
X260250Y207500D02*
Y223500D01*
Y207500D02*
X291000D01*
Y223500D01*
X277750Y213250D02*
Y217500D01*
X273750Y213250D02*
X277750D01*
X273750D02*
Y217500D01*
X277750D01*
X260250Y242500D02*
X291000D01*
X260250Y226500D02*
Y242500D01*
Y226500D02*
X291000D01*
Y242500D01*
X277750Y232250D02*
Y236500D01*
X273750Y232250D02*
X277750D01*
X273750D02*
Y236500D01*
X277750D01*
X591750Y258250D02*
X622500D01*
Y274250D01*
X591750D02*
X622500D01*
X591750Y258250D02*
Y274250D01*
X605000Y264250D02*
Y268500D01*
X609000D01*
Y264250D02*
Y268500D01*
X605000Y264250D02*
X609000D01*
X635750Y257250D02*
X666500D01*
Y273250D01*
X635750D02*
X666500D01*
X635750Y257250D02*
Y273250D01*
X649000Y263250D02*
Y267500D01*
X653000D01*
Y263250D02*
Y267500D01*
X649000Y263250D02*
X653000D01*
X677750Y222750D02*
X708500D01*
X677750Y206750D02*
Y222750D01*
Y206750D02*
X708500D01*
Y222750D01*
X695250Y212500D02*
Y216750D01*
X691250Y212500D02*
X695250D01*
X691250D02*
Y216750D01*
X695250D01*
X677750Y242000D02*
X708500D01*
X677750Y226000D02*
Y242000D01*
Y226000D02*
X708500D01*
Y242000D01*
X695250Y231750D02*
Y236000D01*
X691250Y231750D02*
X695250D01*
X691250D02*
Y236000D01*
X695250D01*
X650000Y574250D02*
Y605000D01*
X634000D02*
X650000D01*
X634000Y574250D02*
Y605000D01*
Y574250D02*
X650000D01*
X639750Y587500D02*
X644000D01*
X639750D02*
Y591500D01*
X644000D01*
Y587500D02*
Y591500D01*
X634250Y539750D02*
Y570500D01*
Y539750D02*
X650250D01*
Y570500D01*
X634250D02*
X650250D01*
X640250Y557250D02*
X644500D01*
Y553250D02*
Y557250D01*
X640250Y553250D02*
X644500D01*
X640250D02*
Y557250D01*
X541250Y205750D02*
X572000D01*
X541250Y221750D02*
X572000D01*
X555100Y211150D02*
Y216450D01*
X557900Y211150D02*
Y216450D01*
X204500Y552750D02*
Y583500D01*
X220500Y552750D02*
Y583500D01*
X209900Y569650D02*
X215200D01*
X209900Y566850D02*
X215200D01*
X137200Y643000D02*
X167950D01*
X137200Y659000D02*
X167950D01*
X151050Y648400D02*
Y653700D01*
X153850Y648400D02*
Y653700D01*
X222250Y638750D02*
X253000D01*
X222250Y654750D02*
X253000D01*
X236100Y644150D02*
Y649450D01*
X238900Y644150D02*
Y649450D01*
X192500Y396750D02*
Y427500D01*
X208500Y396750D02*
Y427500D01*
X197900Y413650D02*
X203200D01*
X197900Y410850D02*
X203200D01*
X209250Y466750D02*
Y497500D01*
X193250Y466750D02*
Y497500D01*
X198550Y480600D02*
X203850D01*
X198550Y483400D02*
X203850D01*
X504750Y598250D02*
X535500D01*
X504750Y582250D02*
X535500D01*
X521650Y587550D02*
Y592850D01*
X518850Y587550D02*
Y592850D01*
X273000Y520500D02*
Y551250D01*
X289000Y520500D02*
Y551250D01*
X278400Y537400D02*
X283700D01*
X278400Y534600D02*
X283700D01*
X357250Y601500D02*
X363000D01*
X357250D02*
Y607000D01*
X363000D01*
Y601500D02*
Y607000D01*
X370250Y586250D02*
Y622250D01*
X350250Y586250D02*
X370250D01*
X350250Y622250D02*
X370250D01*
X350250Y586250D02*
Y622250D01*
X313750Y584750D02*
X344500D01*
X313750Y600750D02*
X344500D01*
X327600Y590150D02*
Y595450D01*
X330400Y590150D02*
Y595450D01*
X558000Y462000D02*
X563750D01*
Y456500D02*
Y462000D01*
X558000Y456500D02*
X563750D01*
X558000D02*
Y462000D01*
X550750Y441250D02*
Y477250D01*
X570750D01*
X550750Y441250D02*
X570750D01*
Y477250D01*
X593000Y497750D02*
Y503500D01*
X598500D01*
Y497750D02*
Y503500D01*
X593000Y497750D02*
X598500D01*
X577750Y490500D02*
X613750D01*
X577750D02*
Y510500D01*
X613750Y490500D02*
Y510500D01*
X577750D02*
X613750D01*
X593750Y415750D02*
Y421500D01*
X599250D01*
Y415750D02*
Y421500D01*
X593750Y415750D02*
X599250D01*
X578500Y408500D02*
X614500D01*
X578500D02*
Y428500D01*
X614500Y408500D02*
Y428500D01*
X578500D02*
X614500D01*
X76000Y613000D02*
Y643750D01*
X60000Y613000D02*
Y643750D01*
X65300Y626850D02*
X70600D01*
X65300Y629650D02*
X70600D01*
X60000Y534750D02*
Y565500D01*
X76000Y534750D02*
Y565500D01*
X65400Y551650D02*
X70700D01*
X65400Y548850D02*
X70700D01*
X273000Y421000D02*
Y451750D01*
X289000Y421000D02*
Y451750D01*
X278400Y437900D02*
X283700D01*
X278400Y435100D02*
X283700D01*
X431000Y345250D02*
Y381250D01*
X451000Y345250D02*
Y381250D01*
X437000Y365250D02*
X445100D01*
X437000Y361250D02*
X445000D01*
X454500Y350750D02*
Y381500D01*
X470500Y350750D02*
Y381500D01*
X459900Y367650D02*
X465200D01*
X459900Y364850D02*
X465200D01*
X306750Y392000D02*
X337500D01*
X306750Y376000D02*
X337500D01*
X323650Y381300D02*
Y386600D01*
X320850Y381300D02*
Y386600D01*
X486000Y523500D02*
Y559500D01*
X506000Y523500D02*
Y559500D01*
X492000Y543500D02*
X500100D01*
X492000Y539500D02*
X500000D01*
X765000Y450000D02*
Y480750D01*
X781000Y450000D02*
Y480750D01*
X770400Y466900D02*
X775700D01*
X770400Y464100D02*
X775700D01*
X141600Y355550D02*
Y360850D01*
X144400Y355550D02*
Y360850D01*
X127500Y350250D02*
X158250D01*
X127500Y366250D02*
X158250D01*
X556850Y357050D02*
Y362350D01*
X559650Y357050D02*
Y362350D01*
X542750Y351750D02*
X573500D01*
X542750Y367750D02*
X573500D01*
X476100Y579050D02*
Y584350D01*
X478900Y579050D02*
Y584350D01*
X462000Y573750D02*
X492750D01*
X462000Y589750D02*
X492750D01*
X151600Y595800D02*
Y601100D01*
X154400Y595800D02*
Y601100D01*
X137500Y590500D02*
X168250D01*
X137500Y606500D02*
X168250D01*
X151600Y576050D02*
Y581350D01*
X154400Y576050D02*
Y581350D01*
X137500Y570750D02*
X168250D01*
X137500Y586750D02*
X168250D01*
X567800Y804650D02*
X573100D01*
X567800Y801850D02*
X573100D01*
X562500Y788000D02*
Y818750D01*
X578500Y788000D02*
Y818750D01*
D11*
X189000Y255400D02*
G03*
X189000Y255400I-1250J0D01*
G01*
X606250D02*
G03*
X606250Y255400I-1250J0D01*
G01*
X544200Y539000D02*
G03*
X544200Y539000I-1250J0D01*
G01*
X551500Y643750D02*
G03*
X551500Y643750I-1250J0D01*
G01*
D12*
X631650Y131500D02*
G03*
X631650Y131500I-1000J0D01*
G01*
X212650D02*
G03*
X212650Y131500I-1000J0D01*
G01*
X422650D02*
G03*
X422650Y131500I-1000J0D01*
G01*
X11400D02*
G03*
X11400Y131500I-1000J0D01*
G01*
X699750Y839000D02*
G03*
X699750Y839000I-50000J0D01*
G01*
X369250Y927000D02*
G03*
X369250Y927000I-1000J0D01*
G01*
X568200Y347000D02*
G03*
X568200Y347000I-1000J0D01*
G01*
X152700D02*
G03*
X152700Y347000I-1000J0D01*
G01*
X296100Y544000D02*
G03*
X296100Y544000I-1000J0D01*
G01*
X592250Y486250D02*
G03*
X592250Y486250I-1000J0D01*
G01*
X775000Y550500D02*
G03*
X775000Y550500I-50000J0D01*
G01*
X202750Y202850D02*
Y252850D01*
X220750Y202850D02*
Y252850D01*
X202750D02*
X220750D01*
X202750Y202850D02*
X220750D01*
X620000D02*
Y252850D01*
X638000Y202850D02*
Y252850D01*
X620000D02*
X638000D01*
X620000Y202850D02*
X638000D01*
X376800Y187900D02*
Y264100D01*
X402200Y187900D02*
Y264100D01*
X376800D02*
X402200D01*
X376800Y187900D02*
X402200D01*
X801300D02*
Y264100D01*
X826700Y187900D02*
Y264100D01*
X801300D02*
X826700D01*
X801300Y187900D02*
X826700D01*
X646250Y897750D02*
X653250D01*
X649750Y894250D02*
Y901250D01*
X108521Y885597D02*
X111521D01*
X108521Y876597D02*
X111521D01*
X108250Y860750D02*
X111250D01*
X108250Y869750D02*
X111250D01*
X105500Y827000D02*
X108500D01*
X105500Y836000D02*
X108500D01*
X105521Y820594D02*
X108521D01*
X105521Y811594D02*
X108521D01*
X175750Y566750D02*
Y569750D01*
X184750Y566750D02*
Y569750D01*
X191000Y566750D02*
Y569750D01*
X200000Y566750D02*
Y569750D01*
X233000Y566500D02*
Y569500D01*
X242000Y566500D02*
Y569500D01*
X359000Y378750D02*
Y381750D01*
X350000Y378750D02*
Y381750D01*
X262000Y567250D02*
Y570250D01*
X253000Y567250D02*
Y570250D01*
X277750Y596000D02*
Y599000D01*
X268750Y596000D02*
Y599000D01*
X294750Y600500D02*
X297750D01*
X294750Y609500D02*
X297750D01*
X211500Y396000D02*
X228000D01*
X245000D02*
X261500D01*
X245000Y507000D02*
X261500D01*
X211500D02*
X228000D01*
X261500Y396000D02*
Y507000D01*
X211500Y396000D02*
Y507000D01*
X140000Y546250D02*
X168000D01*
X140000Y540250D02*
Y546250D01*
X168000Y540250D02*
Y546250D01*
X219750Y706250D02*
X222750D01*
X219750Y697250D02*
X222750D01*
X190250Y697500D02*
X193250D01*
X190250Y706500D02*
X193250D01*
X209750Y678000D02*
Y681000D01*
X218750Y678000D02*
Y681000D01*
X223750Y678000D02*
Y681000D01*
X232750Y678000D02*
Y681000D01*
X194250Y678000D02*
Y681000D01*
X203250Y678000D02*
Y681000D01*
X180250Y678000D02*
Y681000D01*
X189250Y678000D02*
Y681000D01*
X28550Y425500D02*
X53950D01*
X28550D02*
Y552500D01*
X53950Y425500D02*
Y552500D01*
X28550D02*
X53950D01*
X114250Y645250D02*
X130750D01*
X80750D02*
X97250D01*
X80750Y534250D02*
X97250D01*
X114250D02*
X130750D01*
X80750D02*
Y645250D01*
X130750Y534250D02*
Y645250D01*
X165000Y678000D02*
Y681000D01*
X174000Y678000D02*
Y681000D01*
X93500Y756500D02*
X121500D01*
X93500Y750500D02*
Y756500D01*
X121500Y750500D02*
Y756500D01*
X666250Y547000D02*
Y554000D01*
X662750Y550500D02*
X669750D01*
X595500Y554000D02*
Y572000D01*
X545500Y554000D02*
Y572000D01*
X595500D01*
X545500Y554000D02*
X595500D01*
X501250Y740500D02*
X523750D01*
Y636500D02*
Y740500D01*
X501250Y636500D02*
X523750D01*
X102917Y499584D02*
Y504916D01*
X101584Y506249D01*
X98918D01*
X97585Y504916D01*
Y499584D01*
X98918Y498251D01*
X101584D01*
X100251Y500917D02*
X102917Y498251D01*
X101584D02*
X102917Y499584D01*
X110914Y498251D02*
X105583D01*
X110914Y503583D01*
Y504916D01*
X109582Y506249D01*
X106916D01*
X105583Y504916D01*
X386085Y269506D02*
X394082Y274837D01*
X386085D02*
X394082Y269506D01*
Y277503D02*
X386085D01*
Y281502D01*
X387418Y282835D01*
X390084D01*
X391416Y281502D01*
Y277503D01*
X394082Y285501D02*
Y288167D01*
Y286834D01*
X386085D01*
X387418Y285501D01*
X395415Y292165D02*
Y297497D01*
X394082Y305494D02*
Y300163D01*
X388751Y305494D01*
X387418D01*
X386085Y304161D01*
Y301495D01*
X387418Y300163D01*
X809835Y273089D02*
X817832Y278420D01*
X809835D02*
X817832Y273089D01*
Y281086D02*
X809835D01*
Y285085D01*
X811168Y286418D01*
X813833D01*
X815166Y285085D01*
Y281086D01*
X817832Y289083D02*
Y291749D01*
Y290417D01*
X809835D01*
X811168Y289083D01*
X819165Y295748D02*
Y301080D01*
X817832Y303745D02*
Y306411D01*
Y305078D01*
X809835D01*
X811168Y303745D01*
X15584Y484918D02*
X14251Y483586D01*
Y480920D01*
X15584Y479587D01*
X16917D01*
X18250Y480920D01*
Y483586D01*
X19583Y484918D01*
X20916D01*
X22249Y483586D01*
Y480920D01*
X20916Y479587D01*
X14251Y487584D02*
X22249D01*
X19583Y490250D01*
X22249Y492916D01*
X14251D01*
Y495582D02*
X22249D01*
Y499580D01*
X20916Y500913D01*
X15584D01*
X14251Y499580D01*
Y495582D01*
X381836Y486249D02*
Y479584D01*
X383168Y478251D01*
X385834D01*
X387167Y479584D01*
Y486249D01*
X389833Y484916D02*
X391166Y486249D01*
X393832D01*
X395164Y484916D01*
Y483583D01*
X393832Y482250D01*
X395164Y480917D01*
Y479584D01*
X393832Y478251D01*
X391166D01*
X389833Y479584D01*
Y480917D01*
X391166Y482250D01*
X389833Y483583D01*
Y484916D01*
X391166Y482250D02*
X393832D01*
X691168Y426999D02*
Y420334D01*
X692501Y419001D01*
X695167D01*
X696500Y420334D01*
Y426999D01*
X699166Y419001D02*
X701832D01*
X700499D01*
Y426999D01*
X699166Y425666D01*
X542587Y500001D02*
Y507999D01*
X546586D01*
X547918Y506666D01*
Y504000D01*
X546586Y502667D01*
X542587D01*
X545253D02*
X547918Y500001D01*
X554583D02*
Y507999D01*
X550584Y504000D01*
X555916D01*
X558582Y501334D02*
X559915Y500001D01*
X562580D01*
X563913Y501334D01*
Y506666D01*
X562580Y507999D01*
X559915D01*
X558582Y506666D01*
Y505333D01*
X559915Y504000D01*
X563913D01*
X541587Y414001D02*
Y421999D01*
X545586D01*
X546918Y420666D01*
Y418000D01*
X545586Y416667D01*
X541587D01*
X544253D02*
X546918Y414001D01*
X553583D02*
Y421999D01*
X549584Y418000D01*
X554916D01*
X557582Y420666D02*
X558914Y421999D01*
X561580D01*
X562913Y420666D01*
Y419333D01*
X561580Y418000D01*
X562913Y416667D01*
Y415334D01*
X561580Y414001D01*
X558914D01*
X557582Y415334D01*
Y416667D01*
X558914Y418000D01*
X557582Y419333D01*
Y420666D01*
X558914Y418000D02*
X561580D01*
X541999Y451837D02*
X534001D01*
Y455835D01*
X535334Y457168D01*
X538000D01*
X539333Y455835D01*
Y451837D01*
Y454503D02*
X541999Y457168D01*
Y463833D02*
X534001D01*
X538000Y459834D01*
Y465166D01*
X534001Y467832D02*
Y473163D01*
X535334D01*
X540666Y467832D01*
X541999D01*
X382749Y593337D02*
X374751D01*
Y597336D01*
X376084Y598668D01*
X378750D01*
X380083Y597336D01*
Y593337D01*
Y596003D02*
X382749Y598668D01*
Y605333D02*
X374751D01*
X378750Y601334D01*
Y606666D01*
X376084Y609332D02*
X374751Y610664D01*
Y613330D01*
X376084Y614663D01*
X377417D01*
X378750Y613330D01*
Y611997D01*
Y613330D01*
X380083Y614663D01*
X381416D01*
X382749Y613330D01*
Y610664D01*
X381416Y609332D01*
X70087Y878751D02*
Y886749D01*
X74085D01*
X75418Y885416D01*
Y882750D01*
X74085Y881417D01*
X70087D01*
X72753D02*
X75418Y878751D01*
X83416D02*
X78084D01*
X83416Y884083D01*
Y885416D01*
X82083Y886749D01*
X79417D01*
X78084Y885416D01*
X91413Y886749D02*
X86082D01*
Y882750D01*
X88747Y884083D01*
X90080D01*
X91413Y882750D01*
Y880084D01*
X90080Y878751D01*
X87415D01*
X86082Y880084D01*
X95837Y797751D02*
Y805749D01*
X99836D01*
X101168Y804416D01*
Y801750D01*
X99836Y800417D01*
X95837D01*
X98503D02*
X101168Y797751D01*
X109166D02*
X103834D01*
X109166Y803083D01*
Y804416D01*
X107833Y805749D01*
X105167D01*
X103834Y804416D01*
X115830Y797751D02*
Y805749D01*
X111832Y801750D01*
X117163D01*
X168832Y253589D02*
X160835D01*
Y257588D01*
X162168Y258921D01*
X164834D01*
X166166Y257588D01*
Y253589D01*
Y256255D02*
X168832Y258921D01*
Y266918D02*
Y261587D01*
X163501Y266918D01*
X162168D01*
X160835Y265585D01*
Y262920D01*
X162168Y261587D01*
Y269584D02*
X160835Y270917D01*
Y273583D01*
X162168Y274916D01*
X163501D01*
X164834Y273583D01*
Y272250D01*
Y273583D01*
X166166Y274916D01*
X167499D01*
X168832Y273583D01*
Y270917D01*
X167499Y269584D01*
X170165Y277582D02*
Y282913D01*
X168832Y290911D02*
Y285579D01*
X163501Y290911D01*
X162168D01*
X160835Y289578D01*
Y286912D01*
X162168Y285579D01*
X586582Y258422D02*
X578585D01*
Y262421D01*
X579918Y263754D01*
X582584D01*
X583916Y262421D01*
Y258422D01*
Y261088D02*
X586582Y263754D01*
Y271751D02*
Y266420D01*
X581251Y271751D01*
X579918D01*
X578585Y270418D01*
Y267753D01*
X579918Y266420D01*
Y274417D02*
X578585Y275750D01*
Y278416D01*
X579918Y279749D01*
X581251D01*
X582584Y278416D01*
Y277083D01*
Y278416D01*
X583916Y279749D01*
X585249D01*
X586582Y278416D01*
Y275750D01*
X585249Y274417D01*
X587915Y282414D02*
Y287746D01*
X586582Y290412D02*
Y293078D01*
Y291745D01*
X578585D01*
X579918Y290412D01*
X253089Y260168D02*
Y268165D01*
X257088D01*
X258421Y266832D01*
Y264167D01*
X257088Y262834D01*
X253089D01*
X255755D02*
X258421Y260168D01*
X266418D02*
X261087D01*
X266418Y265499D01*
Y266832D01*
X265086Y268165D01*
X262420D01*
X261087Y266832D01*
X274416Y260168D02*
X269084D01*
X274416Y265499D01*
Y266832D01*
X273083Y268165D01*
X270417D01*
X269084Y266832D01*
X277082Y258835D02*
X282413D01*
X290411Y260168D02*
X285079D01*
X290411Y265499D01*
Y266832D01*
X289078Y268165D01*
X286412D01*
X285079Y266832D01*
X674672Y261918D02*
Y269915D01*
X678671D01*
X680004Y268582D01*
Y265917D01*
X678671Y264583D01*
X674672D01*
X677338D02*
X680004Y261918D01*
X688001D02*
X682670D01*
X688001Y267249D01*
Y268582D01*
X686668Y269915D01*
X684003D01*
X682670Y268582D01*
X695999Y261918D02*
X690667D01*
X695999Y267249D01*
Y268582D01*
X694666Y269915D01*
X692000D01*
X690667Y268582D01*
X698664Y260585D02*
X703996D01*
X706662Y261918D02*
X709328D01*
X707995D01*
Y269915D01*
X706662Y268582D01*
X71920Y827751D02*
Y835749D01*
X75918D01*
X77251Y834416D01*
Y831750D01*
X75918Y830417D01*
X71920D01*
X74585D02*
X77251Y827751D01*
X85249D02*
X79917D01*
X85249Y833083D01*
Y834416D01*
X83916Y835749D01*
X81250D01*
X79917Y834416D01*
X87914Y827751D02*
X90580D01*
X89247D01*
Y835749D01*
X87914Y834416D01*
X300499Y572587D02*
X292501D01*
Y576586D01*
X293834Y577918D01*
X296500D01*
X297833Y576586D01*
Y572587D01*
Y575253D02*
X300499Y577918D01*
Y585916D02*
Y580584D01*
X295167Y585916D01*
X293834D01*
X292501Y584583D01*
Y581917D01*
X293834Y580584D01*
Y588582D02*
X292501Y589915D01*
Y592580D01*
X293834Y593913D01*
X299166D01*
X300499Y592580D01*
Y589915D01*
X299166Y588582D01*
X293834D01*
X70503Y862001D02*
Y869999D01*
X74502D01*
X75835Y868666D01*
Y866000D01*
X74502Y864667D01*
X70503D01*
X73169D02*
X75835Y862001D01*
X78501D02*
X81166D01*
X79833D01*
Y869999D01*
X78501Y868666D01*
X85165Y863334D02*
X86498Y862001D01*
X89164D01*
X90497Y863334D01*
Y868666D01*
X89164Y869999D01*
X86498D01*
X85165Y868666D01*
Y867333D01*
X86498Y866000D01*
X90497D01*
X254749Y670335D02*
X246751D01*
Y674334D01*
X248084Y675667D01*
X250750D01*
X252083Y674334D01*
Y670335D01*
Y673001D02*
X254749Y675667D01*
Y678333D02*
Y680999D01*
Y679666D01*
X246751D01*
X248084Y678333D01*
Y684997D02*
X246751Y686330D01*
Y688996D01*
X248084Y690329D01*
X249417D01*
X250750Y688996D01*
X252083Y690329D01*
X253416D01*
X254749Y688996D01*
Y686330D01*
X253416Y684997D01*
X252083D01*
X250750Y686330D01*
X249417Y684997D01*
X248084D01*
X250750Y686330D02*
Y688996D01*
X365503Y377001D02*
Y384999D01*
X369502D01*
X370835Y383666D01*
Y381000D01*
X369502Y379667D01*
X365503D01*
X368169D02*
X370835Y377001D01*
X373501D02*
X376166D01*
X374834D01*
Y384999D01*
X373501Y383666D01*
X380165Y384999D02*
X385497D01*
Y383666D01*
X380165Y378334D01*
Y377001D01*
X241249Y529003D02*
X233251D01*
Y533002D01*
X234584Y534335D01*
X237250D01*
X238583Y533002D01*
Y529003D01*
Y531669D02*
X241249Y534335D01*
Y537001D02*
Y539666D01*
Y538334D01*
X233251D01*
X234584Y537001D01*
X233251Y548997D02*
X234584Y546331D01*
X237250Y543665D01*
X239916D01*
X241249Y544998D01*
Y547664D01*
X239916Y548997D01*
X238583D01*
X237250Y547664D01*
Y543665D01*
X183999Y529503D02*
X176001D01*
Y533502D01*
X177334Y534835D01*
X180000D01*
X181333Y533502D01*
Y529503D01*
Y532169D02*
X183999Y534835D01*
Y537501D02*
Y540167D01*
Y538834D01*
X176001D01*
X177334Y537501D01*
X176001Y549497D02*
Y544165D01*
X180000D01*
X178667Y546831D01*
Y548164D01*
X180000Y549497D01*
X182666D01*
X183999Y548164D01*
Y545498D01*
X182666Y544165D01*
X199249Y529503D02*
X191251D01*
Y533502D01*
X192584Y534835D01*
X195250D01*
X196583Y533502D01*
Y529503D01*
Y532169D02*
X199249Y534835D01*
Y537501D02*
Y540166D01*
Y538834D01*
X191251D01*
X192584Y537501D01*
X199249Y548164D02*
X191251D01*
X195250Y544165D01*
Y549497D01*
X261499Y522503D02*
X253501D01*
Y526502D01*
X254834Y527835D01*
X257500D01*
X258833Y526502D01*
Y522503D01*
Y525169D02*
X261499Y527835D01*
Y530501D02*
Y533167D01*
Y531834D01*
X253501D01*
X254834Y530501D01*
Y537165D02*
X253501Y538498D01*
Y541164D01*
X254834Y542497D01*
X256167D01*
X257500Y541164D01*
Y539831D01*
Y541164D01*
X258833Y542497D01*
X260166D01*
X261499Y541164D01*
Y538498D01*
X260166Y537165D01*
X276499Y559753D02*
X268501D01*
Y563752D01*
X269834Y565085D01*
X272500D01*
X273833Y563752D01*
Y559753D01*
Y562419D02*
X276499Y565085D01*
Y567751D02*
Y570416D01*
Y569084D01*
X268501D01*
X269834Y567751D01*
X276499Y579747D02*
Y574415D01*
X271167Y579747D01*
X269834D01*
X268501Y578414D01*
Y575748D01*
X269834Y574415D01*
X297172Y211668D02*
Y219665D01*
X301171D01*
X302504Y218332D01*
Y215667D01*
X301171Y214334D01*
X297172D01*
X299838D02*
X302504Y211668D01*
X305170D02*
X307836D01*
X306503D01*
Y219665D01*
X305170Y218332D01*
X311834Y211668D02*
X314500D01*
X313167D01*
Y219665D01*
X311834Y218332D01*
X318499Y210335D02*
X323830D01*
X331828Y211668D02*
X326496D01*
X331828Y216999D01*
Y218332D01*
X330495Y219665D01*
X327829D01*
X326496Y218332D01*
X718005Y212918D02*
Y220915D01*
X722004D01*
X723337Y219582D01*
Y216917D01*
X722004Y215584D01*
X718005D01*
X720671D02*
X723337Y212918D01*
X726003D02*
X728668D01*
X727336D01*
Y220915D01*
X726003Y219582D01*
X732667Y212918D02*
X735333D01*
X734000D01*
Y220915D01*
X732667Y219582D01*
X739332Y211585D02*
X744663D01*
X747329Y212918D02*
X749995D01*
X748662D01*
Y220915D01*
X747329Y219582D01*
X297006Y230918D02*
Y238915D01*
X301005D01*
X302337Y237582D01*
Y234916D01*
X301005Y233584D01*
X297006D01*
X299672D02*
X302337Y230918D01*
X305003D02*
X307669D01*
X306336D01*
Y238915D01*
X305003Y237582D01*
X311668D02*
X313001Y238915D01*
X315667D01*
X316999Y237582D01*
Y232251D01*
X315667Y230918D01*
X313001D01*
X311668Y232251D01*
Y237582D01*
X319665Y229585D02*
X324997D01*
X332994Y230918D02*
X327663D01*
X332994Y236249D01*
Y237582D01*
X331661Y238915D01*
X328996D01*
X327663Y237582D01*
X716839Y230918D02*
Y238915D01*
X720837D01*
X722170Y237582D01*
Y234916D01*
X720837Y233584D01*
X716839D01*
X719504D02*
X722170Y230918D01*
X724836D02*
X727502D01*
X726169D01*
Y238915D01*
X724836Y237582D01*
X731501D02*
X732834Y238915D01*
X735499D01*
X736832Y237582D01*
Y232251D01*
X735499Y230918D01*
X732834D01*
X731501Y232251D01*
Y237582D01*
X739498Y229585D02*
X744830D01*
X747495Y230918D02*
X750161D01*
X748828D01*
Y238915D01*
X747495Y237582D01*
X318999Y670335D02*
X311001D01*
Y674334D01*
X312334Y675667D01*
X315000D01*
X316333Y674334D01*
Y670335D01*
Y673001D02*
X318999Y675667D01*
X311001Y683664D02*
X312334Y680999D01*
X315000Y678333D01*
X317666D01*
X318999Y679666D01*
Y682332D01*
X317666Y683664D01*
X316333D01*
X315000Y682332D01*
Y678333D01*
X627999Y550085D02*
X620001D01*
Y554084D01*
X621334Y555417D01*
X624000D01*
X625333Y554084D01*
Y550085D01*
Y552751D02*
X627999Y555417D01*
X620001Y563414D02*
Y558083D01*
X624000D01*
X622667Y560749D01*
Y562082D01*
X624000Y563414D01*
X626666D01*
X627999Y562082D01*
Y559416D01*
X626666Y558083D01*
X340499Y670335D02*
X332501D01*
Y674334D01*
X333834Y675667D01*
X336500D01*
X337833Y674334D01*
Y670335D01*
Y673001D02*
X340499Y675667D01*
Y682332D02*
X332501D01*
X336500Y678333D01*
Y683664D01*
X275749Y670335D02*
X267751D01*
Y674334D01*
X269084Y675667D01*
X271750D01*
X273083Y674334D01*
Y670335D01*
Y673001D02*
X275749Y675667D01*
X269084Y678333D02*
X267751Y679666D01*
Y682332D01*
X269084Y683664D01*
X270417D01*
X271750Y682332D01*
Y680999D01*
Y682332D01*
X273083Y683664D01*
X274416D01*
X275749Y682332D01*
Y679666D01*
X274416Y678333D01*
X296749Y670335D02*
X288751D01*
Y674334D01*
X290084Y675667D01*
X292750D01*
X294083Y674334D01*
Y670335D01*
Y673001D02*
X296749Y675667D01*
Y683664D02*
Y678333D01*
X291417Y683664D01*
X290084D01*
X288751Y682332D01*
Y679666D01*
X290084Y678333D01*
X627749Y585418D02*
X619751D01*
Y589417D01*
X621084Y590750D01*
X623750D01*
X625083Y589417D01*
Y585418D01*
Y588084D02*
X627749Y590750D01*
Y593416D02*
Y596082D01*
Y594749D01*
X619751D01*
X621084Y593416D01*
X236000Y450584D02*
Y455916D01*
X234667Y457249D01*
X232001D01*
X230668Y455916D01*
Y450584D01*
X232001Y449251D01*
X234667D01*
X233334Y451917D02*
X236000Y449251D01*
X234667D02*
X236000Y450584D01*
X238666Y449251D02*
X241332D01*
X239999D01*
Y457249D01*
X238666Y455916D01*
X651254Y771011D02*
Y763014D01*
X656586D01*
X659251D02*
X661917D01*
X660584D01*
Y771011D01*
X659251Y769678D01*
X285666Y747999D02*
X283000D01*
X284333D01*
Y741334D01*
X283000Y740001D01*
X281667D01*
X280334Y741334D01*
X101920Y29415D02*
X99254D01*
X100587D01*
Y22751D01*
X99254Y21418D01*
X97921D01*
X96588Y22751D01*
X109917Y29415D02*
X104586D01*
Y25417D01*
X107251Y26749D01*
X108584D01*
X109917Y25417D01*
Y22751D01*
X108584Y21418D01*
X105918D01*
X104586Y22751D01*
X112583Y20085D02*
X117914D01*
X125912Y21418D02*
X120580D01*
X125912Y26749D01*
Y28082D01*
X124579Y29415D01*
X121913D01*
X120580Y28082D01*
X514503Y30415D02*
X511837D01*
X513170D01*
Y23751D01*
X511837Y22418D01*
X510504D01*
X509171Y23751D01*
X522500Y30415D02*
X517168D01*
Y26416D01*
X519834Y27749D01*
X521167D01*
X522500Y26416D01*
Y23751D01*
X521167Y22418D01*
X518501D01*
X517168Y23751D01*
X525166Y21085D02*
X530497D01*
X533163Y22418D02*
X535829D01*
X534496D01*
Y30415D01*
X533163Y29082D01*
X304670Y32665D02*
X302004D01*
X303337D01*
Y26001D01*
X302004Y24668D01*
X300671D01*
X299338Y26001D01*
X311334Y24668D02*
Y32665D01*
X307335Y28667D01*
X312667D01*
X315333Y23335D02*
X320664D01*
X328662Y24668D02*
X323330D01*
X328662Y29999D01*
Y31332D01*
X327329Y32665D01*
X324663D01*
X323330Y31332D01*
X721253Y30415D02*
X718587D01*
X719920D01*
Y23751D01*
X718587Y22418D01*
X717254D01*
X715921Y23751D01*
X727917Y22418D02*
Y30415D01*
X723918Y26416D01*
X729250D01*
X731916Y21085D02*
X737247D01*
X739913Y22418D02*
X742579D01*
X741246D01*
Y30415D01*
X739913Y29082D01*
X392667Y854499D02*
X390001D01*
X391334D01*
Y847834D01*
X390001Y846501D01*
X388668D01*
X387336Y847834D01*
X400664Y846501D02*
X395333D01*
X400664Y851833D01*
Y853166D01*
X399332Y854499D01*
X396666D01*
X395333Y853166D01*
X81924Y306915D02*
X84589D01*
X83257D01*
Y298918D01*
X81924D01*
X84589D01*
X93920Y305582D02*
X92587Y306915D01*
X89921D01*
X88588Y305582D01*
Y304249D01*
X89921Y302917D01*
X92587D01*
X93920Y301583D01*
Y300251D01*
X92587Y298918D01*
X89921D01*
X88588Y300251D01*
X100584Y306915D02*
X97918D01*
X96586Y305582D01*
Y300251D01*
X97918Y298918D01*
X100584D01*
X101917Y300251D01*
Y305582D01*
X100584Y306915D01*
X104583Y298918D02*
X107249D01*
X105916D01*
Y306915D01*
X104583Y305582D01*
X111248Y297585D02*
X116579D01*
X124577Y298918D02*
X119245D01*
X124577Y304249D01*
Y305582D01*
X123244Y306915D01*
X120578D01*
X119245Y305582D01*
X502257Y307915D02*
X504922D01*
X503589D01*
Y299918D01*
X502257D01*
X504922D01*
X514253Y306582D02*
X512920Y307915D01*
X510254D01*
X508921Y306582D01*
Y305249D01*
X510254Y303916D01*
X512920D01*
X514253Y302584D01*
Y301251D01*
X512920Y299918D01*
X510254D01*
X508921Y301251D01*
X520917Y307915D02*
X518251D01*
X516918Y306582D01*
Y301251D01*
X518251Y299918D01*
X520917D01*
X522250Y301251D01*
Y306582D01*
X520917Y307915D01*
X524916Y299918D02*
X527582D01*
X526249D01*
Y307915D01*
X524916Y306582D01*
X531580Y298585D02*
X536912D01*
X539578Y299918D02*
X542244D01*
X540911D01*
Y307915D01*
X539578Y306582D01*
X542542Y616071D02*
X545208D01*
X543875D01*
Y608074D01*
X542542D01*
X545208D01*
X554538Y614739D02*
X553205Y616071D01*
X550539D01*
X549207Y614739D01*
Y609407D01*
X550539Y608074D01*
X553205D01*
X554538Y609407D01*
X557204Y608074D02*
X559870D01*
X558537D01*
Y616071D01*
X557204Y614739D01*
X171415Y222161D02*
X163418D01*
Y218162D01*
X164751Y216829D01*
X170082D01*
X171415Y218162D01*
Y222161D01*
Y214163D02*
X163418D01*
Y210165D01*
X164751Y208832D01*
X170082D01*
X171415Y210165D01*
Y214163D01*
X170082Y206166D02*
X171415Y204833D01*
Y202167D01*
X170082Y200834D01*
X168749D01*
X167416Y202167D01*
Y203500D01*
Y202167D01*
X166084Y200834D01*
X164751D01*
X163418Y202167D01*
Y204833D01*
X164751Y206166D01*
X162085Y198168D02*
Y192837D01*
X163418Y184839D02*
Y190171D01*
X168749Y184839D01*
X170082D01*
X171415Y186172D01*
Y188838D01*
X170082Y190171D01*
X588415Y225828D02*
X580418D01*
Y221829D01*
X581751Y220496D01*
X587082D01*
X588415Y221829D01*
Y225828D01*
Y217830D02*
X580418D01*
Y213832D01*
X581751Y212499D01*
X587082D01*
X588415Y213832D01*
Y217830D01*
X587082Y209833D02*
X588415Y208500D01*
Y205834D01*
X587082Y204501D01*
X585749D01*
X584417Y205834D01*
Y207167D01*
Y205834D01*
X583083Y204501D01*
X581751D01*
X580418Y205834D01*
Y208500D01*
X581751Y209833D01*
X579085Y201835D02*
Y196504D01*
X580418Y193838D02*
Y191172D01*
Y192505D01*
X588415D01*
X587082Y193838D01*
X413256Y759073D02*
Y751076D01*
X417255D01*
X418588Y752409D01*
Y757740D01*
X417255Y759073D01*
X413256D01*
X421253D02*
Y751076D01*
X425252D01*
X426585Y752409D01*
Y757740D01*
X425252Y759073D01*
X421253D01*
X429251Y751076D02*
X431917D01*
X430584D01*
Y759073D01*
X429251Y757740D01*
X462251Y828503D02*
X470249D01*
Y832502D01*
X468916Y833835D01*
X463584D01*
X462251Y832502D01*
Y828503D01*
X470249Y836501D02*
Y839166D01*
Y837834D01*
X462251D01*
X463584Y836501D01*
X462251Y848497D02*
Y843165D01*
X466250D01*
X464917Y845831D01*
Y847164D01*
X466250Y848497D01*
X468916D01*
X470249Y847164D01*
Y844498D01*
X468916Y843165D01*
X621751Y449336D02*
X629749D01*
Y453335D01*
X628416Y454668D01*
X623084D01*
X621751Y453335D01*
Y449336D01*
X629749Y457334D02*
Y459999D01*
Y458666D01*
X621751D01*
X623084Y457334D01*
X629749Y463998D02*
Y466664D01*
Y465331D01*
X621751D01*
X623084Y463998D01*
X578864Y760089D02*
Y752092D01*
X582863D01*
X584196Y753425D01*
Y758756D01*
X582863Y760089D01*
X578864D01*
X592193Y752092D02*
X586861D01*
X592193Y757424D01*
Y758756D01*
X590860Y760089D01*
X588194D01*
X586861Y758756D01*
X181100Y365373D02*
Y357376D01*
X185099D01*
X186432Y358709D01*
Y364040D01*
X185099Y365373D01*
X181100D01*
X189097Y357376D02*
X191763D01*
X190430D01*
Y365373D01*
X189097Y364040D01*
X195762Y356043D02*
X201094D01*
X209091Y357376D02*
X203759D01*
X209091Y362708D01*
Y364040D01*
X207758Y365373D01*
X205092D01*
X203759Y364040D01*
X603502Y365373D02*
Y357376D01*
X607501D01*
X608834Y358709D01*
Y364040D01*
X607501Y365373D01*
X603502D01*
X611499Y357376D02*
X614165D01*
X612832D01*
Y365373D01*
X611499Y364040D01*
X618164Y356043D02*
X623496D01*
X626161Y357376D02*
X628827D01*
X627494D01*
Y365373D01*
X626161Y364040D01*
X63334Y578918D02*
X62001Y577585D01*
Y574920D01*
X63334Y573587D01*
X68666D01*
X69999Y574920D01*
Y577585D01*
X68666Y578918D01*
X63334Y581584D02*
X62001Y582917D01*
Y585583D01*
X63334Y586916D01*
X64667D01*
X66000Y585583D01*
Y584250D01*
Y585583D01*
X67333Y586916D01*
X68666D01*
X69999Y585583D01*
Y582917D01*
X68666Y581584D01*
X69999Y594913D02*
Y589582D01*
X64667Y594913D01*
X63334D01*
X62001Y593580D01*
Y590914D01*
X63334Y589582D01*
X64084Y660751D02*
X62751Y659418D01*
Y656753D01*
X64084Y655420D01*
X69416D01*
X70749Y656753D01*
Y659418D01*
X69416Y660751D01*
X64084Y663417D02*
X62751Y664750D01*
Y667416D01*
X64084Y668749D01*
X65417D01*
X66750Y667416D01*
Y666083D01*
Y667416D01*
X68083Y668749D01*
X69416D01*
X70749Y667416D01*
Y664750D01*
X69416Y663417D01*
X70749Y671414D02*
Y674080D01*
Y672747D01*
X62751D01*
X64084Y671414D01*
X131334Y483418D02*
X130001Y482085D01*
Y479420D01*
X131334Y478087D01*
X136666D01*
X137999Y479420D01*
Y482085D01*
X136666Y483418D01*
X131334Y486084D02*
X130001Y487417D01*
Y490083D01*
X131334Y491416D01*
X132667D01*
X134000Y490083D01*
Y488750D01*
Y490083D01*
X135333Y491416D01*
X136666D01*
X137999Y490083D01*
Y487417D01*
X136666Y486084D01*
X131334Y494082D02*
X130001Y495415D01*
Y498080D01*
X131334Y499413D01*
X136666D01*
X137999Y498080D01*
Y495415D01*
X136666Y494082D01*
X131334D01*
X209334Y530168D02*
X208001Y528835D01*
Y526170D01*
X209334Y524837D01*
X214666D01*
X215999Y526170D01*
Y528835D01*
X214666Y530168D01*
X215999Y538166D02*
Y532834D01*
X210667Y538166D01*
X209334D01*
X208001Y536833D01*
Y534167D01*
X209334Y532834D01*
X208001Y540832D02*
Y546163D01*
X209334D01*
X214666Y540832D01*
X215999D01*
X568956Y835719D02*
X567623Y837051D01*
X564957D01*
X563624Y835719D01*
Y830387D01*
X564957Y829054D01*
X567623D01*
X568956Y830387D01*
X576953Y829054D02*
X571621D01*
X576953Y834386D01*
Y835719D01*
X575620Y837051D01*
X572954D01*
X571621Y835719D01*
X584950Y837051D02*
X582285Y835719D01*
X579619Y833053D01*
Y830387D01*
X580952Y829054D01*
X583618D01*
X584950Y830387D01*
Y831720D01*
X583618Y833053D01*
X579619D01*
X797166Y469832D02*
X798499Y471165D01*
Y473830D01*
X797166Y475163D01*
X791834D01*
X790501Y473830D01*
Y471165D01*
X791834Y469832D01*
X790501Y461834D02*
Y467166D01*
X795833Y461834D01*
X797166D01*
X798499Y463167D01*
Y465833D01*
X797166Y467166D01*
X798499Y453837D02*
Y459168D01*
X794500D01*
X795833Y456503D01*
Y455170D01*
X794500Y453837D01*
X791834D01*
X790501Y455170D01*
Y457836D01*
X791834Y459168D01*
X266168Y649916D02*
X264835Y651249D01*
X262170D01*
X260837Y649916D01*
Y644584D01*
X262170Y643251D01*
X264835D01*
X266168Y644584D01*
X274166Y643251D02*
X268834D01*
X274166Y648583D01*
Y649916D01*
X272833Y651249D01*
X270167D01*
X268834Y649916D01*
X276832D02*
X278165Y651249D01*
X280830D01*
X282163Y649916D01*
Y648583D01*
X280830Y647250D01*
X279497D01*
X280830D01*
X282163Y645917D01*
Y644584D01*
X280830Y643251D01*
X278165D01*
X276832Y644584D01*
X432084Y319668D02*
X430751Y318335D01*
Y315670D01*
X432084Y314337D01*
X437416D01*
X438749Y315670D01*
Y318335D01*
X437416Y319668D01*
X438749Y327666D02*
Y322334D01*
X433417Y327666D01*
X432084D01*
X430751Y326333D01*
Y323667D01*
X432084Y322334D01*
X438749Y335663D02*
Y330332D01*
X433417Y335663D01*
X432084D01*
X430751Y334330D01*
Y331665D01*
X432084Y330332D01*
X321501Y700666D02*
X320168Y701999D01*
X317503D01*
X316170Y700666D01*
Y695334D01*
X317503Y694001D01*
X320168D01*
X321501Y695334D01*
X329499Y694001D02*
X324167D01*
X329499Y699333D01*
Y700666D01*
X328166Y701999D01*
X325500D01*
X324167Y700666D01*
X332164Y694001D02*
X334830D01*
X333498D01*
Y701999D01*
X332164Y700666D01*
X276668Y700916D02*
X275336Y702249D01*
X272670D01*
X271337Y700916D01*
Y695584D01*
X272670Y694251D01*
X275336D01*
X276668Y695584D01*
X284666Y694251D02*
X279334D01*
X284666Y699583D01*
Y700916D01*
X283333Y702249D01*
X280667D01*
X279334Y700916D01*
X287332D02*
X288664Y702249D01*
X291330D01*
X292663Y700916D01*
Y695584D01*
X291330Y694251D01*
X288664D01*
X287332Y695584D01*
Y700916D01*
X103084Y703335D02*
X101751Y702002D01*
Y699336D01*
X103084Y698003D01*
X108416D01*
X109749Y699336D01*
Y702002D01*
X108416Y703335D01*
X109749Y706001D02*
Y708667D01*
Y707334D01*
X101751D01*
X103084Y706001D01*
X108416Y712665D02*
X109749Y713998D01*
Y716664D01*
X108416Y717997D01*
X103084D01*
X101751Y716664D01*
Y713998D01*
X103084Y712665D01*
X104417D01*
X105750Y713998D01*
Y717997D01*
X316085Y368916D02*
X314752Y370249D01*
X312086D01*
X310753Y368916D01*
Y363584D01*
X312086Y362251D01*
X314752D01*
X316085Y363584D01*
X318751Y362251D02*
X321417D01*
X320084D01*
Y370249D01*
X318751Y368916D01*
X325415D02*
X326748Y370249D01*
X329414D01*
X330747Y368916D01*
Y367583D01*
X329414Y366250D01*
X330747Y364917D01*
Y363584D01*
X329414Y362251D01*
X326748D01*
X325415Y363584D01*
Y364917D01*
X326748Y366250D01*
X325415Y367583D01*
Y368916D01*
X326748Y366250D02*
X329414D01*
X451334Y321085D02*
X450001Y319752D01*
Y317086D01*
X451334Y315753D01*
X456666D01*
X457999Y317086D01*
Y319752D01*
X456666Y321085D01*
X457999Y323751D02*
Y326416D01*
Y325084D01*
X450001D01*
X451334Y323751D01*
X450001Y330415D02*
Y335747D01*
X451334D01*
X456666Y330415D01*
X457999D01*
X511585Y613166D02*
X510252Y614499D01*
X507586D01*
X506253Y613166D01*
Y607834D01*
X507586Y606501D01*
X510252D01*
X511585Y607834D01*
X514251Y606501D02*
X516916D01*
X515584D01*
Y614499D01*
X514251Y613166D01*
X526247Y614499D02*
X523581Y613166D01*
X520915Y610500D01*
Y607834D01*
X522248Y606501D01*
X524914D01*
X526247Y607834D01*
Y609167D01*
X524914Y610500D01*
X520915D01*
X277584Y396585D02*
X276251Y395252D01*
Y392586D01*
X277584Y391253D01*
X282916D01*
X284249Y392586D01*
Y395252D01*
X282916Y396585D01*
X284249Y399251D02*
Y401917D01*
Y400584D01*
X276251D01*
X277584Y399251D01*
X276251Y411247D02*
Y405915D01*
X280250D01*
X278917Y408581D01*
Y409914D01*
X280250Y411247D01*
X282916D01*
X284249Y409914D01*
Y407248D01*
X282916Y405915D01*
X189335Y442416D02*
X188002Y443749D01*
X185336D01*
X184003Y442416D01*
Y437084D01*
X185336Y435751D01*
X188002D01*
X189335Y437084D01*
X192001Y435751D02*
X194666D01*
X193333D01*
Y443749D01*
X192001Y442416D01*
X202664Y435751D02*
Y443749D01*
X198665Y439750D01*
X203997D01*
X277584Y497335D02*
X276251Y496002D01*
Y493336D01*
X277584Y492003D01*
X282916D01*
X284249Y493336D01*
Y496002D01*
X282916Y497335D01*
X284249Y500001D02*
Y502667D01*
Y501334D01*
X276251D01*
X277584Y500001D01*
X284249Y511997D02*
Y506665D01*
X278917Y511997D01*
X277584D01*
X276251Y510664D01*
Y507998D01*
X277584Y506665D01*
X190335Y455666D02*
X189002Y456999D01*
X186336D01*
X185003Y455666D01*
Y450334D01*
X186336Y449001D01*
X189002D01*
X190335Y450334D01*
X193001Y449001D02*
X195666D01*
X194333D01*
Y456999D01*
X193001Y455666D01*
X199665D02*
X200998Y456999D01*
X203664D01*
X204997Y455666D01*
Y450334D01*
X203664Y449001D01*
X200998D01*
X199665Y450334D01*
Y455666D01*
X517834Y539917D02*
X516501Y538584D01*
Y535918D01*
X517834Y534585D01*
X523166D01*
X524499Y535918D01*
Y538584D01*
X523166Y539917D01*
Y542583D02*
X524499Y543916D01*
Y546582D01*
X523166Y547915D01*
X517834D01*
X516501Y546582D01*
Y543916D01*
X517834Y542583D01*
X519167D01*
X520500Y543916D01*
Y547915D01*
X466086Y604324D02*
X464753Y605657D01*
X462087D01*
X460754Y604324D01*
Y598993D01*
X462087Y597660D01*
X464753D01*
X466086Y598993D01*
X468751Y604324D02*
X470084Y605657D01*
X472750D01*
X474083Y604324D01*
Y602992D01*
X472750Y601659D01*
X474083Y600326D01*
Y598993D01*
X472750Y597660D01*
X470084D01*
X468751Y598993D01*
Y600326D01*
X470084Y601659D01*
X468751Y602992D01*
Y604324D01*
X470084Y601659D02*
X472750D01*
X329417Y613666D02*
X328084Y614999D01*
X325418D01*
X324086Y613666D01*
Y608334D01*
X325418Y607001D01*
X328084D01*
X329417Y608334D01*
X332083Y614999D02*
X337415D01*
Y613666D01*
X332083Y608334D01*
Y607001D01*
X202170Y173332D02*
X200837Y174665D01*
X198171D01*
X196838Y173332D01*
Y168001D01*
X198171Y166668D01*
X200837D01*
X202170Y168001D01*
X210167Y174665D02*
X207501Y173332D01*
X204835Y170667D01*
Y168001D01*
X206168Y166668D01*
X208834D01*
X210167Y168001D01*
Y169333D01*
X208834Y170667D01*
X204835D01*
X212833Y165335D02*
X218165D01*
X226162Y166668D02*
X220830D01*
X226162Y171999D01*
Y173332D01*
X224829Y174665D01*
X222163D01*
X220830Y173332D01*
X619753Y172832D02*
X618420Y174165D01*
X615754D01*
X614421Y172832D01*
Y167501D01*
X615754Y166168D01*
X618420D01*
X619753Y167501D01*
X627750Y174165D02*
X625084Y172832D01*
X622418Y170166D01*
Y167501D01*
X623751Y166168D01*
X626417D01*
X627750Y167501D01*
Y168834D01*
X626417Y170166D01*
X622418D01*
X630416Y164835D02*
X635747D01*
X638413Y166168D02*
X641079D01*
X639746D01*
Y174165D01*
X638413Y172832D01*
X129920Y199582D02*
X128587Y200915D01*
X125921D01*
X124588Y199582D01*
Y194251D01*
X125921Y192918D01*
X128587D01*
X129920Y194251D01*
X137917Y200915D02*
X132585D01*
Y196917D01*
X135251Y198249D01*
X136584D01*
X137917Y196917D01*
Y194251D01*
X136584Y192918D01*
X133918D01*
X132585Y194251D01*
X140583Y191585D02*
X145914D01*
X153912Y192918D02*
X148580D01*
X153912Y198249D01*
Y199582D01*
X152579Y200915D01*
X149913D01*
X148580Y199582D01*
X548503Y198082D02*
X547170Y199415D01*
X544504D01*
X543171Y198082D01*
Y192751D01*
X544504Y191418D01*
X547170D01*
X548503Y192751D01*
X556500Y199415D02*
X551168D01*
Y195417D01*
X553834Y196749D01*
X555167D01*
X556500Y195417D01*
Y192751D01*
X555167Y191418D01*
X552501D01*
X551168Y192751D01*
X559166Y190085D02*
X564497D01*
X567163Y191418D02*
X569829D01*
X568496D01*
Y199415D01*
X567163Y198082D01*
X131568Y382075D02*
X130235Y383407D01*
X127569D01*
X126236Y382075D01*
Y376743D01*
X127569Y375410D01*
X130235D01*
X131568Y376743D01*
X138232Y375410D02*
Y383407D01*
X134233Y379409D01*
X139565D01*
X142231Y374077D02*
X147562D01*
X155560Y375410D02*
X150228D01*
X155560Y380742D01*
Y382075D01*
X154227Y383407D01*
X151561D01*
X150228Y382075D01*
X546858Y383599D02*
X545525Y384931D01*
X542859D01*
X541526Y383599D01*
Y378267D01*
X542859Y376934D01*
X545525D01*
X546858Y378267D01*
X553522Y376934D02*
Y384931D01*
X549523Y380933D01*
X554855D01*
X557521Y375601D02*
X562852D01*
X565518Y376934D02*
X568184D01*
X566851D01*
Y384931D01*
X565518Y383599D01*
X767667Y605166D02*
X766334Y606499D01*
X763668D01*
X762336Y605166D01*
Y599834D01*
X763668Y598501D01*
X766334D01*
X767667Y599834D01*
X770333Y605166D02*
X771666Y606499D01*
X774332D01*
X775665Y605166D01*
Y603833D01*
X774332Y602500D01*
X772999D01*
X774332D01*
X775665Y601167D01*
Y599834D01*
X774332Y598501D01*
X771666D01*
X770333Y599834D01*
X585417Y877166D02*
X584084Y878499D01*
X581418D01*
X580085Y877166D01*
Y871834D01*
X581418Y870501D01*
X584084D01*
X585417Y871834D01*
X593414Y870501D02*
X588083D01*
X593414Y875833D01*
Y877166D01*
X592082Y878499D01*
X589416D01*
X588083Y877166D01*
X361082Y239164D02*
X362415Y240497D01*
Y243162D01*
X361082Y244495D01*
X355751D01*
X354418Y243162D01*
Y240497D01*
X355751Y239164D01*
X354418Y236498D02*
Y233832D01*
Y235165D01*
X362415D01*
X361082Y236498D01*
X353085Y229834D02*
Y224502D01*
X354418Y216504D02*
Y221836D01*
X359749Y216504D01*
X361082D01*
X362415Y217837D01*
Y220503D01*
X361082Y221836D01*
X788832Y239081D02*
X790165Y240414D01*
Y243080D01*
X788832Y244412D01*
X783501D01*
X782168Y243080D01*
Y240414D01*
X783501Y239081D01*
X782168Y236415D02*
Y233749D01*
Y235082D01*
X790165D01*
X788832Y236415D01*
X780835Y229751D02*
Y224419D01*
X782168Y221753D02*
Y219087D01*
Y220420D01*
X790165D01*
X788832Y221753D01*
D13*
X488080Y801820D02*
G03*
X488080Y801820I-1500J0D01*
G01*
X584830Y648570D02*
G03*
X584830Y648570I-1500J0D01*
G01*
D14*
X311650Y770250D02*
G03*
X311650Y770250I-1500J0D01*
G01*
X387500Y350000D02*
X402500Y335000D01*
X255250Y350000D02*
X387500D01*
X419750Y155750D02*
X438500Y174500D01*
X451500D01*
X570250Y293250D02*
X587750Y310750D01*
X473250Y293250D02*
X570250D01*
X451500Y174500D02*
X465750Y188750D01*
Y285750D01*
X419750Y7500D02*
Y155750D01*
X402500Y175000D02*
Y302750D01*
Y175000D02*
X419500Y158000D01*
Y7500D02*
Y158000D01*
X402500Y302750D02*
Y335000D01*
X465750Y285750D02*
X473250Y293250D01*
X587750Y310750D02*
X653750D01*
X664250Y321250D01*
X666750Y323750D01*
Y347500D01*
X667750Y348500D01*
X823500D01*
X832000Y340000D01*
Y7500D02*
Y340000D01*
X419750Y7500D02*
X832000D01*
X7250D02*
Y8000D01*
Y7500D02*
X419500D01*
X7250Y8000D02*
Y287000D01*
X254250Y349000D02*
X255250Y350000D01*
X254250Y325250D02*
Y349000D01*
X251750Y322750D02*
X254250Y325250D01*
X241250Y312250D02*
X251750Y322750D01*
X176000Y312250D02*
X241250D01*
X150750Y287000D02*
X176000Y312250D01*
X7250Y287000D02*
X150750D01*
D15*
X187714Y326865D02*
G03*
X187714Y326865I-1414J0D01*
G01*
X609964D02*
G03*
X609964Y326865I-1414J0D01*
G01*
X810750Y-10500D02*
Y25300D01*
X652750Y-10500D02*
Y25300D01*
Y-10500D02*
X810750D01*
Y58700D02*
Y175500D01*
X652750D02*
X810750D01*
X652750Y58700D02*
Y175500D01*
X391750Y-10500D02*
Y25300D01*
X233750Y-10500D02*
Y25300D01*
Y-10500D02*
X391750D01*
Y58700D02*
Y175500D01*
X233750D02*
X391750D01*
X233750Y58700D02*
Y175500D01*
X601750Y-10500D02*
Y25300D01*
X443750Y-10500D02*
Y25300D01*
Y-10500D02*
X601750D01*
Y58700D02*
Y175500D01*
X443750D02*
X601750D01*
X443750Y58700D02*
Y175500D01*
X769650Y253000D02*
X774850D01*
X769650Y280000D02*
X774850D01*
X343900Y251250D02*
X349100D01*
X343900Y278250D02*
X349100D01*
X190500Y-10500D02*
Y25300D01*
X32500Y-10500D02*
Y25300D01*
Y-10500D02*
X190500D01*
Y58700D02*
Y175500D01*
X32500D02*
X190500D01*
X32500Y58700D02*
Y175500D01*
X484050Y810700D02*
Y879300D01*
X542450Y810700D02*
Y879300D01*
X343250Y839000D02*
X443250D01*
X343250Y917000D02*
X443250D01*
Y839000D02*
Y917000D01*
X343250Y839000D02*
Y917000D01*
X140150Y728450D02*
X300150D01*
X140150Y942450D02*
X300150D01*
X140150Y818250D02*
Y942450D01*
Y728450D02*
Y787250D01*
X300150Y818250D02*
Y942450D01*
Y728450D02*
Y787250D01*
X467250Y246500D02*
Y321500D01*
X570250Y246500D02*
Y321500D01*
X51750Y246500D02*
Y321500D01*
X154750Y246500D02*
Y321500D01*
X212760Y641100D02*
X216780D01*
X216840Y641040D01*
Y637080D02*
Y641040D01*
X176800Y641130D02*
X180760D01*
X176740Y637050D02*
Y641070D01*
X212810Y601050D02*
X216770D01*
X216830Y601110D02*
Y605130D01*
X176720Y601120D02*
Y605080D01*
X176780Y601060D02*
X180800D01*
X319500Y548600D02*
Y554000D01*
Y414000D02*
Y419400D01*
X459500Y548600D02*
Y554000D01*
Y414000D02*
Y419400D01*
X319500Y554000D02*
X324900D01*
X319500Y414000D02*
X324900D01*
X454100Y554000D02*
X459500D01*
X454100Y414000D02*
X459500D01*
X612250Y453000D02*
Y463000D01*
X584250Y453000D02*
Y463000D01*
X179800Y288365D02*
Y348365D01*
X376300D01*
Y288365D02*
Y348365D01*
X179800Y288365D02*
X376300D01*
X602050D02*
Y348365D01*
X798550D01*
Y288365D02*
Y348365D01*
X602050Y288365D02*
X798550D01*
X639200Y657450D02*
Y726050D01*
X580800Y657450D02*
Y726050D01*
D16*
X644018Y432302D02*
Y479038D01*
X749682D01*
Y432302D02*
Y479038D01*
X644018Y432302D02*
X749682D01*
X780000Y620000D02*
Y750000D01*
X650000Y620000D02*
Y750000D01*
D17*
X780000Y749770D02*
Y750000D01*
Y749770D02*
Y750000D01*
X753100Y749770D02*
X780000D01*
X650000D02*
Y750000D01*
Y749770D02*
X676900D01*
X780000Y620000D02*
Y620230D01*
X753100D02*
X780000D01*
X650000Y620000D02*
Y620230D01*
X676900D01*
D18*
X40212Y559540D02*
Y566204D01*
X36879Y562872D02*
X43544D01*
X36879Y569537D02*
X35213Y571203D01*
Y574535D01*
X36879Y576201D01*
X38545D01*
X40212Y574535D01*
Y572869D01*
Y574535D01*
X41878Y576201D01*
X43544D01*
X45210Y574535D01*
Y571203D01*
X43544Y569537D01*
X45210Y579534D02*
X43544D01*
Y581200D01*
X45210D01*
Y579534D01*
X36879Y587864D02*
X35213Y589530D01*
Y592863D01*
X36879Y594529D01*
X38545D01*
X40212Y592863D01*
Y591196D01*
Y592863D01*
X41878Y594529D01*
X43544D01*
X45210Y592863D01*
Y589530D01*
X43544Y587864D01*
X44710Y412290D02*
X34713D01*
Y417288D01*
X36379Y418955D01*
X39712D01*
X41378Y417288D01*
Y412290D01*
Y415622D02*
X44710Y418955D01*
X643710Y70040D02*
X633713D01*
Y75038D01*
X635379Y76705D01*
X638712D01*
X640378Y75038D01*
Y70040D01*
Y73372D02*
X643710Y76705D01*
X635379Y86701D02*
X633713Y85035D01*
Y81703D01*
X635379Y80037D01*
X637046D01*
X638712Y81703D01*
Y85035D01*
X640378Y86701D01*
X642044D01*
X643710Y85035D01*
Y81703D01*
X642044Y80037D01*
X643710Y95032D02*
X633713D01*
X638712Y90034D01*
Y96698D01*
X635379Y100030D02*
X633713Y101697D01*
Y105029D01*
X635379Y106695D01*
X637046D01*
X638712Y105029D01*
X640378Y106695D01*
X642044D01*
X643710Y105029D01*
Y101697D01*
X642044Y100030D01*
X640378D01*
X638712Y101697D01*
X637046Y100030D01*
X635379D01*
X638712Y101697D02*
Y105029D01*
X633713Y116692D02*
Y110027D01*
X638712D01*
X637046Y113359D01*
Y115026D01*
X638712Y116692D01*
X642044D01*
X643710Y115026D01*
Y111693D01*
X642044Y110027D01*
X436960Y70040D02*
X426963D01*
Y75038D01*
X428629Y76705D01*
X431962D01*
X433628Y75038D01*
Y70040D01*
Y73372D02*
X436960Y76705D01*
X428629Y86701D02*
X426963Y85035D01*
Y81703D01*
X428629Y80037D01*
X430295D01*
X431962Y81703D01*
Y85035D01*
X433628Y86701D01*
X435294D01*
X436960Y85035D01*
Y81703D01*
X435294Y80037D01*
X436960Y95032D02*
X426963D01*
X431962Y90034D01*
Y96698D01*
X428629Y100030D02*
X426963Y101697D01*
Y105029D01*
X428629Y106695D01*
X430295D01*
X431962Y105029D01*
X433628Y106695D01*
X435294D01*
X436960Y105029D01*
Y101697D01*
X435294Y100030D01*
X433628D01*
X431962Y101697D01*
X430295Y100030D01*
X428629D01*
X431962Y101697D02*
Y105029D01*
X426963Y116692D02*
Y110027D01*
X431962D01*
X430295Y113359D01*
Y115026D01*
X431962Y116692D01*
X435294D01*
X436960Y115026D01*
Y111693D01*
X435294Y110027D01*
X224710Y70040D02*
X214713D01*
Y75038D01*
X216379Y76705D01*
X219711D01*
X221378Y75038D01*
Y70040D01*
Y73372D02*
X224710Y76705D01*
X216379Y86701D02*
X214713Y85035D01*
Y81703D01*
X216379Y80037D01*
X218045D01*
X219711Y81703D01*
Y85035D01*
X221378Y86701D01*
X223044D01*
X224710Y85035D01*
Y81703D01*
X223044Y80037D01*
X224710Y95032D02*
X214713D01*
X219711Y90034D01*
Y96698D01*
X216379Y100030D02*
X214713Y101697D01*
Y105029D01*
X216379Y106695D01*
X218045D01*
X219711Y105029D01*
X221378Y106695D01*
X223044D01*
X224710Y105029D01*
Y101697D01*
X223044Y100030D01*
X221378D01*
X219711Y101697D01*
X218045Y100030D01*
X216379D01*
X219711Y101697D02*
Y105029D01*
X214713Y116692D02*
Y110027D01*
X219711D01*
X218045Y113359D01*
Y115026D01*
X219711Y116692D01*
X223044D01*
X224710Y115026D01*
Y111693D01*
X223044Y110027D01*
X24960Y70040D02*
X14963D01*
Y75038D01*
X16629Y76705D01*
X19962D01*
X21628Y75038D01*
Y70040D01*
Y73372D02*
X24960Y76705D01*
X16629Y86701D02*
X14963Y85035D01*
Y81703D01*
X16629Y80037D01*
X18296D01*
X19962Y81703D01*
Y85035D01*
X21628Y86701D01*
X23294D01*
X24960Y85035D01*
Y81703D01*
X23294Y80037D01*
X24960Y95032D02*
X14963D01*
X19962Y90034D01*
Y96698D01*
X16629Y100030D02*
X14963Y101697D01*
Y105029D01*
X16629Y106695D01*
X18296D01*
X19962Y105029D01*
X21628Y106695D01*
X23294D01*
X24960Y105029D01*
Y101697D01*
X23294Y100030D01*
X21628D01*
X19962Y101697D01*
X18296Y100030D01*
X16629D01*
X19962Y101697D02*
Y105029D01*
X14963Y116692D02*
Y110027D01*
X19962D01*
X18296Y113359D01*
Y115026D01*
X19962Y116692D01*
X23294D01*
X24960Y115026D01*
Y111693D01*
X23294Y110027D01*
X387205Y819540D02*
X380540D01*
X387205Y826205D01*
Y827871D01*
X385538Y829537D01*
X382206D01*
X380540Y827871D01*
X395535Y819540D02*
Y829537D01*
X390537Y824538D01*
X397201D01*
X400534Y829537D02*
Y822872D01*
X403866Y819540D01*
X407198Y822872D01*
Y829537D01*
X310713Y830454D02*
Y823790D01*
X320710D01*
Y830454D01*
X315712Y823790D02*
Y827122D01*
X312379Y835453D02*
X314046D01*
Y833787D01*
Y837119D01*
Y835453D01*
X319044D01*
X320710Y837119D01*
X310713Y842117D02*
X320710D01*
X315712D01*
X314046Y843783D01*
Y847116D01*
X315712Y848782D01*
X320710D01*
Y857113D02*
Y853780D01*
X319044Y852114D01*
X315712D01*
X314046Y853780D01*
Y857113D01*
X315712Y858779D01*
X317378D01*
Y852114D01*
X314046Y862111D02*
X320710D01*
X317378D01*
X315712Y863777D01*
X314046Y865443D01*
Y867109D01*
X320710Y872108D02*
X314046D01*
Y877106D01*
X315712Y878772D01*
X320710D01*
Y887103D02*
Y883771D01*
X319044Y882104D01*
X315712D01*
X314046Y883771D01*
Y887103D01*
X315712Y888769D01*
X317378D01*
Y882104D01*
X312379Y893767D02*
X314046D01*
Y892101D01*
Y895434D01*
Y893767D01*
X319044D01*
X320710Y895434D01*
D19*
X154000Y543500D02*
D03*
X107500Y753750D02*
D03*
M02*
