G04*
G04 #@! TF.GenerationSoftware,Altium Limited,Altium Designer,20.0.13 (296)*
G04*
G04 Layer_Physical_Order=4*
G04 Layer_Color=16711680*
%FSLAX44Y44*%
%MOMM*%
G71*
G01*
G75*
%ADD18C,0.2540*%
%ADD24R,1.0000X0.8000*%
%ADD26R,0.9000X0.7000*%
%ADD87C,0.5000*%
%ADD91C,5.5000*%
%ADD92C,1.9050*%
%ADD93R,1.9050X1.9050*%
%ADD94C,2.7000*%
%ADD95C,1.6500*%
%ADD96R,1.6500X1.6500*%
%ADD97C,3.4000*%
%ADD98C,1.6000*%
%ADD99R,1.6000X1.6000*%
%ADD100C,1.4000*%
%ADD101R,1.4000X1.4000*%
%ADD102C,2.1000*%
%ADD103R,2.1000X2.1000*%
%ADD104R,1.3980X1.3980*%
%ADD105C,1.3980*%
%ADD106C,1.5300*%
%ADD107C,2.4450*%
%ADD108C,3.2500*%
%ADD109C,1.5000*%
%ADD110R,1.5000X1.5000*%
%ADD111R,1.4000X1.4000*%
%ADD112C,0.7000*%
%ADD113C,0.8000*%
%ADD114C,1.2700*%
%ADD115R,0.8000X1.1000*%
G36*
X835431Y3569D02*
X3569D01*
Y904431D01*
X835431D01*
Y3569D01*
D02*
G37*
%LPC*%
G36*
X381290Y892040D02*
X369520D01*
Y880270D01*
X381290D01*
Y892040D01*
D02*
G37*
G36*
X366980D02*
X355210D01*
Y880270D01*
X366980D01*
Y892040D01*
D02*
G37*
G36*
X286400Y891983D02*
X283881Y891652D01*
X281533Y890679D01*
X279518Y889132D01*
X277971Y887117D01*
X276998Y884769D01*
X276667Y882250D01*
X276998Y879731D01*
X277971Y877383D01*
X279518Y875368D01*
X281533Y873821D01*
X283881Y872848D01*
X286400Y872517D01*
X288919Y872848D01*
X291267Y873821D01*
X293283Y875368D01*
X294829Y877383D01*
X295802Y879731D01*
X296133Y882250D01*
X295802Y884769D01*
X294829Y887117D01*
X293283Y889132D01*
X291267Y890679D01*
X288919Y891652D01*
X286400Y891983D01*
D02*
G37*
G36*
X261000D02*
X258481Y891652D01*
X256133Y890679D01*
X254118Y889132D01*
X252571Y887117D01*
X251936Y885584D01*
X230000D01*
X228724Y885330D01*
X227642Y884607D01*
X207119Y864084D01*
X105500D01*
X104224Y863830D01*
X103142Y863108D01*
X92238Y852203D01*
X91896Y852431D01*
X89750Y852858D01*
X87604Y852431D01*
X85785Y851215D01*
X84569Y849396D01*
X84142Y847250D01*
X84569Y845104D01*
X85785Y843285D01*
X87604Y842069D01*
X89750Y841642D01*
X91896Y842069D01*
X93715Y843285D01*
X94931Y845104D01*
X95021Y845556D01*
X106881Y857416D01*
X128670D01*
X129055Y856146D01*
X128785Y855965D01*
X127569Y854146D01*
X127142Y852000D01*
X127569Y849854D01*
X128785Y848035D01*
X130604Y846819D01*
X132750Y846392D01*
X134896Y846819D01*
X136715Y848035D01*
X137931Y849854D01*
X138358Y852000D01*
X137931Y854146D01*
X136715Y855965D01*
X136445Y856146D01*
X136830Y857416D01*
X208500D01*
X209776Y857670D01*
X210858Y858392D01*
X231381Y878916D01*
X251936D01*
X252571Y877383D01*
X254118Y875368D01*
X256133Y873821D01*
X258481Y872848D01*
X261000Y872517D01*
X263519Y872848D01*
X265867Y873821D01*
X267882Y875368D01*
X269429Y877383D01*
X270402Y879731D01*
X270733Y882250D01*
X270402Y884769D01*
X269429Y887117D01*
X267882Y889132D01*
X265867Y890679D01*
X263519Y891652D01*
X261000Y891983D01*
D02*
G37*
G36*
X179300D02*
X176781Y891652D01*
X174433Y890679D01*
X172418Y889132D01*
X170871Y887117D01*
X169898Y884769D01*
X169567Y882250D01*
X169898Y879731D01*
X170871Y877383D01*
X172418Y875368D01*
X174433Y873821D01*
X176781Y872848D01*
X179300Y872517D01*
X181819Y872848D01*
X184167Y873821D01*
X186182Y875368D01*
X187729Y877383D01*
X188702Y879731D01*
X189033Y882250D01*
X188702Y884769D01*
X187729Y887117D01*
X186182Y889132D01*
X184167Y890679D01*
X181819Y891652D01*
X179300Y891983D01*
D02*
G37*
G36*
X153900D02*
X151381Y891652D01*
X149033Y890679D01*
X147018Y889132D01*
X145471Y887117D01*
X144498Y884769D01*
X144167Y882250D01*
X144498Y879731D01*
X145471Y877383D01*
X147018Y875368D01*
X149033Y873821D01*
X151381Y872848D01*
X153900Y872517D01*
X156419Y872848D01*
X158767Y873821D01*
X160783Y875368D01*
X162329Y877383D01*
X163302Y879731D01*
X163633Y882250D01*
X163302Y884769D01*
X162329Y887117D01*
X160783Y889132D01*
X158767Y890679D01*
X156419Y891652D01*
X153900Y891983D01*
D02*
G37*
G36*
X418250Y891608D02*
X414987Y891178D01*
X411946Y889919D01*
X409335Y887915D01*
X407331Y885304D01*
X406072Y882263D01*
X405642Y879000D01*
X406072Y875737D01*
X407331Y872696D01*
X409335Y870085D01*
X411946Y868081D01*
X414987Y866822D01*
X418250Y866392D01*
X421513Y866822D01*
X424554Y868081D01*
X427165Y870085D01*
X429169Y872696D01*
X430428Y875737D01*
X430858Y879000D01*
X430428Y882263D01*
X429169Y885304D01*
X427165Y887915D01*
X424554Y889919D01*
X421513Y891178D01*
X418250Y891608D01*
D02*
G37*
G36*
X381290Y877730D02*
X369520D01*
Y865960D01*
X381290D01*
Y877730D01*
D02*
G37*
G36*
X366980D02*
X355210D01*
Y865960D01*
X366980D01*
Y877730D01*
D02*
G37*
G36*
X658750Y873000D02*
X640750D01*
Y855000D01*
X658750D01*
Y873000D01*
D02*
G37*
G36*
X126000Y839858D02*
X123854Y839431D01*
X122035Y838215D01*
X120819Y836396D01*
X120392Y834250D01*
X120819Y832104D01*
X122035Y830285D01*
X123854Y829069D01*
X126000Y828642D01*
X128146Y829069D01*
X129965Y830285D01*
X131181Y832104D01*
X131608Y834250D01*
X131181Y836396D01*
X129965Y838215D01*
X128146Y839431D01*
X126000Y839858D01*
D02*
G37*
G36*
X651020Y823455D02*
Y815270D01*
X659205D01*
X659044Y816490D01*
X658083Y818811D01*
X656554Y820804D01*
X654561Y822333D01*
X652241Y823294D01*
X651020Y823455D01*
D02*
G37*
G36*
X648480Y823455D02*
X647260Y823294D01*
X644939Y822333D01*
X642946Y820804D01*
X641417Y818811D01*
X640456Y816490D01*
X640295Y815270D01*
X648480D01*
Y823455D01*
D02*
G37*
G36*
X277300Y851588D02*
X273722Y851236D01*
X270282Y850192D01*
X267112Y848498D01*
X264333Y846217D01*
X262052Y843438D01*
X260358Y840268D01*
X259314Y836828D01*
X258962Y833250D01*
X259314Y829672D01*
X260358Y826232D01*
X262052Y823062D01*
X264333Y820283D01*
X267112Y818002D01*
X270282Y816308D01*
X273722Y815264D01*
X277300Y814912D01*
X280878Y815264D01*
X284318Y816308D01*
X287488Y818002D01*
X290267Y820283D01*
X292548Y823062D01*
X294242Y826232D01*
X295286Y829672D01*
X295638Y833250D01*
X295286Y836828D01*
X294242Y840268D01*
X292548Y843438D01*
X290267Y846217D01*
X287488Y848498D01*
X284318Y850192D01*
X280878Y851236D01*
X277300Y851588D01*
D02*
G37*
G36*
X163000D02*
X159422Y851236D01*
X155982Y850192D01*
X152812Y848498D01*
X150033Y846217D01*
X147752Y843438D01*
X146058Y840268D01*
X145014Y836828D01*
X144662Y833250D01*
X145014Y829672D01*
X146058Y826232D01*
X147752Y823062D01*
X150033Y820283D01*
X152812Y818002D01*
X155982Y816308D01*
X159422Y815264D01*
X163000Y814912D01*
X166578Y815264D01*
X170018Y816308D01*
X173188Y818002D01*
X175967Y820283D01*
X178248Y823062D01*
X179942Y826232D01*
X180986Y829672D01*
X181338Y833250D01*
X180986Y836828D01*
X179942Y840268D01*
X178248Y843438D01*
X175967Y846217D01*
X173188Y848498D01*
X170018Y850192D01*
X166578Y851236D01*
X163000Y851588D01*
D02*
G37*
G36*
X221290Y813540D02*
X215020D01*
Y808270D01*
X221290D01*
Y813540D01*
D02*
G37*
G36*
X212480D02*
X206210D01*
Y808270D01*
X212480D01*
Y813540D01*
D02*
G37*
G36*
X659205Y812730D02*
X651020D01*
Y804545D01*
X652241Y804706D01*
X654561Y805667D01*
X656554Y807196D01*
X658083Y809189D01*
X659044Y811509D01*
X659205Y812730D01*
D02*
G37*
G36*
X648480D02*
X640295D01*
X640456Y811509D01*
X641417Y809189D01*
X642946Y807196D01*
X644939Y805667D01*
X647260Y804706D01*
X648480Y804545D01*
Y812730D01*
D02*
G37*
G36*
X143970Y817461D02*
Y804020D01*
X157411D01*
X157251Y805644D01*
X156407Y808428D01*
X155036Y810993D01*
X153191Y813241D01*
X150943Y815086D01*
X148378Y816457D01*
X145595Y817301D01*
X143970Y817461D01*
D02*
G37*
G36*
X141430Y817461D02*
X139806Y817301D01*
X137022Y816457D01*
X134457Y815086D01*
X132209Y813241D01*
X130364Y810993D01*
X128993Y808428D01*
X128149Y805644D01*
X127989Y804020D01*
X141430D01*
Y817461D01*
D02*
G37*
G36*
X298870Y817461D02*
Y804020D01*
X312311D01*
X312151Y805644D01*
X311307Y808428D01*
X309936Y810993D01*
X308091Y813241D01*
X305843Y815086D01*
X303278Y816457D01*
X300494Y817301D01*
X298870Y817461D01*
D02*
G37*
G36*
X296330D02*
X294706Y817301D01*
X291922Y816457D01*
X289357Y815086D01*
X287109Y813241D01*
X285264Y810993D01*
X283893Y808428D01*
X283049Y805644D01*
X282889Y804020D01*
X296330D01*
Y817461D01*
D02*
G37*
G36*
X785750Y860091D02*
X781121Y859727D01*
X776606Y858643D01*
X772316Y856866D01*
X768357Y854440D01*
X764826Y851424D01*
X761810Y847893D01*
X759384Y843934D01*
X757607Y839644D01*
X756523Y835129D01*
X756159Y830500D01*
X756523Y825871D01*
X757607Y821356D01*
X759384Y817066D01*
X761810Y813107D01*
X764826Y809576D01*
X768357Y806560D01*
X772316Y804134D01*
X776606Y802357D01*
X781121Y801273D01*
X785750Y800909D01*
X790379Y801273D01*
X794894Y802357D01*
X799184Y804134D01*
X803143Y806560D01*
X806674Y809576D01*
X809690Y813107D01*
X812116Y817066D01*
X813893Y821356D01*
X814977Y825871D01*
X815341Y830500D01*
X814977Y835129D01*
X813893Y839644D01*
X812116Y843934D01*
X809690Y847893D01*
X806674Y851424D01*
X803143Y854440D01*
X799184Y856866D01*
X794894Y858643D01*
X790379Y859727D01*
X785750Y860091D01*
D02*
G37*
G36*
X39250D02*
X34621Y859727D01*
X30106Y858643D01*
X25816Y856866D01*
X21857Y854440D01*
X18326Y851424D01*
X15310Y847893D01*
X12884Y843934D01*
X11107Y839644D01*
X10023Y835129D01*
X9659Y830500D01*
X10023Y825871D01*
X11107Y821356D01*
X12884Y817066D01*
X15310Y813107D01*
X18326Y809576D01*
X21857Y806560D01*
X25816Y804134D01*
X30106Y802357D01*
X34621Y801273D01*
X39250Y800909D01*
X43879Y801273D01*
X48394Y802357D01*
X52684Y804134D01*
X56643Y806560D01*
X60174Y809576D01*
X63190Y813107D01*
X65616Y817066D01*
X67393Y821356D01*
X68477Y825871D01*
X68841Y830500D01*
X68477Y835129D01*
X67393Y839644D01*
X65616Y843934D01*
X63190Y847893D01*
X60174Y851424D01*
X56643Y854440D01*
X52684Y856866D01*
X48394Y858643D01*
X43879Y859727D01*
X39250Y860091D01*
D02*
G37*
G36*
X221290Y805730D02*
X215020D01*
Y800460D01*
X221290D01*
Y805730D01*
D02*
G37*
G36*
X212480D02*
X206210D01*
Y800460D01*
X212480D01*
Y805730D01*
D02*
G37*
G36*
X157411Y801480D02*
X143970D01*
Y788039D01*
X145595Y788199D01*
X148378Y789043D01*
X150943Y790414D01*
X153191Y792259D01*
X155036Y794507D01*
X156407Y797072D01*
X157251Y799855D01*
X157411Y801480D01*
D02*
G37*
G36*
X312311Y801480D02*
X298870D01*
Y788039D01*
X300494Y788199D01*
X303278Y789043D01*
X305843Y790414D01*
X308091Y792259D01*
X309936Y794507D01*
X311307Y797072D01*
X312151Y799855D01*
X312311Y801480D01*
D02*
G37*
G36*
X296330D02*
X282889D01*
X283049Y799855D01*
X283893Y797072D01*
X285264Y794507D01*
X287109Y792259D01*
X289357Y790414D01*
X291922Y789043D01*
X294706Y788199D01*
X296330Y788039D01*
Y801480D01*
D02*
G37*
G36*
X141430Y801480D02*
X127989D01*
X128149Y799855D01*
X128993Y797072D01*
X130364Y794507D01*
X132209Y792259D01*
X134457Y790414D01*
X137022Y789043D01*
X139806Y788199D01*
X141430Y788039D01*
Y801480D01*
D02*
G37*
G36*
X105500Y794358D02*
X103354Y793931D01*
X101535Y792715D01*
X100319Y790896D01*
X99892Y788750D01*
X100319Y786604D01*
X101535Y784785D01*
X103354Y783569D01*
X105500Y783142D01*
X107646Y783569D01*
X109465Y784785D01*
X110681Y786604D01*
X111108Y788750D01*
X110681Y790896D01*
X109465Y792715D01*
X107646Y793931D01*
X105500Y794358D01*
D02*
G37*
G36*
X273640Y778740D02*
X255660D01*
Y760760D01*
X273640D01*
Y778740D01*
D02*
G37*
G36*
X239250Y778818D02*
X236903Y778509D01*
X234716Y777603D01*
X232838Y776162D01*
X231397Y774284D01*
X230491Y772097D01*
X230182Y769750D01*
X230491Y767403D01*
X231397Y765216D01*
X232838Y763338D01*
X234716Y761897D01*
X236903Y760991D01*
X239250Y760682D01*
X241597Y760991D01*
X243784Y761897D01*
X245662Y763338D01*
X247103Y765216D01*
X248009Y767403D01*
X248318Y769750D01*
X248009Y772097D01*
X247103Y774284D01*
X245662Y776162D01*
X243784Y777603D01*
X241597Y778509D01*
X239250Y778818D01*
D02*
G37*
G36*
X188450D02*
X186103Y778509D01*
X183916Y777603D01*
X182038Y776162D01*
X180597Y774284D01*
X179691Y772097D01*
X179382Y769750D01*
X179691Y767403D01*
X180597Y765216D01*
X182038Y763338D01*
X183916Y761897D01*
X186103Y760991D01*
X188450Y760682D01*
X190797Y760991D01*
X192984Y761897D01*
X194862Y763338D01*
X196303Y765216D01*
X197209Y767403D01*
X197518Y769750D01*
X197209Y772097D01*
X196303Y774284D01*
X194862Y776162D01*
X192984Y777603D01*
X190797Y778509D01*
X188450Y778818D01*
D02*
G37*
G36*
X251950Y753418D02*
X249603Y753109D01*
X247416Y752203D01*
X245538Y750762D01*
X244097Y748884D01*
X243191Y746697D01*
X242882Y744350D01*
X243191Y742003D01*
X244097Y739816D01*
X245538Y737938D01*
X247416Y736497D01*
X249603Y735591D01*
X251950Y735282D01*
X254297Y735591D01*
X256484Y736497D01*
X258362Y737938D01*
X259803Y739816D01*
X260709Y742003D01*
X261018Y744350D01*
X260709Y746697D01*
X259803Y748884D01*
X258362Y750762D01*
X256484Y752203D01*
X254297Y753109D01*
X251950Y753418D01*
D02*
G37*
G36*
X201150D02*
X198803Y753109D01*
X196616Y752203D01*
X194738Y750762D01*
X193297Y748884D01*
X192391Y746697D01*
X192083Y744350D01*
X192391Y742003D01*
X193297Y739816D01*
X194738Y737938D01*
X196616Y736497D01*
X198803Y735591D01*
X201150Y735282D01*
X203497Y735591D01*
X205684Y736497D01*
X207562Y737938D01*
X209003Y739816D01*
X209909Y742003D01*
X210218Y744350D01*
X209909Y746697D01*
X209003Y748884D01*
X207562Y750762D01*
X205684Y752203D01*
X203497Y753109D01*
X201150Y753418D01*
D02*
G37*
G36*
X175750D02*
X173403Y753109D01*
X171216Y752203D01*
X169338Y750762D01*
X167897Y748884D01*
X166991Y746697D01*
X166682Y744350D01*
X166991Y742003D01*
X167897Y739816D01*
X169338Y737938D01*
X171216Y736497D01*
X173403Y735591D01*
X175750Y735282D01*
X178097Y735591D01*
X180284Y736497D01*
X182162Y737938D01*
X183603Y739816D01*
X184509Y742003D01*
X184818Y744350D01*
X184509Y746697D01*
X183603Y748884D01*
X182162Y750762D01*
X180284Y752203D01*
X178097Y753109D01*
X175750Y753418D01*
D02*
G37*
G36*
X220750Y797000D02*
X206750D01*
Y785000D01*
X209212D01*
Y777523D01*
X207438Y776162D01*
X205997Y774284D01*
X205091Y772097D01*
X204783Y769750D01*
X205091Y767403D01*
X205997Y765216D01*
X207438Y763338D01*
X209316Y761897D01*
X211503Y760991D01*
X213850Y760682D01*
X216129Y760982D01*
X220244Y756868D01*
Y750843D01*
X220138Y750762D01*
X218697Y748884D01*
X217791Y746697D01*
X217482Y744350D01*
X217791Y742003D01*
X218697Y739816D01*
X220138Y737938D01*
X221312Y737038D01*
Y723250D01*
X218250D01*
Y722153D01*
X216980Y721540D01*
X215646Y722431D01*
X213500Y722858D01*
X211354Y722431D01*
X209535Y721215D01*
X208319Y719396D01*
X207892Y717250D01*
X208319Y715104D01*
X209535Y713285D01*
X211354Y712069D01*
X213500Y711642D01*
X215646Y712069D01*
X216980Y712961D01*
X218250Y712347D01*
Y711250D01*
X232250D01*
Y723250D01*
X230488D01*
Y736251D01*
X231084Y736497D01*
X232962Y737938D01*
X234403Y739816D01*
X235309Y742003D01*
X235618Y744350D01*
X235309Y746697D01*
X234403Y748884D01*
X232962Y750762D01*
X231084Y752203D01*
X229420Y752892D01*
Y758768D01*
X229071Y760524D01*
X228076Y762012D01*
X222618Y767471D01*
X222918Y769750D01*
X222609Y772097D01*
X221703Y774284D01*
X220262Y776162D01*
X218388Y777599D01*
Y785000D01*
X220750D01*
Y797000D01*
D02*
G37*
G36*
X199500Y722858D02*
X197354Y722431D01*
X195535Y721215D01*
X194319Y719396D01*
X193892Y717250D01*
X194319Y715104D01*
X195535Y713285D01*
X197354Y712069D01*
X199500Y711642D01*
X201646Y712069D01*
X203465Y713285D01*
X204681Y715104D01*
X205108Y717250D01*
X204681Y719396D01*
X203465Y721215D01*
X201646Y722431D01*
X199500Y722858D01*
D02*
G37*
G36*
X232790Y707790D02*
X226520D01*
Y702520D01*
X232790D01*
Y707790D01*
D02*
G37*
G36*
X223980D02*
X217710D01*
Y702520D01*
X223980D01*
Y707790D01*
D02*
G37*
G36*
X577500Y710608D02*
X575354Y710181D01*
X573535Y708965D01*
X572319Y707146D01*
X571892Y705000D01*
X572319Y702854D01*
X573535Y701035D01*
X575354Y699819D01*
X577500Y699392D01*
X579646Y699819D01*
X581465Y701035D01*
X582681Y702854D01*
X583108Y705000D01*
X582681Y707146D01*
X581465Y708965D01*
X579646Y710181D01*
X577500Y710608D01*
D02*
G37*
G36*
X232790Y699980D02*
X226520D01*
Y694710D01*
X232790D01*
Y699980D01*
D02*
G37*
G36*
X223980D02*
X217710D01*
Y694710D01*
X223980D01*
Y699980D01*
D02*
G37*
G36*
X152000Y674858D02*
X149854Y674431D01*
X148035Y673215D01*
X146819Y671396D01*
X146392Y669250D01*
X146819Y667104D01*
X148035Y665285D01*
X149854Y664069D01*
X152000Y663642D01*
X154146Y664069D01*
X155965Y665285D01*
X157181Y667104D01*
X157608Y669250D01*
X157181Y671396D01*
X155965Y673215D01*
X154146Y674431D01*
X152000Y674858D01*
D02*
G37*
G36*
X205230Y665972D02*
X203084Y665545D01*
X201265Y664329D01*
X200049Y662510D01*
X199928Y661900D01*
X198580Y661632D01*
X198085Y662372D01*
X196266Y663588D01*
X194120Y664015D01*
X191974Y663588D01*
X190155Y662372D01*
X188939Y660553D01*
X188610Y658897D01*
X187498Y658241D01*
X187276Y658205D01*
X185250Y658608D01*
X183104Y658181D01*
X181285Y656965D01*
X180069Y655146D01*
X179642Y653000D01*
X180069Y650854D01*
X181285Y649035D01*
X183104Y647819D01*
X185250Y647392D01*
X187396Y647819D01*
X189215Y649035D01*
X190431Y650854D01*
X190760Y652510D01*
X191872Y653166D01*
X192094Y653202D01*
X194120Y652799D01*
X196266Y653226D01*
X198085Y654442D01*
X199301Y656261D01*
X199422Y656870D01*
X200770Y657139D01*
X201265Y656399D01*
X203084Y655183D01*
X205230Y654756D01*
X205489Y654808D01*
X206451Y653704D01*
X206819Y651854D01*
X208035Y650035D01*
X209854Y648819D01*
X212000Y648392D01*
X214146Y648819D01*
X215965Y650035D01*
X217181Y651854D01*
X217608Y654000D01*
X217181Y656146D01*
X215965Y657965D01*
X214146Y659181D01*
X212000Y659608D01*
X211741Y659556D01*
X210779Y660660D01*
X210411Y662510D01*
X209195Y664329D01*
X207376Y665545D01*
X205230Y665972D01*
D02*
G37*
G36*
X245750Y667108D02*
X243604Y666681D01*
X241785Y665465D01*
X240569Y663646D01*
X240142Y661500D01*
X240569Y659354D01*
X241785Y657535D01*
X243604Y656319D01*
X245750Y655892D01*
X247896Y656319D01*
X249715Y657535D01*
X250931Y659354D01*
X251358Y661500D01*
X250931Y663646D01*
X249715Y665465D01*
X247896Y666681D01*
X245750Y667108D01*
D02*
G37*
G36*
X271250Y638858D02*
X269104Y638431D01*
X267285Y637215D01*
X266069Y635396D01*
X265642Y633250D01*
X265817Y632373D01*
X264919Y631475D01*
X264250Y631608D01*
X262104Y631181D01*
X260285Y629965D01*
X259069Y628146D01*
X258642Y626000D01*
X259069Y623854D01*
X259426Y623319D01*
X258663Y622176D01*
X257750Y622358D01*
X255604Y621931D01*
X253785Y620715D01*
X252569Y618896D01*
X252142Y616750D01*
X252520Y614849D01*
X252424Y614405D01*
X251771Y613512D01*
X250104Y613181D01*
X248285Y611965D01*
X247069Y610146D01*
X246642Y608000D01*
X247069Y605854D01*
X248285Y604035D01*
X250104Y602819D01*
X252250Y602392D01*
X254396Y602819D01*
X256215Y604035D01*
X257431Y605854D01*
X257858Y608000D01*
X257479Y609901D01*
X257576Y610345D01*
X258229Y611237D01*
X259896Y611569D01*
X261715Y612785D01*
X262931Y614604D01*
X263358Y616750D01*
X262931Y618896D01*
X262574Y619431D01*
X263337Y620574D01*
X264250Y620392D01*
X266396Y620819D01*
X268215Y622035D01*
X269431Y623854D01*
X269858Y626000D01*
X269683Y626877D01*
X270581Y627775D01*
X271250Y627642D01*
X273396Y628069D01*
X275215Y629285D01*
X276431Y631104D01*
X276858Y633250D01*
X276431Y635396D01*
X275215Y637215D01*
X273396Y638431D01*
X271250Y638858D01*
D02*
G37*
G36*
X201230Y633429D02*
X200793Y633372D01*
X199202Y632713D01*
X197836Y631664D01*
X197145Y630764D01*
X196919Y630675D01*
X195831D01*
X195606Y630764D01*
X194914Y631664D01*
X193548Y632713D01*
X191957Y633372D01*
X191520Y633429D01*
Y627000D01*
X190250D01*
Y625730D01*
X183821D01*
X183878Y625293D01*
X184537Y623702D01*
X185586Y622336D01*
X185957Y622050D01*
Y620450D01*
X185586Y620164D01*
X184537Y618798D01*
X183878Y617207D01*
X183821Y616770D01*
X190250D01*
Y615500D01*
X191520D01*
Y609071D01*
X191957Y609128D01*
X193548Y609787D01*
X194914Y610836D01*
X195606Y611736D01*
X195831Y611825D01*
X196919D01*
X197145Y611736D01*
X197836Y610836D01*
X199202Y609787D01*
X200793Y609128D01*
X201230Y609071D01*
Y615500D01*
X202500D01*
Y616770D01*
X208929D01*
X208872Y617207D01*
X208213Y618798D01*
X207164Y620164D01*
X206793Y620450D01*
Y622050D01*
X207164Y622336D01*
X208213Y623702D01*
X208872Y625293D01*
X208929Y625730D01*
X202500D01*
Y627000D01*
X201230D01*
Y633429D01*
D02*
G37*
G36*
X160250Y641858D02*
X158104Y641431D01*
X156285Y640215D01*
X155069Y638396D01*
X154642Y636250D01*
X155069Y634104D01*
X156285Y632285D01*
X158104Y631069D01*
X160250Y630642D01*
X162396Y631069D01*
X164215Y632285D01*
X165431Y634104D01*
X165858Y636250D01*
X165431Y638396D01*
X164215Y640215D01*
X162396Y641431D01*
X160250Y641858D01*
D02*
G37*
G36*
X203770Y633429D02*
Y628270D01*
X208929D01*
X208872Y628707D01*
X208213Y630298D01*
X207164Y631664D01*
X205798Y632713D01*
X204207Y633372D01*
X203770Y633429D01*
D02*
G37*
G36*
X188980D02*
X188543Y633372D01*
X186952Y632713D01*
X185586Y631664D01*
X184537Y630298D01*
X183878Y628707D01*
X183821Y628270D01*
X188980D01*
Y633429D01*
D02*
G37*
G36*
X144750Y635858D02*
X142604Y635431D01*
X140785Y634215D01*
X139569Y632396D01*
X139142Y630250D01*
X139569Y628104D01*
X140785Y626285D01*
X142604Y625069D01*
X144750Y624642D01*
X146896Y625069D01*
X148715Y626285D01*
X149931Y628104D01*
X150358Y630250D01*
X149931Y632396D01*
X148715Y634215D01*
X146896Y635431D01*
X144750Y635858D01*
D02*
G37*
G36*
X208929Y614230D02*
X203770D01*
Y609071D01*
X204207Y609128D01*
X205798Y609787D01*
X207164Y610836D01*
X208213Y612202D01*
X208872Y613793D01*
X208929Y614230D01*
D02*
G37*
G36*
X188980D02*
X183821D01*
X183878Y613793D01*
X184537Y612202D01*
X185586Y610836D01*
X186952Y609787D01*
X188543Y609128D01*
X188980Y609071D01*
Y614230D01*
D02*
G37*
G36*
X620750Y618108D02*
X618604Y617681D01*
X616785Y616465D01*
X615569Y614646D01*
X615142Y612500D01*
X615569Y610354D01*
X616785Y608535D01*
X618604Y607319D01*
X620750Y606892D01*
X622896Y607319D01*
X624715Y608535D01*
X625931Y610354D01*
X626358Y612500D01*
X625931Y614646D01*
X624715Y616465D01*
X622896Y617681D01*
X620750Y618108D01*
D02*
G37*
G36*
X589500Y616358D02*
X587354Y615931D01*
X585535Y614715D01*
X584319Y612896D01*
X583892Y610750D01*
X584319Y608604D01*
X585535Y606785D01*
X587354Y605569D01*
X589500Y605142D01*
X591646Y605569D01*
X593465Y606785D01*
X594681Y608604D01*
X595108Y610750D01*
X594681Y612896D01*
X593465Y614715D01*
X591646Y615931D01*
X589500Y616358D01*
D02*
G37*
G36*
X317750Y613858D02*
X315604Y613431D01*
X313785Y612215D01*
X312569Y610396D01*
X312142Y608250D01*
X312569Y606104D01*
X313785Y604285D01*
X315604Y603069D01*
X317750Y602642D01*
X319896Y603069D01*
X321715Y604285D01*
X322931Y606104D01*
X323358Y608250D01*
X322931Y610396D01*
X321715Y612215D01*
X319896Y613431D01*
X317750Y613858D01*
D02*
G37*
G36*
X492000Y608858D02*
X489854Y608431D01*
X488035Y607215D01*
X486819Y605396D01*
X486392Y603250D01*
X486819Y601104D01*
X488035Y599285D01*
X489854Y598069D01*
X492000Y597642D01*
X494146Y598069D01*
X495965Y599285D01*
X497181Y601104D01*
X497608Y603250D01*
X497181Y605396D01*
X495965Y607215D01*
X494146Y608431D01*
X492000Y608858D01*
D02*
G37*
G36*
X432750Y605358D02*
X430604Y604931D01*
X428785Y603715D01*
X427569Y601896D01*
X427142Y599750D01*
X427569Y597604D01*
X428785Y595785D01*
X430604Y594569D01*
X432750Y594142D01*
X434896Y594569D01*
X436715Y595785D01*
X437931Y597604D01*
X438358Y599750D01*
X437931Y601896D01*
X436715Y603715D01*
X434896Y604931D01*
X432750Y605358D01*
D02*
G37*
G36*
X396000Y603108D02*
X393854Y602681D01*
X392035Y601465D01*
X390819Y599646D01*
X390392Y597500D01*
X390819Y595354D01*
X391600Y594185D01*
X390836Y593042D01*
X389250Y593358D01*
X387104Y592931D01*
X385285Y591715D01*
X384069Y589896D01*
X383642Y587750D01*
X384069Y585604D01*
X384234Y585358D01*
X383470Y584215D01*
X382750Y584358D01*
X380604Y583931D01*
X378785Y582715D01*
X377569Y580896D01*
X377142Y578750D01*
X377569Y576604D01*
X378785Y574785D01*
X380604Y573569D01*
X382750Y573142D01*
X384896Y573569D01*
X386715Y574785D01*
X387931Y576604D01*
X388358Y578750D01*
X387931Y580896D01*
X387766Y581143D01*
X388530Y582285D01*
X389250Y582142D01*
X391396Y582569D01*
X393215Y583785D01*
X394431Y585604D01*
X394858Y587750D01*
X394431Y589896D01*
X393650Y591065D01*
X394414Y592208D01*
X396000Y591892D01*
X398146Y592319D01*
X399965Y593535D01*
X401181Y595354D01*
X401608Y597500D01*
X401181Y599646D01*
X399965Y601465D01*
X398146Y602681D01*
X396000Y603108D01*
D02*
G37*
G36*
X188250Y593358D02*
X186104Y592931D01*
X184285Y591715D01*
X183430Y590436D01*
X181966Y590347D01*
X181961Y590349D01*
X181215Y591465D01*
X179396Y592681D01*
X177250Y593108D01*
X175104Y592681D01*
X173285Y591465D01*
X172069Y589646D01*
X171642Y587500D01*
X172069Y585354D01*
X173285Y583535D01*
X173916Y583113D01*
Y579250D01*
X174000Y578827D01*
Y570500D01*
X187000D01*
Y580173D01*
X188188Y581295D01*
X188837Y581246D01*
X189000Y580997D01*
Y571000D01*
X202000D01*
Y582000D01*
X198834D01*
Y584250D01*
X198580Y585526D01*
X197857Y586608D01*
X195211Y589254D01*
X194129Y589977D01*
X193262Y590149D01*
X192215Y591715D01*
X190396Y592931D01*
X188250Y593358D01*
D02*
G37*
G36*
X247250Y596858D02*
X245104Y596431D01*
X243285Y595215D01*
X242069Y593396D01*
X241642Y591250D01*
X242069Y589104D01*
X243285Y587285D01*
X245104Y586069D01*
X247250Y585642D01*
X249396Y586069D01*
X251215Y587285D01*
X252431Y589104D01*
X252858Y591250D01*
X252431Y593396D01*
X251215Y595215D01*
X249396Y596431D01*
X247250Y596858D01*
D02*
G37*
G36*
X288896Y593962D02*
X286750Y593535D01*
X284930Y592320D01*
X283715Y590500D01*
X283288Y588354D01*
X283715Y586208D01*
X284930Y584389D01*
X286750Y583173D01*
X288896Y582747D01*
X291042Y583173D01*
X292861Y584389D01*
X294076Y586208D01*
X294503Y588354D01*
X294076Y590500D01*
X292861Y592320D01*
X291042Y593535D01*
X288896Y593962D01*
D02*
G37*
G36*
X448500Y600358D02*
X446354Y599931D01*
X444535Y598715D01*
X443319Y596896D01*
X442892Y594750D01*
X443319Y592604D01*
X444535Y590785D01*
X445526Y590123D01*
X445579Y589928D01*
X445439Y588653D01*
X444035Y587715D01*
X442819Y585896D01*
X442392Y583750D01*
X442819Y581604D01*
X444035Y579785D01*
X445854Y578569D01*
X448000Y578142D01*
X450146Y578569D01*
X451965Y579785D01*
X453181Y581604D01*
X453608Y583750D01*
X453181Y585896D01*
X451965Y587715D01*
X450974Y588377D01*
X450921Y588572D01*
X451061Y589847D01*
X452465Y590785D01*
X453681Y592604D01*
X454108Y594750D01*
X453681Y596896D01*
X452465Y598715D01*
X450646Y599931D01*
X448500Y600358D01*
D02*
G37*
G36*
X226750Y599358D02*
X224604Y598931D01*
X222785Y597715D01*
X221569Y595896D01*
X221142Y593750D01*
X221569Y591604D01*
X222785Y589785D01*
X224009Y588967D01*
X224393Y588392D01*
X235250Y577535D01*
Y571250D01*
X248250D01*
Y582250D01*
X239965D01*
X231402Y590813D01*
X231931Y591604D01*
X232358Y593750D01*
X231931Y595896D01*
X230715Y597715D01*
X228896Y598931D01*
X226750Y599358D01*
D02*
G37*
G36*
X528000Y582358D02*
X525854Y581931D01*
X524035Y580715D01*
X522819Y578896D01*
X522392Y576750D01*
X522819Y574604D01*
X524035Y572785D01*
X525854Y571569D01*
X528000Y571142D01*
X530146Y571569D01*
X531965Y572785D01*
X533181Y574604D01*
X533608Y576750D01*
X533181Y578896D01*
X531965Y580715D01*
X530146Y581931D01*
X528000Y582358D01*
D02*
G37*
G36*
X202000Y566000D02*
X189000D01*
Y563584D01*
X187000D01*
Y565500D01*
X174000D01*
Y563334D01*
X127707D01*
X127194Y563232D01*
X126896Y563431D01*
X124750Y563858D01*
X122604Y563431D01*
X120785Y562215D01*
X119569Y560396D01*
X119142Y558250D01*
X119569Y556104D01*
X120785Y554285D01*
X122604Y553069D01*
X124750Y552642D01*
X126896Y553069D01*
X128715Y554285D01*
X129931Y556104D01*
X130043Y556666D01*
X174000D01*
Y554500D01*
X187000D01*
Y556916D01*
X189000D01*
Y555000D01*
X202000D01*
Y566000D01*
D02*
G37*
G36*
X313500Y570358D02*
X311354Y569931D01*
X309535Y568715D01*
X308319Y566896D01*
X307892Y564750D01*
X308319Y562604D01*
X309535Y560785D01*
X311354Y559569D01*
X313500Y559142D01*
X315646Y559569D01*
X317465Y560785D01*
X318681Y562604D01*
X319108Y564750D01*
X318681Y566896D01*
X317465Y568715D01*
X315646Y569931D01*
X313500Y570358D01*
D02*
G37*
G36*
X462750Y569858D02*
X460604Y569431D01*
X458785Y568215D01*
X457569Y566396D01*
X457142Y564250D01*
X457569Y562104D01*
X458785Y560285D01*
X460604Y559069D01*
X462750Y558642D01*
X464896Y559069D01*
X466715Y560285D01*
X467931Y562104D01*
X468358Y564250D01*
X467931Y566396D01*
X466715Y568215D01*
X464896Y569431D01*
X462750Y569858D01*
D02*
G37*
G36*
X283500D02*
X281354Y569431D01*
X279535Y568215D01*
X278319Y566396D01*
X277892Y564250D01*
X278319Y562104D01*
X279535Y560285D01*
X281354Y559069D01*
X283500Y558642D01*
X285646Y559069D01*
X287465Y560285D01*
X288681Y562104D01*
X289108Y564250D01*
X288681Y566396D01*
X287465Y568215D01*
X285646Y569431D01*
X283500Y569858D01*
D02*
G37*
G36*
X531527Y568856D02*
X529381Y568429D01*
X527562Y567214D01*
X526346Y565395D01*
X525919Y563249D01*
X526346Y561103D01*
X527562Y559283D01*
X529381Y558068D01*
X531527Y557641D01*
X533673Y558068D01*
X535492Y559283D01*
X536708Y561103D01*
X537135Y563249D01*
X536708Y565395D01*
X535492Y567214D01*
X533673Y568429D01*
X531527Y568856D01*
D02*
G37*
G36*
X225750Y581608D02*
X223604Y581181D01*
X221785Y579965D01*
X220569Y578146D01*
X220142Y576000D01*
X220569Y573854D01*
X221785Y572035D01*
X222916Y571279D01*
Y563750D01*
X223170Y562474D01*
X223892Y561393D01*
X226893Y558392D01*
X227974Y557670D01*
X229250Y557416D01*
X235250D01*
Y555250D01*
X248250D01*
Y566250D01*
X235250D01*
Y564084D01*
X230631D01*
X229584Y565131D01*
Y571947D01*
X229715Y572035D01*
X230931Y573854D01*
X231358Y576000D01*
X230931Y578146D01*
X229715Y579965D01*
X227896Y581181D01*
X225750Y581608D01*
D02*
G37*
G36*
X751270Y559955D02*
Y551770D01*
X759455D01*
X759294Y552990D01*
X758333Y555311D01*
X756804Y557304D01*
X754811Y558833D01*
X752490Y559795D01*
X751270Y559955D01*
D02*
G37*
G36*
X748730D02*
X747510Y559795D01*
X745189Y558833D01*
X743196Y557304D01*
X741667Y555311D01*
X740706Y552990D01*
X740545Y551770D01*
X748730D01*
Y559955D01*
D02*
G37*
G36*
X419750Y550358D02*
X417604Y549931D01*
X415785Y548715D01*
X415363Y548084D01*
X371381D01*
X371357Y548107D01*
X370276Y548830D01*
X369000Y549084D01*
X367724Y548830D01*
X366642Y548107D01*
X300369Y481834D01*
X192131D01*
X157207Y516758D01*
X156126Y517480D01*
X154850Y517734D01*
X50152D01*
X49548Y519191D01*
X48025Y521175D01*
X46041Y522698D01*
X43730Y523656D01*
X41250Y523982D01*
X38770Y523656D01*
X36459Y522698D01*
X34475Y521175D01*
X32952Y519191D01*
X31995Y516880D01*
X31668Y514400D01*
X31995Y511920D01*
X32952Y509609D01*
X34475Y507625D01*
X36459Y506102D01*
X38770Y505145D01*
X41250Y504818D01*
X43730Y505145D01*
X46041Y506102D01*
X48025Y507625D01*
X49548Y509609D01*
X50152Y511066D01*
X153469D01*
X188393Y476143D01*
X189474Y475420D01*
X190750Y475166D01*
X288168D01*
X288553Y473896D01*
X287535Y473215D01*
X286319Y471396D01*
X285892Y469250D01*
X286319Y467104D01*
X287535Y465285D01*
X289354Y464069D01*
X291500Y463642D01*
X293646Y464069D01*
X295465Y465285D01*
X296681Y467104D01*
X297108Y469250D01*
X296681Y471396D01*
X295465Y473215D01*
X294447Y473896D01*
X294832Y475166D01*
X301750D01*
X303026Y475420D01*
X304107Y476143D01*
X369484Y541519D01*
X370000Y541416D01*
X415363D01*
X415785Y540785D01*
X417604Y539569D01*
X419750Y539142D01*
X421896Y539569D01*
X423715Y540785D01*
X424931Y542604D01*
X425358Y544750D01*
X424931Y546896D01*
X423715Y548715D01*
X421896Y549931D01*
X419750Y550358D01*
D02*
G37*
G36*
X257500Y555608D02*
X255354Y555181D01*
X253535Y553965D01*
X252319Y552146D01*
X251892Y550000D01*
X252319Y547854D01*
X253535Y546035D01*
X255354Y544819D01*
X257500Y544392D01*
X259646Y544819D01*
X261465Y546035D01*
X262681Y547854D01*
X263108Y550000D01*
X262681Y552146D01*
X261465Y553965D01*
X259646Y555181D01*
X257500Y555608D01*
D02*
G37*
G36*
X530750Y555358D02*
X528604Y554931D01*
X526785Y553715D01*
X525569Y551896D01*
X525142Y549750D01*
X525569Y547604D01*
X526785Y545785D01*
X528604Y544569D01*
X530750Y544142D01*
X532896Y544569D01*
X534715Y545785D01*
X535931Y547604D01*
X536358Y549750D01*
X535931Y551896D01*
X534715Y553715D01*
X532896Y554931D01*
X530750Y555358D01*
D02*
G37*
G36*
X226270Y549799D02*
Y542270D01*
X233799D01*
X233661Y543321D01*
X232765Y545483D01*
X231340Y547340D01*
X229483Y548765D01*
X227321Y549661D01*
X226270Y549799D01*
D02*
G37*
G36*
X223730D02*
X222679Y549661D01*
X220517Y548765D01*
X218660Y547340D01*
X217235Y545483D01*
X216339Y543321D01*
X216201Y542270D01*
X223730D01*
Y549799D01*
D02*
G37*
G36*
X709000Y559500D02*
X691000D01*
Y541500D01*
X709000D01*
Y559500D01*
D02*
G37*
G36*
X759455Y549230D02*
X751270D01*
Y541045D01*
X752490Y541206D01*
X754811Y542167D01*
X756804Y543696D01*
X758333Y545689D01*
X759294Y548010D01*
X759455Y549230D01*
D02*
G37*
G36*
X748730D02*
X740545D01*
X740706Y548010D01*
X741667Y545689D01*
X743196Y543696D01*
X745189Y542167D01*
X747510Y541206D01*
X748730Y541045D01*
Y549230D01*
D02*
G37*
G36*
X233799Y539730D02*
X226270D01*
Y532201D01*
X227321Y532339D01*
X229483Y533235D01*
X231340Y534660D01*
X232765Y536517D01*
X233661Y538679D01*
X233799Y539730D01*
D02*
G37*
G36*
X223730D02*
X216201D01*
X216339Y538679D01*
X217235Y536517D01*
X218660Y534660D01*
X220517Y533235D01*
X222679Y532339D01*
X223730Y532201D01*
Y539730D01*
D02*
G37*
G36*
X441750Y542108D02*
X439604Y541681D01*
X437785Y540465D01*
X436569Y538646D01*
X436142Y536500D01*
X436569Y534354D01*
X437785Y532535D01*
X439604Y531319D01*
X441750Y530892D01*
X443896Y531319D01*
X445715Y532535D01*
X446931Y534354D01*
X447358Y536500D01*
X446931Y538646D01*
X445715Y540465D01*
X443896Y541681D01*
X441750Y542108D01*
D02*
G37*
G36*
X41250Y549382D02*
X38770Y549055D01*
X36459Y548098D01*
X34475Y546576D01*
X32952Y544591D01*
X31995Y542280D01*
X31668Y539800D01*
X31995Y537320D01*
X32952Y535009D01*
X34475Y533025D01*
X36459Y531502D01*
X38770Y530545D01*
X41250Y530218D01*
X43730Y530545D01*
X46041Y531502D01*
X48025Y533025D01*
X49548Y535009D01*
X50505Y537320D01*
X50832Y539800D01*
X50505Y542280D01*
X49548Y544591D01*
X48025Y546576D01*
X46041Y548098D01*
X43730Y549055D01*
X41250Y549382D01*
D02*
G37*
G36*
X419250Y530358D02*
X417104Y529931D01*
X415285Y528715D01*
X414069Y526896D01*
X413642Y524750D01*
X414069Y522604D01*
X415285Y520785D01*
X417104Y519569D01*
X419250Y519142D01*
X421396Y519569D01*
X423215Y520785D01*
X424431Y522604D01*
X424858Y524750D01*
X424431Y526896D01*
X423215Y528715D01*
X421396Y529931D01*
X419250Y530358D01*
D02*
G37*
G36*
X434000Y529108D02*
X431854Y528681D01*
X430035Y527465D01*
X428819Y525646D01*
X428392Y523500D01*
X428819Y521354D01*
X430035Y519535D01*
X431854Y518319D01*
X434000Y517892D01*
X436146Y518319D01*
X437965Y519535D01*
X439181Y521354D01*
X439608Y523500D01*
X439181Y525646D01*
X437965Y527465D01*
X436146Y528681D01*
X434000Y529108D01*
D02*
G37*
G36*
X194480Y527588D02*
X192334Y527161D01*
X190515Y525945D01*
X189299Y524126D01*
X188872Y521980D01*
X189299Y519834D01*
X190515Y518015D01*
X192334Y516799D01*
X194480Y516372D01*
X196626Y516799D01*
X198445Y518015D01*
X199661Y519834D01*
X200088Y521980D01*
X199661Y524126D01*
X198445Y525945D01*
X196626Y527161D01*
X194480Y527588D01*
D02*
G37*
G36*
X180000Y526108D02*
X177854Y525681D01*
X176035Y524465D01*
X174819Y522646D01*
X174392Y520500D01*
X174819Y518354D01*
X176035Y516535D01*
X177854Y515319D01*
X180000Y514892D01*
X182146Y515319D01*
X183965Y516535D01*
X185181Y518354D01*
X185608Y520500D01*
X185181Y522646D01*
X183965Y524465D01*
X182146Y525681D01*
X180000Y526108D01*
D02*
G37*
G36*
X564500Y524358D02*
X562354Y523931D01*
X560535Y522715D01*
X559319Y520896D01*
X558892Y518750D01*
X559319Y516604D01*
X560535Y514785D01*
X562354Y513569D01*
X564500Y513142D01*
X566646Y513569D01*
X568465Y514785D01*
X569681Y516604D01*
X570108Y518750D01*
X569681Y520896D01*
X568465Y522715D01*
X566646Y523931D01*
X564500Y524358D01*
D02*
G37*
G36*
X577000Y524108D02*
X574854Y523681D01*
X573035Y522465D01*
X571819Y520646D01*
X571392Y518500D01*
X571819Y516354D01*
X573035Y514535D01*
X574854Y513319D01*
X577000Y512892D01*
X579146Y513319D01*
X580965Y514535D01*
X582181Y516354D01*
X582608Y518500D01*
X582181Y520646D01*
X580965Y522465D01*
X579146Y523681D01*
X577000Y524108D01*
D02*
G37*
G36*
X269500Y514358D02*
X267354Y513931D01*
X265535Y512715D01*
X264319Y510896D01*
X263892Y508750D01*
X264319Y506604D01*
X265535Y504785D01*
X267354Y503569D01*
X269500Y503142D01*
X271646Y503569D01*
X273465Y504785D01*
X274681Y506604D01*
X275108Y508750D01*
X274681Y510896D01*
X273465Y512715D01*
X271646Y513931D01*
X269500Y514358D01*
D02*
G37*
G36*
X357250Y508608D02*
X355104Y508181D01*
X353285Y506965D01*
X352069Y505146D01*
X351642Y503000D01*
X352069Y500854D01*
X353285Y499035D01*
X355104Y497819D01*
X357250Y497392D01*
X359396Y497819D01*
X361215Y499035D01*
X362431Y500854D01*
X362858Y503000D01*
X362431Y505146D01*
X361215Y506965D01*
X359396Y508181D01*
X357250Y508608D01*
D02*
G37*
G36*
X512500Y507858D02*
X510354Y507431D01*
X508535Y506215D01*
X507319Y504396D01*
X506892Y502250D01*
X507319Y500104D01*
X508535Y498285D01*
X510354Y497069D01*
X512500Y496642D01*
X514646Y497069D01*
X516465Y498285D01*
X517681Y500104D01*
X518108Y502250D01*
X517681Y504396D01*
X516465Y506215D01*
X514646Y507431D01*
X512500Y507858D01*
D02*
G37*
G36*
X492750Y507608D02*
X490604Y507181D01*
X488785Y505965D01*
X487569Y504146D01*
X487142Y502000D01*
X487569Y499854D01*
X488785Y498035D01*
X490604Y496819D01*
X492750Y496392D01*
X494896Y496819D01*
X496715Y498035D01*
X497931Y499854D01*
X498358Y502000D01*
X497931Y504146D01*
X496715Y505965D01*
X494896Y507181D01*
X492750Y507608D01*
D02*
G37*
G36*
X571000Y505358D02*
X568854Y504931D01*
X567035Y503715D01*
X565819Y501896D01*
X565392Y499750D01*
X565819Y497604D01*
X567035Y495785D01*
X568854Y494569D01*
X571000Y494142D01*
X573146Y494569D01*
X574965Y495785D01*
X576181Y497604D01*
X576608Y499750D01*
X576181Y501896D01*
X574965Y503715D01*
X573146Y504931D01*
X571000Y505358D01*
D02*
G37*
G36*
X42520Y498959D02*
Y490270D01*
X51209D01*
X51032Y491621D01*
X50020Y494063D01*
X48411Y496161D01*
X46313Y497770D01*
X43871Y498782D01*
X42520Y498959D01*
D02*
G37*
G36*
X39980D02*
X38629Y498782D01*
X36187Y497770D01*
X34089Y496161D01*
X32480Y494063D01*
X31468Y491621D01*
X31291Y490270D01*
X39980D01*
Y498959D01*
D02*
G37*
G36*
X51209Y487730D02*
X42520D01*
Y479041D01*
X43871Y479218D01*
X46313Y480230D01*
X48411Y481839D01*
X50020Y483937D01*
X51032Y486379D01*
X51209Y487730D01*
D02*
G37*
G36*
X39980D02*
X31291D01*
X31468Y486379D01*
X32480Y483937D01*
X34089Y481839D01*
X36187Y480230D01*
X38629Y479218D01*
X39980Y479041D01*
Y487730D01*
D02*
G37*
G36*
X560000Y489608D02*
X557854Y489181D01*
X556035Y487965D01*
X554819Y486146D01*
X554392Y484000D01*
X554819Y481854D01*
X556035Y480035D01*
X557854Y478819D01*
X560000Y478392D01*
X562146Y478819D01*
X563965Y480035D01*
X565181Y481854D01*
X565608Y484000D01*
X565181Y486146D01*
X563965Y487965D01*
X562146Y489181D01*
X560000Y489608D01*
D02*
G37*
G36*
X329230Y495358D02*
X327084Y494931D01*
X325265Y493715D01*
X324049Y491896D01*
X323622Y489750D01*
X324049Y487604D01*
X325265Y485785D01*
X325829Y485408D01*
X325896Y485107D01*
X325742Y483939D01*
X324285Y482965D01*
X323069Y481146D01*
X322642Y479000D01*
X323069Y476854D01*
X324285Y475035D01*
X326104Y473819D01*
X328250Y473392D01*
X330396Y473819D01*
X332215Y475035D01*
X333431Y476854D01*
X333858Y479000D01*
X333431Y481146D01*
X332215Y482965D01*
X331651Y483342D01*
X331584Y483643D01*
X331738Y484811D01*
X333195Y485785D01*
X334411Y487604D01*
X334838Y489750D01*
X334411Y491896D01*
X333195Y493715D01*
X331376Y494931D01*
X329230Y495358D01*
D02*
G37*
G36*
X362750Y469108D02*
X360604Y468681D01*
X358785Y467465D01*
X357569Y465646D01*
X357142Y463500D01*
X357569Y461354D01*
X358785Y459535D01*
X360604Y458319D01*
X362750Y457892D01*
X364896Y458319D01*
X366715Y459535D01*
X367931Y461354D01*
X368358Y463500D01*
X367931Y465646D01*
X366715Y467465D01*
X364896Y468681D01*
X362750Y469108D01*
D02*
G37*
G36*
X448750Y458608D02*
X446604Y458181D01*
X444785Y456965D01*
X444451Y456465D01*
X443215D01*
X441396Y457681D01*
X439250Y458108D01*
X437104Y457681D01*
X435285Y456465D01*
X434801Y455742D01*
X433531D01*
X433215Y456215D01*
X431396Y457431D01*
X429250Y457858D01*
X427104Y457431D01*
X425285Y456215D01*
X424069Y454396D01*
X423642Y452250D01*
X424069Y450104D01*
X425285Y448285D01*
X427104Y447069D01*
X429250Y446642D01*
X431396Y447069D01*
X433215Y448285D01*
X433699Y449008D01*
X434968D01*
X435285Y448535D01*
X437104Y447319D01*
X439250Y446892D01*
X441396Y447319D01*
X443215Y448535D01*
X443549Y449035D01*
X444785D01*
X446604Y447819D01*
X448750Y447392D01*
X450896Y447819D01*
X452715Y449035D01*
X453931Y450854D01*
X454358Y453000D01*
X453931Y455146D01*
X452715Y456965D01*
X450896Y458181D01*
X448750Y458608D01*
D02*
G37*
G36*
X41250Y473182D02*
X38770Y472855D01*
X36459Y471898D01*
X34475Y470376D01*
X32952Y468391D01*
X31995Y466080D01*
X31668Y463600D01*
X31995Y461120D01*
X32952Y458809D01*
X34475Y456825D01*
X36459Y455302D01*
X38770Y454345D01*
X41250Y454018D01*
X43730Y454345D01*
X46041Y455302D01*
X48025Y456825D01*
X49548Y458809D01*
X50505Y461120D01*
X50832Y463600D01*
X50505Y466080D01*
X49548Y468391D01*
X48025Y470376D01*
X46041Y471898D01*
X43730Y472855D01*
X41250Y473182D01*
D02*
G37*
G36*
X683515Y462655D02*
X672720D01*
Y451860D01*
X683515D01*
Y462655D01*
D02*
G37*
G36*
X670180D02*
X659385D01*
Y451860D01*
X670180D01*
Y462655D01*
D02*
G37*
G36*
X368750Y454608D02*
X366604Y454181D01*
X364785Y452965D01*
X363569Y451146D01*
X363142Y449000D01*
X363569Y446854D01*
X364785Y445035D01*
X366604Y443819D01*
X368750Y443392D01*
X370896Y443819D01*
X372715Y445035D01*
X373931Y446854D01*
X374358Y449000D01*
X373931Y451146D01*
X372715Y452965D01*
X370896Y454181D01*
X368750Y454608D01*
D02*
G37*
G36*
X722250Y462214D02*
X719241Y461818D01*
X716438Y460657D01*
X714030Y458810D01*
X712183Y456402D01*
X711022Y453599D01*
X710626Y450590D01*
X711022Y447581D01*
X712183Y444778D01*
X714030Y442370D01*
X716438Y440523D01*
X719241Y439362D01*
X722250Y438965D01*
X725259Y439362D01*
X728062Y440523D01*
X730470Y442370D01*
X732317Y444778D01*
X733478Y447581D01*
X733875Y450590D01*
X733478Y453599D01*
X732317Y456402D01*
X730470Y458810D01*
X728062Y460657D01*
X725259Y461818D01*
X722250Y462214D01*
D02*
G37*
G36*
X696850D02*
X693841Y461818D01*
X691038Y460657D01*
X688630Y458810D01*
X686783Y456402D01*
X685622Y453599D01*
X685226Y450590D01*
X685622Y447581D01*
X686783Y444778D01*
X688630Y442370D01*
X691038Y440523D01*
X693841Y439362D01*
X696850Y438965D01*
X699859Y439362D01*
X702662Y440523D01*
X705070Y442370D01*
X706917Y444778D01*
X708078Y447581D01*
X708475Y450590D01*
X708078Y453599D01*
X706917Y456402D01*
X705070Y458810D01*
X702662Y460657D01*
X699859Y461818D01*
X696850Y462214D01*
D02*
G37*
G36*
X683515Y449320D02*
X672720D01*
Y438525D01*
X683515D01*
Y449320D01*
D02*
G37*
G36*
X670180D02*
X659385D01*
Y438525D01*
X670180D01*
Y449320D01*
D02*
G37*
G36*
X50750Y447700D02*
X31750D01*
Y428700D01*
X50750D01*
Y447700D01*
D02*
G37*
G36*
X377000Y439358D02*
X374854Y438931D01*
X373035Y437715D01*
X371819Y435896D01*
X371392Y433750D01*
X371819Y431604D01*
X372577Y430470D01*
X372601Y429329D01*
X372205Y428914D01*
X370785Y427965D01*
X369569Y426146D01*
X369142Y424000D01*
X369569Y421854D01*
X370785Y420035D01*
X372604Y418819D01*
X374750Y418392D01*
X376896Y418819D01*
X378715Y420035D01*
X379931Y421854D01*
X380358Y424000D01*
X379931Y426146D01*
X379173Y427280D01*
X379149Y428420D01*
X379545Y428836D01*
X380965Y429785D01*
X382181Y431604D01*
X382608Y433750D01*
X382181Y435896D01*
X380965Y437715D01*
X379146Y438931D01*
X377000Y439358D01*
D02*
G37*
G36*
X570500Y422108D02*
X568354Y421681D01*
X566535Y420465D01*
X565319Y418646D01*
X564892Y416500D01*
X565319Y414354D01*
X566535Y412535D01*
X568354Y411319D01*
X570500Y410892D01*
X572646Y411319D01*
X574465Y412535D01*
X575681Y414354D01*
X576108Y416500D01*
X575681Y418646D01*
X574465Y420465D01*
X572646Y421681D01*
X570500Y422108D01*
D02*
G37*
G36*
X150000Y399358D02*
X147854Y398931D01*
X146035Y397715D01*
X144819Y395896D01*
X144392Y393750D01*
X144819Y391604D01*
X146035Y389785D01*
X147854Y388569D01*
X150000Y388142D01*
X152146Y388569D01*
X153965Y389785D01*
X155181Y391604D01*
X155608Y393750D01*
X155181Y395896D01*
X153965Y397715D01*
X152146Y398931D01*
X150000Y399358D01*
D02*
G37*
G36*
X96500Y382858D02*
X94354Y382431D01*
X92535Y381215D01*
X91319Y379396D01*
X90892Y377250D01*
X91319Y375104D01*
X92535Y373285D01*
X94354Y372069D01*
X96500Y371642D01*
X98646Y372069D01*
X100465Y373285D01*
X101681Y375104D01*
X102108Y377250D01*
X101681Y379396D01*
X100465Y381215D01*
X98646Y382431D01*
X96500Y382858D01*
D02*
G37*
G36*
X483500Y379608D02*
X481354Y379181D01*
X479535Y377965D01*
X478319Y376146D01*
X477892Y374000D01*
X478319Y371854D01*
X479535Y370035D01*
X481354Y368819D01*
X483500Y368392D01*
X485646Y368819D01*
X487465Y370035D01*
X488681Y371854D01*
X489108Y374000D01*
X488681Y376146D01*
X487465Y377965D01*
X485646Y379181D01*
X483500Y379608D01*
D02*
G37*
G36*
X342000Y378608D02*
X339854Y378181D01*
X338035Y376965D01*
X336819Y375146D01*
X336392Y373000D01*
X336819Y370854D01*
X338035Y369035D01*
X339854Y367819D01*
X342000Y367392D01*
X344146Y367819D01*
X345965Y369035D01*
X347181Y370854D01*
X347608Y373000D01*
X347181Y375146D01*
X345965Y376965D01*
X344146Y378181D01*
X342000Y378608D01*
D02*
G37*
G36*
X368250Y378108D02*
X366104Y377681D01*
X364285Y376465D01*
X363069Y374646D01*
X362642Y372500D01*
X363069Y370354D01*
X364285Y368535D01*
X366104Y367319D01*
X368250Y366892D01*
X370396Y367319D01*
X372215Y368535D01*
X373431Y370354D01*
X373858Y372500D01*
X373431Y374646D01*
X372215Y376465D01*
X370396Y377681D01*
X368250Y378108D01*
D02*
G37*
G36*
X84500Y371608D02*
X82354Y371181D01*
X80535Y369965D01*
X79319Y368146D01*
X78892Y366000D01*
X79319Y363854D01*
X80535Y362035D01*
X82354Y360819D01*
X84500Y360392D01*
X86646Y360819D01*
X88465Y362035D01*
X89681Y363854D01*
X90108Y366000D01*
X89681Y368146D01*
X88465Y369965D01*
X86646Y371181D01*
X84500Y371608D01*
D02*
G37*
G36*
X792750Y410341D02*
X788121Y409977D01*
X783606Y408893D01*
X779316Y407116D01*
X775357Y404690D01*
X771826Y401674D01*
X768810Y398143D01*
X766384Y394184D01*
X764607Y389894D01*
X763523Y385379D01*
X763159Y380750D01*
X763523Y376121D01*
X764607Y371606D01*
X766384Y367316D01*
X768810Y363357D01*
X771826Y359826D01*
X775357Y356810D01*
X779316Y354384D01*
X783606Y352607D01*
X788121Y351523D01*
X792750Y351159D01*
X797379Y351523D01*
X801894Y352607D01*
X806184Y354384D01*
X810143Y356810D01*
X813674Y359826D01*
X816690Y363357D01*
X819116Y367316D01*
X820893Y371606D01*
X821977Y376121D01*
X822341Y380750D01*
X821977Y385379D01*
X820893Y389894D01*
X819116Y394184D01*
X816690Y398143D01*
X813674Y401674D01*
X810143Y404690D01*
X806184Y407116D01*
X801894Y408893D01*
X797379Y409977D01*
X792750Y410341D01*
D02*
G37*
G36*
X37000D02*
X32371Y409977D01*
X27856Y408893D01*
X23566Y407116D01*
X19607Y404690D01*
X16076Y401674D01*
X13060Y398143D01*
X10634Y394184D01*
X8857Y389894D01*
X7773Y385379D01*
X7409Y380750D01*
X7773Y376121D01*
X8857Y371606D01*
X10634Y367316D01*
X13060Y363357D01*
X16076Y359826D01*
X19607Y356810D01*
X23566Y354384D01*
X27856Y352607D01*
X32371Y351523D01*
X37000Y351159D01*
X41629Y351523D01*
X46144Y352607D01*
X50434Y354384D01*
X54393Y356810D01*
X57924Y359826D01*
X60940Y363357D01*
X63366Y367316D01*
X65143Y371606D01*
X66227Y376121D01*
X66591Y380750D01*
X66227Y385379D01*
X65143Y389894D01*
X63366Y394184D01*
X60940Y398143D01*
X57924Y401674D01*
X54393Y404690D01*
X50434Y407116D01*
X46144Y408893D01*
X41629Y409977D01*
X37000Y410341D01*
D02*
G37*
G36*
X110250Y359108D02*
X108104Y358681D01*
X106285Y357465D01*
X105069Y355646D01*
X104642Y353500D01*
X105069Y351354D01*
X106285Y349535D01*
X108104Y348319D01*
X110250Y347892D01*
X112396Y348319D01*
X114215Y349535D01*
X115431Y351354D01*
X115858Y353500D01*
X115431Y355646D01*
X114215Y357465D01*
X112396Y358681D01*
X110250Y359108D01*
D02*
G37*
G36*
X650220Y346329D02*
Y337135D01*
X659414D01*
X659219Y338616D01*
X658157Y341180D01*
X656467Y343382D01*
X654266Y345072D01*
X651702Y346134D01*
X650220Y346329D01*
D02*
G37*
G36*
X647680D02*
X646199Y346134D01*
X643635Y345072D01*
X641433Y343382D01*
X639743Y341180D01*
X638681Y338616D01*
X638486Y337135D01*
X647680D01*
Y346329D01*
D02*
G37*
G36*
X227970D02*
Y337135D01*
X237164D01*
X236969Y338616D01*
X235907Y341180D01*
X234217Y343382D01*
X232015Y345072D01*
X229452Y346134D01*
X227970Y346329D01*
D02*
G37*
G36*
X225430D02*
X223948Y346134D01*
X221385Y345072D01*
X219183Y343382D01*
X217493Y341180D01*
X216431Y338616D01*
X216236Y337135D01*
X225430D01*
Y346329D01*
D02*
G37*
G36*
X633550Y345865D02*
X613550D01*
Y325865D01*
X633550D01*
Y345865D01*
D02*
G37*
G36*
X211300D02*
X191300D01*
Y325865D01*
X211300D01*
Y345865D01*
D02*
G37*
G36*
X659414Y334595D02*
X650220D01*
Y325401D01*
X651702Y325596D01*
X654266Y326658D01*
X656467Y328348D01*
X658157Y330550D01*
X659219Y333114D01*
X659414Y334595D01*
D02*
G37*
G36*
X647680D02*
X638486D01*
X638681Y333114D01*
X639743Y330550D01*
X641433Y328348D01*
X643635Y326658D01*
X646199Y325596D01*
X647680Y325401D01*
Y334595D01*
D02*
G37*
G36*
X237164D02*
X227970D01*
Y325401D01*
X229452Y325596D01*
X232015Y326658D01*
X234217Y328348D01*
X235907Y330550D01*
X236969Y333114D01*
X237164Y334595D01*
D02*
G37*
G36*
X225430D02*
X216236D01*
X216431Y333114D01*
X217493Y330550D01*
X219183Y328348D01*
X221385Y326658D01*
X223948Y325596D01*
X225430Y325401D01*
Y334595D01*
D02*
G37*
G36*
X387500Y350000D02*
X255885D01*
X254250Y348365D01*
Y325250D01*
X241250Y312250D01*
X176000D01*
X150750Y287000D01*
X7250D01*
Y7500D01*
X419500D01*
Y154334D01*
X419748Y154557D01*
X419748Y154481D01*
X419500Y7500D01*
X832000D01*
Y340000D01*
X823500Y348500D01*
X823365Y348365D01*
X667615D01*
Y324615D01*
X653750Y310750D01*
X587750D01*
X570250Y293250D01*
X473250D01*
X465750Y285750D01*
Y188750D01*
X451500Y174500D01*
X438500D01*
X420593Y156594D01*
X419826Y155826D01*
X419750Y155750D01*
X419656Y155844D01*
X418853Y156647D01*
X402500Y173000D01*
Y205787D01*
X403770Y205837D01*
X404023Y202621D01*
X405107Y198106D01*
X406884Y193816D01*
X409310Y189857D01*
X412326Y186326D01*
X415857Y183310D01*
X419816Y180884D01*
X424106Y179107D01*
X428621Y178023D01*
X433250Y177659D01*
X437879Y178023D01*
X442394Y179107D01*
X446684Y180884D01*
X450643Y183310D01*
X454174Y186326D01*
X457190Y189857D01*
X459616Y193816D01*
X461393Y198106D01*
X462477Y202621D01*
X462841Y207250D01*
X462477Y211879D01*
X461393Y216394D01*
X459616Y220684D01*
X457190Y224643D01*
X454174Y228174D01*
X450643Y231190D01*
X446684Y233616D01*
X442394Y235393D01*
X437879Y236477D01*
X433250Y236841D01*
X428621Y236477D01*
X424106Y235393D01*
X419816Y233616D01*
X415857Y231190D01*
X412326Y228174D01*
X409310Y224643D01*
X406884Y220684D01*
X405107Y216394D01*
X404023Y211879D01*
X403770Y208663D01*
X402500Y208713D01*
Y335000D01*
X387500Y350000D01*
D02*
G37*
%LPD*%
G36*
X191702Y588393D02*
X191745Y588345D01*
X191810Y588303D01*
X191895Y588267D01*
X192002Y588237D01*
X192130Y588211D01*
X192279Y588192D01*
X192641Y588169D01*
X192853Y588167D01*
Y585627D01*
X192507Y585625D01*
X190979Y585536D01*
X190943Y585515D01*
X191680Y588446D01*
X191702Y588393D01*
D02*
G37*
G36*
X196783Y582027D02*
X196821Y581595D01*
X196884Y581214D01*
X196973Y580884D01*
X197087Y580605D01*
X197227Y580376D01*
X197392Y580198D01*
X197583Y580071D01*
X197799Y579995D01*
X198040Y579969D01*
X192960D01*
X193201Y579995D01*
X193417Y580071D01*
X193608Y580198D01*
X193773Y580376D01*
X193913Y580605D01*
X194027Y580884D01*
X194116Y581214D01*
X194179Y581595D01*
X194217Y582027D01*
X194230Y582509D01*
X196770D01*
X196783Y582027D01*
D02*
G37*
G36*
X178533Y581527D02*
X178571Y581095D01*
X178634Y580714D01*
X178723Y580384D01*
X178838Y580104D01*
X178977Y579876D01*
X179142Y579698D01*
X179333Y579571D01*
X179549Y579495D01*
X179790Y579469D01*
X176031D01*
X176021Y579495D01*
X176012Y579571D01*
X176005Y579698D01*
X175980Y582010D01*
X178520D01*
X178533Y581527D01*
D02*
G37*
G36*
X191061Y557710D02*
X191035Y557951D01*
X190958Y558167D01*
X190830Y558358D01*
X190650Y558523D01*
X190418Y558662D01*
X190136Y558777D01*
X189801Y558866D01*
X189416Y558929D01*
X188979Y558967D01*
X188491Y558980D01*
Y561520D01*
X188979Y561533D01*
X189416Y561571D01*
X189801Y561634D01*
X190136Y561723D01*
X190418Y561838D01*
X190650Y561977D01*
X190830Y562142D01*
X190958Y562333D01*
X191035Y562549D01*
X191061Y562790D01*
Y557710D01*
D02*
G37*
G36*
X184965Y562549D02*
X185042Y562333D01*
X185170Y562142D01*
X185350Y561977D01*
X185582Y561838D01*
X185864Y561723D01*
X186199Y561634D01*
X186584Y561571D01*
X187021Y561533D01*
X187509Y561520D01*
Y558980D01*
X187021Y558967D01*
X186584Y558929D01*
X186199Y558866D01*
X185864Y558777D01*
X185582Y558662D01*
X185350Y558523D01*
X185170Y558358D01*
X185042Y558167D01*
X184965Y557951D01*
X184939Y557710D01*
Y562790D01*
X184965Y562549D01*
D02*
G37*
G36*
X176061Y557460D02*
X176035Y557701D01*
X175958Y557917D01*
X175830Y558108D01*
X175650Y558273D01*
X175418Y558413D01*
X175136Y558527D01*
X174801Y558616D01*
X174416Y558679D01*
X173979Y558717D01*
X173491Y558730D01*
Y561270D01*
X173979Y561283D01*
X174416Y561321D01*
X174801Y561384D01*
X175136Y561473D01*
X175418Y561587D01*
X175650Y561727D01*
X175830Y561892D01*
X175958Y562083D01*
X176035Y562299D01*
X176061Y562540D01*
Y557460D01*
D02*
G37*
G36*
X237311Y558210D02*
X237285Y558451D01*
X237208Y558667D01*
X237080Y558858D01*
X236900Y559023D01*
X236668Y559162D01*
X236386Y559277D01*
X236051Y559366D01*
X235666Y559429D01*
X235229Y559467D01*
X234741Y559480D01*
Y562020D01*
X235229Y562033D01*
X235666Y562071D01*
X236051Y562134D01*
X236386Y562223D01*
X236668Y562337D01*
X236900Y562477D01*
X237080Y562642D01*
X237208Y562833D01*
X237285Y563049D01*
X237311Y563290D01*
Y558210D01*
D02*
G37*
G36*
X623750Y174000D02*
X622800Y173950D01*
X621950Y173800D01*
X621200Y173550D01*
X620550Y173200D01*
X620000Y172750D01*
X619550Y172200D01*
X619200Y171550D01*
X618950Y170800D01*
X618800Y169950D01*
X618750Y169000D01*
X613750D01*
X613700Y169950D01*
X613550Y170800D01*
X613300Y171550D01*
X612950Y172200D01*
X612500Y172750D01*
X611950Y173200D01*
X611300Y173550D01*
X610550Y173800D01*
X609700Y173950D01*
X608750Y174000D01*
X616250Y179000D01*
X623750Y174000D01*
D02*
G37*
G36*
X209750D02*
X208800Y173950D01*
X207950Y173800D01*
X207200Y173550D01*
X206550Y173200D01*
X206000Y172750D01*
X205550Y172200D01*
X205200Y171550D01*
X204950Y170800D01*
X204800Y169950D01*
X204750Y169000D01*
X199750D01*
X199700Y169950D01*
X199550Y170800D01*
X199300Y171550D01*
X198950Y172200D01*
X198500Y172750D01*
X197950Y173200D01*
X197300Y173550D01*
X196550Y173800D01*
X195700Y173950D01*
X194750Y174000D01*
X202250Y179000D01*
X209750Y174000D01*
D02*
G37*
G36*
X692156Y172838D02*
X692847Y172320D01*
X693615Y171841D01*
X694460Y171401D01*
X695383Y170999D01*
X696382Y170636D01*
X697458Y170311D01*
X699841Y169778D01*
X701149Y169570D01*
X691830Y160251D01*
X691622Y161559D01*
X691089Y163942D01*
X690764Y165018D01*
X690401Y166017D01*
X689999Y166940D01*
X689559Y167785D01*
X689080Y168553D01*
X688562Y169244D01*
X688006Y169858D01*
X691542Y173394D01*
X692156Y172838D01*
D02*
G37*
G36*
X273156D02*
X273847Y172320D01*
X274615Y171841D01*
X275460Y171401D01*
X276383Y170999D01*
X277382Y170636D01*
X278458Y170311D01*
X280841Y169778D01*
X282149Y169570D01*
X272830Y160251D01*
X272622Y161559D01*
X272089Y163942D01*
X271764Y165018D01*
X271401Y166017D01*
X271000Y166940D01*
X270559Y167785D01*
X270080Y168553D01*
X269562Y169244D01*
X269006Y169858D01*
X272542Y173394D01*
X273156Y172838D01*
D02*
G37*
G36*
X91744Y169858D02*
X91188Y169244D01*
X90670Y168553D01*
X90191Y167785D01*
X89750Y166940D01*
X89349Y166017D01*
X88986Y165018D01*
X88661Y163942D01*
X88128Y161559D01*
X87920Y160251D01*
X78601Y169570D01*
X79909Y169778D01*
X82292Y170311D01*
X83368Y170636D01*
X84368Y170999D01*
X85290Y171401D01*
X86135Y171841D01*
X86903Y172320D01*
X87594Y172838D01*
X88209Y173394D01*
X91744Y169858D01*
D02*
G37*
G36*
X679111Y131000D02*
X679061Y131475D01*
X678910Y131900D01*
X678658Y132275D01*
X678306Y132600D01*
X677853Y132875D01*
X677300Y133100D01*
X676646Y133275D01*
X675891Y133400D01*
X675036Y133475D01*
X674081Y133500D01*
Y138500D01*
X675036Y138525D01*
X675891Y138600D01*
X676646Y138725D01*
X677300Y138900D01*
X677853Y139125D01*
X678306Y139400D01*
X678658Y139725D01*
X678910Y140100D01*
X679061Y140525D01*
X679111Y141000D01*
Y131000D01*
D02*
G37*
G36*
X260111D02*
X260061Y131475D01*
X259910Y131900D01*
X259658Y132275D01*
X259306Y132600D01*
X258853Y132875D01*
X258300Y133100D01*
X257646Y133275D01*
X256891Y133400D01*
X256036Y133475D01*
X255081Y133500D01*
Y138500D01*
X256036Y138525D01*
X256891Y138600D01*
X257646Y138725D01*
X258300Y138900D01*
X258853Y139125D01*
X259306Y139400D01*
X259658Y139725D01*
X259910Y140100D01*
X260061Y140525D01*
X260111Y141000D01*
Y131000D01*
D02*
G37*
G36*
X638684Y112224D02*
X638814Y110147D01*
X638873Y109813D01*
X638943Y109553D01*
X639025Y109368D01*
X639117Y109257D01*
X639220Y109220D01*
X632469D01*
X632699Y109257D01*
X632905Y109368D01*
X633086Y109553D01*
X633243Y109813D01*
X633376Y110147D01*
X633485Y110555D01*
X633569Y111037D01*
X633630Y111593D01*
X633678Y112928D01*
X638678D01*
X638684Y112224D01*
D02*
G37*
G36*
X618765Y113270D02*
X618882Y111670D01*
X618985Y111019D01*
X619117Y110470D01*
X619279Y110020D01*
X619470Y109670D01*
X619691Y109419D01*
X619940Y109270D01*
X620219Y109220D01*
X612281D01*
X612560Y109270D01*
X612809Y109419D01*
X613030Y109670D01*
X613221Y110020D01*
X613383Y110470D01*
X613515Y111019D01*
X613618Y111670D01*
X613691Y112420D01*
X613750Y114220D01*
X618750D01*
X618765Y113270D01*
D02*
G37*
G36*
X204765D02*
X204882Y111670D01*
X204985Y111019D01*
X205117Y110470D01*
X205279Y110020D01*
X205470Y109670D01*
X205690Y109419D01*
X205940Y109270D01*
X206220Y109220D01*
X198281D01*
X198560Y109270D01*
X198810Y109419D01*
X199030Y109670D01*
X199221Y110020D01*
X199383Y110470D01*
X199515Y111019D01*
X199618Y111670D01*
X199691Y112420D01*
X199750Y114220D01*
X204750D01*
X204765Y113270D01*
D02*
G37*
G36*
X228755Y109220D02*
X227765Y108194D01*
X226209Y106356D01*
X225644Y105543D01*
X225219Y104800D01*
X224937Y104128D01*
X224795Y103527D01*
Y102997D01*
X224937Y102537D01*
X225219Y102149D01*
X218148Y109220D01*
X218537Y108937D01*
X218997Y108795D01*
X219527D01*
X220128Y108937D01*
X220800Y109220D01*
X221542Y109644D01*
X222356Y110210D01*
X223240Y110917D01*
X225219Y112755D01*
X228755Y109220D01*
D02*
G37*
G36*
X629440Y75731D02*
X629190Y75581D01*
X628970Y75331D01*
X628779Y74981D01*
X628617Y74531D01*
X628485Y73980D01*
X628382Y73330D01*
X628309Y72580D01*
X628250Y70781D01*
X623250D01*
X623235Y71730D01*
X623118Y73330D01*
X623015Y73980D01*
X622883Y74531D01*
X622721Y74981D01*
X622530Y75331D01*
X622309Y75581D01*
X622060Y75731D01*
X621781Y75781D01*
X629720D01*
X629440Y75731D01*
D02*
G37*
G36*
X215440D02*
X215191Y75581D01*
X214970Y75331D01*
X214779Y74981D01*
X214617Y74531D01*
X214485Y73980D01*
X214382Y73330D01*
X214309Y72580D01*
X214250Y70781D01*
X209250D01*
X209235Y71730D01*
X209118Y73330D01*
X209015Y73980D01*
X208883Y74531D01*
X208721Y74981D01*
X208530Y75331D01*
X208309Y75581D01*
X208060Y75731D01*
X207780Y75781D01*
X215720D01*
X215440Y75731D01*
D02*
G37*
G36*
X801126Y31218D02*
X798988Y32792D01*
X793299Y36518D01*
X791645Y37429D01*
X788698Y38755D01*
X787405Y39169D01*
X786234Y39417D01*
X785183Y39500D01*
Y44500D01*
X786234Y44583D01*
X787405Y44831D01*
X788698Y45245D01*
X790111Y45825D01*
X791645Y46571D01*
X795075Y48558D01*
X796971Y49801D01*
X801126Y52782D01*
Y31218D01*
D02*
G37*
G36*
X664512Y51208D02*
X670201Y47481D01*
X671855Y46571D01*
X674802Y45245D01*
X676095Y44831D01*
X677266Y44583D01*
X678316Y44500D01*
Y39500D01*
X677266Y39417D01*
X676095Y39169D01*
X674802Y38755D01*
X673389Y38175D01*
X671855Y37429D01*
X668425Y35442D01*
X666529Y34200D01*
X662374Y31218D01*
Y52782D01*
X664512Y51208D01*
D02*
G37*
G36*
X646126Y31218D02*
X643988Y32792D01*
X638299Y36518D01*
X636645Y37429D01*
X633698Y38755D01*
X632406Y39169D01*
X631234Y39417D01*
X630183Y39500D01*
Y44500D01*
X631234Y44583D01*
X632406Y44831D01*
X633698Y45245D01*
X635111Y45825D01*
X636645Y46571D01*
X640075Y48558D01*
X641971Y49801D01*
X646126Y52782D01*
Y31218D01*
D02*
G37*
G36*
X610512Y51208D02*
X616201Y47481D01*
X617855Y46571D01*
X620802Y45245D01*
X622095Y44831D01*
X623266Y44583D01*
X624316Y44500D01*
Y39500D01*
X623266Y39417D01*
X622095Y39169D01*
X620802Y38755D01*
X619389Y38175D01*
X617855Y37429D01*
X614425Y35442D01*
X612529Y34200D01*
X608374Y31218D01*
Y52782D01*
X610512Y51208D01*
D02*
G37*
G36*
X592126Y31218D02*
X589988Y32792D01*
X584299Y36518D01*
X582645Y37429D01*
X579698Y38755D01*
X578405Y39169D01*
X577234Y39417D01*
X576184Y39500D01*
Y44500D01*
X577234Y44583D01*
X578405Y44831D01*
X579698Y45245D01*
X581111Y45825D01*
X582645Y46571D01*
X586075Y48558D01*
X587971Y49801D01*
X592126Y52782D01*
Y31218D01*
D02*
G37*
G36*
X455512Y51208D02*
X461201Y47481D01*
X462855Y46571D01*
X465802Y45245D01*
X467095Y44831D01*
X468266Y44583D01*
X469316Y44500D01*
Y39500D01*
X468266Y39417D01*
X467095Y39169D01*
X465802Y38755D01*
X464389Y38175D01*
X462855Y37429D01*
X459425Y35442D01*
X457529Y34200D01*
X453374Y31218D01*
Y52782D01*
X455512Y51208D01*
D02*
G37*
G36*
X382126Y31218D02*
X379988Y32792D01*
X374299Y36518D01*
X372645Y37429D01*
X369698Y38755D01*
X368405Y39169D01*
X367234Y39417D01*
X366184Y39500D01*
Y44500D01*
X367234Y44583D01*
X368405Y44831D01*
X369698Y45245D01*
X371111Y45825D01*
X372645Y46571D01*
X376075Y48558D01*
X377971Y49801D01*
X382126Y52782D01*
Y31218D01*
D02*
G37*
G36*
X245512Y51208D02*
X251201Y47481D01*
X252855Y46571D01*
X255802Y45245D01*
X257095Y44831D01*
X258266Y44583D01*
X259317Y44500D01*
Y39500D01*
X258266Y39417D01*
X257095Y39169D01*
X255802Y38755D01*
X254389Y38175D01*
X252855Y37429D01*
X249425Y35442D01*
X247529Y34200D01*
X243374Y31218D01*
Y52782D01*
X245512Y51208D01*
D02*
G37*
G36*
X207785Y57250D02*
X207101Y56448D01*
X206448Y55444D01*
X205828Y54238D01*
X205238Y52829D01*
X204681Y51217D01*
X203874Y48187D01*
X204951Y47481D01*
X206605Y46571D01*
X209552Y45245D01*
X210845Y44831D01*
X212016Y44583D01*
X212125Y44574D01*
X212234Y44583D01*
X213405Y44831D01*
X214698Y45245D01*
X216111Y45825D01*
X217645Y46571D01*
X221075Y48558D01*
X222971Y49801D01*
X227126Y52782D01*
Y31218D01*
X224988Y32792D01*
X219299Y36518D01*
X217645Y37429D01*
X214698Y38755D01*
X213405Y39169D01*
X212234Y39417D01*
X212125Y39426D01*
X212016Y39417D01*
X210845Y39169D01*
X209552Y38755D01*
X208139Y38175D01*
X206605Y37429D01*
X203175Y35442D01*
X201279Y34200D01*
X197124Y31218D01*
Y45365D01*
X187121Y55368D01*
X189745Y55768D01*
X196403Y57155D01*
X198217Y57681D01*
X201238Y58828D01*
X202444Y59448D01*
X203448Y60101D01*
X204250Y60785D01*
X207785Y57250D01*
D02*
G37*
G36*
X180876Y31218D02*
X178738Y32792D01*
X173049Y36518D01*
X171395Y37429D01*
X168448Y38755D01*
X167155Y39169D01*
X165984Y39417D01*
X164933Y39500D01*
Y44500D01*
X165984Y44583D01*
X167155Y44831D01*
X168448Y45245D01*
X169861Y45825D01*
X171395Y46571D01*
X174825Y48558D01*
X176721Y49801D01*
X180876Y52782D01*
Y31218D01*
D02*
G37*
G36*
X44262Y51208D02*
X49951Y47481D01*
X51606Y46571D01*
X54552Y45245D01*
X55845Y44831D01*
X57016Y44583D01*
X58067Y44500D01*
Y39500D01*
X57016Y39417D01*
X55845Y39169D01*
X54552Y38755D01*
X53139Y38175D01*
X51606Y37429D01*
X48175Y35442D01*
X46279Y34200D01*
X42124Y31218D01*
Y52782D01*
X44262Y51208D01*
D02*
G37*
D18*
X226750Y590750D02*
X240750Y576750D01*
X226750Y590750D02*
Y593750D01*
X127707Y560000D02*
X180500D01*
X195250Y560250D02*
X195500Y560500D01*
X180750Y560250D02*
X195250D01*
X180500Y560000D02*
X180750Y560250D01*
X370000Y544750D02*
X419750D01*
X369000Y545750D02*
X370000Y544750D01*
X190750Y478500D02*
X301750D01*
X369000Y545750D01*
X41250Y514400D02*
X154850D01*
X190750Y478500D01*
X105500Y860750D02*
X208500D01*
X230000Y882250D01*
X92000Y847250D02*
X105500Y860750D01*
X89750Y847250D02*
X92000D01*
X195500Y576500D02*
Y584250D01*
X189103Y586897D02*
X192853D01*
X195500Y584250D01*
X188250Y587750D02*
X189103Y586897D01*
X177250Y579250D02*
Y587500D01*
Y579250D02*
X180500Y576000D01*
X230000Y882250D02*
X261000D01*
X225750Y576000D02*
X226250Y575500D01*
Y563750D02*
Y575500D01*
X229250Y560750D02*
X241750D01*
X226250Y563750D02*
X229250Y560750D01*
X240750Y576750D02*
X241750D01*
D24*
X213750Y791000D02*
D03*
Y807000D02*
D03*
X225250Y717250D02*
D03*
Y701250D02*
D03*
D26*
X241750Y576750D02*
D03*
Y560750D02*
D03*
X195500Y576500D02*
D03*
Y560500D02*
D03*
X180500Y576000D02*
D03*
Y560000D02*
D03*
D87*
X453000Y42000D02*
X608000D01*
Y43797D01*
X625750Y59750D02*
Y83812D01*
X612177Y47974D02*
X613974D01*
X608000Y43797D02*
X612177Y47974D01*
X613974D02*
X625750Y59750D01*
X608000Y42000D02*
X654250D01*
X490424Y163936D02*
X495462Y168974D01*
Y169212D02*
X502750Y176500D01*
X495462Y168974D02*
Y169212D01*
X502750Y176500D02*
X616250D01*
Y102362D02*
Y176500D01*
X684900D01*
X635250Y103750D02*
X636178Y104678D01*
Y112928D01*
X659250Y136000D01*
X687300D01*
X225250Y717250D02*
X225900Y717900D01*
Y743700D01*
X226550Y744350D01*
X213850Y769750D02*
X224832Y758768D01*
Y746068D02*
Y758768D01*
Y746068D02*
X226550Y744350D01*
X213750Y791000D02*
X213800Y790950D01*
Y769800D02*
Y790950D01*
Y769800D02*
X213850Y769750D01*
X684900Y176500D02*
X700000Y161400D01*
X654250Y42000D02*
X809250D01*
X235250D02*
X390250D01*
X189000D02*
X235250D01*
X34000D02*
X189000D01*
X211750Y64750D02*
Y81250D01*
X189000Y42000D02*
X211750Y64750D01*
X252000Y136000D02*
X268300D01*
X221250Y105250D02*
X252000Y136000D01*
X221250Y103750D02*
Y105250D01*
X202250Y176500D02*
X265900D01*
X94850D02*
X202250D01*
Y103750D02*
Y176500D01*
X265900D02*
X281000Y161400D01*
X79750D02*
X94850Y176500D01*
D91*
X433250Y207250D02*
D03*
X37000Y380750D02*
D03*
X792750D02*
D03*
X785750Y830500D02*
D03*
X39250D02*
D03*
D92*
X722250Y450590D02*
D03*
X696850D02*
D03*
D93*
X671450D02*
D03*
D94*
X809250Y42000D02*
D03*
X654250D02*
D03*
X390250D02*
D03*
X235250D02*
D03*
X600250D02*
D03*
X445250D02*
D03*
X189000D02*
D03*
X34000D02*
D03*
D95*
X776200Y161400D02*
D03*
X763500Y136000D02*
D03*
X750800Y161400D02*
D03*
X738100Y136000D02*
D03*
X725400Y161400D02*
D03*
X712700Y136000D02*
D03*
X700000Y161400D02*
D03*
X357200D02*
D03*
X344500Y136000D02*
D03*
X331800Y161400D02*
D03*
X319100Y136000D02*
D03*
X306400Y161400D02*
D03*
X293700Y136000D02*
D03*
X281000Y161400D02*
D03*
X567200D02*
D03*
X554500Y136000D02*
D03*
X541800Y161400D02*
D03*
X529100Y136000D02*
D03*
X516400Y161400D02*
D03*
X503700Y136000D02*
D03*
X491000Y161400D02*
D03*
X155950D02*
D03*
X143250Y136000D02*
D03*
X130550Y161400D02*
D03*
X117850Y136000D02*
D03*
X105150Y161400D02*
D03*
X92450Y136000D02*
D03*
X79750Y161400D02*
D03*
D96*
X687300Y136000D02*
D03*
X268300D02*
D03*
X478300D02*
D03*
X67050D02*
D03*
D97*
X788900Y72500D02*
D03*
X674600D02*
D03*
X369900D02*
D03*
X255600D02*
D03*
X579900D02*
D03*
X465600D02*
D03*
X168650D02*
D03*
X54350D02*
D03*
D98*
X389500Y226000D02*
D03*
Y251400D02*
D03*
X814000Y226000D02*
D03*
Y251400D02*
D03*
X226700Y335865D02*
D03*
X277500D02*
D03*
X302900D02*
D03*
X328300D02*
D03*
X353700D02*
D03*
X648950D02*
D03*
X699750D02*
D03*
X725150D02*
D03*
X750550D02*
D03*
X775950D02*
D03*
D99*
X389500Y200600D02*
D03*
X814000D02*
D03*
X201300Y335865D02*
D03*
X623550D02*
D03*
D100*
X649750Y814000D02*
D03*
X750000Y550500D02*
D03*
D101*
X649750Y864000D02*
D03*
D102*
X418250Y879000D02*
D03*
D103*
X368250D02*
D03*
D104*
X264650Y769750D02*
D03*
D105*
X251950Y744350D02*
D03*
X239250Y769750D02*
D03*
X226550Y744350D02*
D03*
X213850Y769750D02*
D03*
X201150Y744350D02*
D03*
X188450Y769750D02*
D03*
X175750Y744350D02*
D03*
D106*
X286400Y882250D02*
D03*
X261000D02*
D03*
X153900D02*
D03*
X179300D02*
D03*
D107*
X297600Y802750D02*
D03*
X142700D02*
D03*
D108*
X163000Y833250D02*
D03*
X277300D02*
D03*
D109*
X41250Y539800D02*
D03*
Y514400D02*
D03*
Y489000D02*
D03*
Y463600D02*
D03*
D110*
Y438200D02*
D03*
D111*
X700000Y550500D02*
D03*
D112*
X144750Y630250D02*
D03*
X368750Y449000D02*
D03*
X434000Y523500D02*
D03*
X288896Y588354D02*
D03*
X669000Y189500D02*
D03*
X205230Y660364D02*
D03*
X271250Y633250D02*
D03*
X264250Y626000D02*
D03*
X226750Y593750D02*
D03*
X419750Y544750D02*
D03*
X419250Y524750D02*
D03*
X180000Y520500D02*
D03*
X194480Y521980D02*
D03*
X132750Y852000D02*
D03*
X89750Y847250D02*
D03*
X150000Y393750D02*
D03*
X368250Y372500D02*
D03*
X342000Y373000D02*
D03*
X492750Y502000D02*
D03*
X528000Y576750D02*
D03*
X531527Y563249D02*
D03*
X105500Y788750D02*
D03*
X269500Y508750D02*
D03*
X124750Y558250D02*
D03*
X257500Y550000D02*
D03*
X317750Y608250D02*
D03*
X152000Y669250D02*
D03*
X245750Y661500D02*
D03*
X577500Y705000D02*
D03*
X620750Y612500D02*
D03*
X490500Y213000D02*
D03*
X584500Y244500D02*
D03*
X644000Y280000D02*
D03*
X625250Y234000D02*
D03*
X716750Y204250D02*
D03*
X606250Y186500D02*
D03*
X250000Y189500D02*
D03*
X187250Y186500D02*
D03*
X297750Y204250D02*
D03*
X206250Y234000D02*
D03*
X225000Y280000D02*
D03*
X165500Y244500D02*
D03*
X71500Y213000D02*
D03*
X571000Y499750D02*
D03*
X512500Y502250D02*
D03*
X570500Y416500D02*
D03*
X560000Y484000D02*
D03*
X441750Y536500D02*
D03*
X357250Y503000D02*
D03*
X329230Y489750D02*
D03*
X328250Y479000D02*
D03*
X362750Y463500D02*
D03*
X377000Y433750D02*
D03*
X374750Y424000D02*
D03*
X483500Y374000D02*
D03*
X432750Y599750D02*
D03*
X462750Y564250D02*
D03*
X530750Y549750D02*
D03*
X564500Y518750D02*
D03*
X448500Y594750D02*
D03*
X448000Y583750D02*
D03*
X589500Y610750D02*
D03*
X492000Y603250D02*
D03*
X577000Y518500D02*
D03*
X396000Y597500D02*
D03*
X389250Y587750D02*
D03*
X96500Y377250D02*
D03*
X84500Y366000D02*
D03*
X382750Y578750D02*
D03*
X110250Y353500D02*
D03*
X291500Y469250D02*
D03*
X252250Y608000D02*
D03*
X257750Y616750D02*
D03*
X313500Y564750D02*
D03*
X283500Y564250D02*
D03*
X429250Y452250D02*
D03*
X439250Y452500D02*
D03*
X448750Y453000D02*
D03*
X247250Y591250D02*
D03*
X194120Y658407D02*
D03*
X188250Y587750D02*
D03*
X177250Y587500D02*
D03*
X126000Y834250D02*
D03*
X160250Y636250D02*
D03*
X213500Y717250D02*
D03*
X199500D02*
D03*
X212000Y654000D02*
D03*
X185250Y653000D02*
D03*
X225750Y576000D02*
D03*
D113*
X190250Y627000D02*
D03*
X202500D02*
D03*
Y615500D02*
D03*
X190250D02*
D03*
D114*
X225000Y541000D02*
D03*
D115*
X211750Y81250D02*
D03*
X221250Y103750D02*
D03*
X202250D02*
D03*
X625750Y81250D02*
D03*
X635250Y103750D02*
D03*
X616250D02*
D03*
M02*
