M48
;Layer_Color=9474304
;FILE_FORMAT=4:4
METRIC,LZ
;TYPE=PLATED
T1F00S00C0.3000
T2F00S00C0.7110
T3F00S00C0.8000
T4F00S00C0.8900
T5F00S00C0.9000
T6F00S00C1.0000
T7F00S00C1.0200
T8F00S00C1.1000
T9F00S00C1.2700
T10F00S00C1.4000
T11F00S00C1.6300
T12F00S00C1.8000
T13F00S00C3.2000
;TYPE=NON_PLATED
T14F00S00C3.2500
T15F00S00C3.4000
%
T01
X004905Y00213
X005845Y002445
X0062525Y00234
X00644Y0028
X00669Y001895
X0071675Y0020425
X0060625Y001865
X005705Y004165
X0056Y00484
X00571Y0049975
X00577Y005185
X005645Y0051875
X0053075Y0054975
X005125Y0050225
X0049275Y00502
X0044875Y00453
X004835Y00374
X0036825Y003725
X00342Y00373
X0037475Y00424
X00377Y0043375
X0036875Y00449
X0036275Y004635
X0035725Y00503
X0032923Y0048975
X0032825Y00479
X002915Y0046925
X002695Y0050875
X002575Y0055
X0019448Y0052198
X0018Y005205
X0015Y0039375
X000965Y0037725
X000845Y00366
X0011025Y003535
X001655Y002445
X0020625Y00234
X00225Y0028
X0025Y001895
X0029775Y0020425
X0018725Y001865
X000715Y00213
X0042925Y0045225
X0043925Y004525
X00434Y005235
X0041925Y0052475
X0041975Y0054475
X0044175Y005365
X0043275Y0059975
X00396Y005975
X0038925Y0058775
X0038275Y0057875
X003135Y0056475
X002835Y0056425
X00288896Y00588354
X0024725Y0059125
X0025225Y00608
X0025775Y0061675
X0026425Y00626
X0027125Y0063325
X0024575Y006615
X00212Y00654
X0020523Y00660364
X0019412Y00658407
X0018525Y00653
X0019025Y00627
Y006155
X002025
Y00627
X0016025Y0063625
X0014475Y0063025
X00152Y0066925
X001995Y0071725
X002135
X0022675Y0059375
X0022575Y00576
X0018825Y0058775
X0017725Y005875
X0012475Y0055825
X0031775Y0060825
X001055Y0078875
X00126Y0083425
X0013275Y00852
X0008975Y0084725
X004485Y0059475
X00448Y0058375
X0046275Y0056425
X00492Y0060325
X00528Y0057675
X00531527Y00563249
X005895Y0061075
X0062075Y006125
X005775Y00705
T02
X00225Y00541
T03
X0062355Y00335865
X0064895
X0069975
X0072515
X0075055
X0077595
X0075Y005505
X007
X003537Y00335865
X003283
X003029
X002775
X002267
X002013
X0064975Y00814
Y00864
T04
X0017575Y0074435
X0020115
X0022655
X0025195
X0026465Y0076975
X0023925
X0021385
X0018845
T05
X0004125Y004382
Y004636
Y00489
Y005144
Y005398
T06
X00814Y002006
Y00226
Y002514
X003895
Y00226
Y002006
T07
X001539Y0088225
X001793
X00261
X002864
T08
X0006705Y00136
X0009245
X0011785
X0014325
X002683
X002937
X003191
X003445
X004783
X005037
X005291
X005545
X006873
X007127
X007381
X007635
X007762Y001614
X007508
X007254
X007
X005672
X005418
X005164
X00491
X003572
X003318
X003064
X00281
X0015595
X0013055
X0010515
X0007975
T09
X0067145Y0045059
X0069685
X0072225
T10
X0036825Y00879
X0041825
T11
X001427Y0080275
X002976
T12
X00034Y00042
X00189
X0023525
X0039025
X0044525
X0060025
X0065425
X0080925
T13
X0079275Y0038075
X0043325Y0020725
X00037Y0038075
X0003925Y008305
X0078575
T14
X00163Y0083325
X002773
T15
X0005435Y000725
X0016865
X002556
X003699
X004656
X005799
X006746
X007889
M30
